<svg width="480px" height="360px" xmlns="http://www.w3.org/2000/svg"><rect x="216" y="124" width="80.5" height="80.5" fill-opacity="0"/><path fill="#F00" d="M252.952 180.448L252.952 180.448Q242.555 180.448 242.555 162.745L242.555 162.745Q242.555 154.140 245.109 149.927Q247.664 145.714 252.997 145.714L252.997 145.714Q263.440 145.714 263.440 162.700L263.440 162.700Q263.440 171.619 260.885 176.034Q258.331 180.448 252.952 180.448ZM245.154 161.401L245.154 161.401L260.796 161.401Q260.661 154.543 258.756 151.227Q256.852 147.910 252.997 147.910L252.997 147.910Q249.143 147.910 247.238 151.137Q245.333 154.364 245.154 161.401ZM252.952 178.252L252.952 178.252Q256.896 178.252 258.801 174.756Q260.706 171.261 260.840 163.507L260.840 163.507L245.154 163.507Q245.244 171.216 247.126 174.734Q249.008 178.252 252.952 178.252Z"/></svg>