<svg width="480px" height="360px" xmlns="http://www.w3.org/2000/svg"><rect x="216" y="124" width="80.5" height="80.5" fill-opacity="0"/><path fill="#F00" d="M268.190 148L268.190 168.706Q268.190 174.174 265.031 177.311Q261.871 180.448 256.090 180.448L256.090 180.448Q250.308 180.448 247.238 177.311Q244.168 174.174 244.168 168.616L244.168 168.616L244.168 148L246.768 148L246.768 168.616Q246.768 173.277 249.188 175.697Q251.608 178.118 256.224 178.118L256.224 178.118Q260.751 178.118 263.193 175.675Q265.636 173.232 265.636 168.885L265.636 168.885L265.636 148L268.190 148ZM263.529 137.513L263.529 137.871Q262.992 138.812 262.028 140.067Q261.064 141.322 259.966 142.555Q258.868 143.787 257.927 144.683L257.927 144.683L256.314 144.683L256.314 144.280Q257.031 143.429 257.860 142.218Q258.689 141.008 259.451 139.754Q260.213 138.499 260.706 137.513L260.706 137.513L263.529 137.513ZM256 137.513L256 137.871Q255.462 138.812 254.499 140.067Q253.535 141.322 252.437 142.555Q251.339 143.787 250.398 144.683L250.398 144.683L248.784 144.683L248.784 144.280Q249.501 143.429 250.331 142.218Q251.160 141.008 251.922 139.754Q252.683 138.499 253.176 137.513L253.176 137.513L256 137.513Z"/></svg>