<svg width="480px" height="360px" xmlns="http://www.w3.org/2000/svg"><rect x="216" y="124" width="80.5" height="80.5" fill-opacity="0"/><path fill="#F00" d="M263.888 168.034L263.888 168.034Q263.888 171.798 262.655 174.577Q261.423 177.356 259.025 178.902Q256.627 180.448 253.176 180.448L253.176 180.448Q249.860 180.448 247.485 178.924Q245.109 177.401 243.832 174.599Q242.555 171.798 242.555 168.034L242.555 168.034Q242.555 162.252 245.423 158.980Q248.291 155.709 253.356 155.709L253.356 155.709Q256.762 155.709 259.115 157.255Q261.468 158.801 262.678 161.580Q263.888 164.359 263.888 168.034ZM245.199 168.034L245.199 168.034Q245.199 172.650 247.148 175.451Q249.098 178.252 253.221 178.252L253.221 178.252Q257.389 178.252 259.317 175.429Q261.244 172.605 261.244 168.034L261.244 168.034Q261.244 165.076 260.437 162.790Q259.630 160.504 257.882 159.204Q256.134 157.905 253.311 157.905L253.311 157.905Q249.277 157.905 247.238 160.594Q245.199 163.283 245.199 168.034ZM252.011 145.714L254.521 145.714Q255.059 146.700 256 147.933Q256.941 149.165 257.972 150.375Q259.003 151.585 259.854 152.437L259.854 152.437L259.854 152.840L258.017 152.840Q256.807 151.854 255.552 150.555Q254.297 149.255 253.221 148L253.221 148Q252.146 149.255 250.913 150.555Q249.681 151.854 248.471 152.840L248.471 152.840L246.633 152.840L246.633 152.437Q247.485 151.541 248.515 150.353Q249.546 149.165 250.487 147.933Q251.429 146.700 252.011 145.714L252.011 145.714Z"/></svg>