<svg width="480px" height="360px" xmlns="http://www.w3.org/2000/svg"><rect x="216" y="124" width="80.5" height="80.5" fill-opacity="0"/><path fill="#F00" d="M259.182 180L256.627 180L256.627 175.966Q251.473 175.877 248.336 174.196Q245.199 172.515 243.765 169.692Q242.331 166.868 242.331 163.373L242.331 163.373Q242.331 159.832 243.742 157.098Q245.154 154.364 248.291 152.751Q251.429 151.137 256.627 151.003L256.627 151.003L256.627 148L259.182 148L259.182 151.003Q266.756 151.137 270.118 154.409Q273.479 157.681 273.479 163.238L273.479 163.238Q273.479 166.779 272 169.647Q270.521 172.515 267.384 174.196Q264.246 175.877 259.182 175.966L259.182 175.966L259.182 180ZM256.627 173.770L256.627 173.770L256.627 153.289Q250.353 153.423 247.664 156.090Q244.975 158.756 244.975 163.328L244.975 163.328Q244.975 168.168 247.776 170.902Q250.577 173.636 256.627 173.770ZM259.182 153.289L259.182 173.770Q265.232 173.636 268.034 170.835Q270.835 168.034 270.835 163.193L270.835 163.193Q270.835 158.532 268.190 155.978Q265.546 153.423 259.182 153.289L259.182 153.289Z"/></svg>