<svg width="480px" height="360px" xmlns="http://www.w3.org/2000/svg"><rect x="216" y="124" width="80.5" height="80.5" fill-opacity="0"/><path fill="#F00" d="M267.249 180L264.515 180L260.258 168.975L246.992 168.975L242.689 180L240 180L252.594 147.866L254.969 147.866L267.249 180ZM259.451 166.599L255.193 155.081Q254.924 154.454 254.476 153.109Q254.028 151.765 253.714 150.734L253.714 150.734Q253.356 151.944 252.952 153.109Q252.549 154.275 252.280 155.126L252.280 155.126L247.843 166.599L259.451 166.599ZM262.768 185.513L262.768 185.513Q262.768 187.888 265.098 187.888L265.098 187.888Q265.770 187.888 266.308 187.798Q266.846 187.709 267.249 187.619L267.249 187.619L267.249 189.412Q266.711 189.546 266.106 189.658Q265.501 189.770 264.739 189.770L264.739 189.770Q262.768 189.770 261.669 188.762Q260.571 187.754 260.571 185.826L260.571 185.826Q260.571 184.078 261.804 182.420Q263.036 180.762 264.874 179.417L264.874 179.417L266.353 180Q264.829 181.345 263.798 182.667Q262.768 183.989 262.768 185.513Z"/></svg>