<svg width="480px" height="360px" xmlns="http://www.w3.org/2000/svg"><rect x="216" y="124" width="80.5" height="80.5" fill-opacity="0"/><path fill="#F00" d="M257.345 189.053L254.835 189.053Q255.597 187.709 256.067 186.319Q256.538 184.930 256.538 183.899L256.538 183.899Q256.493 183.003 256.202 182.263Q255.910 181.524 254.924 180.941Q253.938 180.359 251.922 179.955L251.922 179.955Q246.723 178.969 244.639 176.885Q242.555 174.801 242.555 171.350L242.555 171.350Q242.555 168.975 243.451 166.667Q244.347 164.359 246.095 161.759Q247.843 159.160 250.308 155.843L250.308 155.843L256.314 147.866Q255.462 147.910 253.826 147.955Q252.190 148 250.443 148L250.443 148L243.720 148L243.720 145.938L259.227 145.938L259.227 147.597L252.011 157.277Q249.501 160.639 248 162.992Q246.499 165.345 245.849 167.227Q245.199 169.109 245.199 171.081L245.199 171.081Q245.199 172.874 245.849 174.151Q246.499 175.429 248.157 176.303Q249.815 177.176 252.818 177.759L252.818 177.759Q256.359 178.476 257.703 179.843Q259.048 181.210 259.048 183.317L259.048 183.317Q259.048 184.930 258.577 186.275Q258.106 187.619 257.345 189.053L257.345 189.053Z"/></svg>