<svg width="480px" height="360px" xmlns="http://www.w3.org/2000/svg"><rect x="216" y="124" width="80.5" height="80.5" fill-opacity="0"/><path fill="#F00" d="M253.490 180.448L253.490 180.448Q248.246 180.448 245.401 177.221Q242.555 173.994 242.555 168.213L242.555 168.213Q242.555 164.179 243.989 161.401Q245.423 158.622 248 157.165Q250.577 155.709 254.028 155.709L254.028 155.709Q255.731 155.709 257.255 156.022Q258.779 156.336 259.944 156.874L259.944 156.874L259.227 159.070Q258.017 158.577 256.627 158.286Q255.238 157.994 253.983 157.994L253.983 157.994Q249.725 157.994 247.462 160.728Q245.199 163.462 245.199 168.168L245.199 168.168Q245.199 172.650 247.216 175.406Q249.232 178.162 253.490 178.162L253.490 178.162Q255.238 178.162 256.807 177.804Q258.375 177.445 259.630 176.908L259.630 176.908L259.630 179.193Q258.465 179.776 256.964 180.112Q255.462 180.448 253.490 180.448ZM256.583 186.364L256.583 186.364Q256.583 188.426 255.036 189.591Q253.490 190.756 250.756 190.756L250.756 190.756Q249.232 190.756 248.336 190.487L248.336 190.487L248.336 188.739Q249.232 188.964 250.801 188.964L250.801 188.964Q252.459 188.964 253.445 188.359Q254.431 187.754 254.431 186.409L254.431 186.409Q254.431 185.154 253.289 184.549Q252.146 183.944 250.084 183.810L250.084 183.810L252.056 180L253.894 180L252.594 182.644Q254.342 182.868 255.462 183.787Q256.583 184.706 256.583 186.364Z"/></svg>