<svg width="480px" height="360px" xmlns="http://www.w3.org/2000/svg"><rect x="216" y="124" width="80.5" height="80.5" fill-opacity="0"/><path fill="#F00" d="M268.190 148L268.190 180L265.412 180L246.857 152.034L246.723 152.034Q246.812 153.782 246.880 155.731Q246.947 157.681 246.947 159.787L246.947 159.787L246.947 180L244.482 180L244.482 148L247.261 148L265.770 175.877L265.905 175.877Q265.815 174.487 265.770 172.336Q265.725 170.185 265.725 168.303L265.725 168.303L265.725 148L268.190 148ZM262.454 137.513L262.454 137.871Q261.782 138.812 260.683 140.067Q259.585 141.322 258.331 142.555Q257.076 143.787 255.955 144.683L255.955 144.683L254.162 144.683L254.162 144.280Q255.014 143.429 256 142.218Q256.986 141.008 257.905 139.754Q258.824 138.499 259.406 137.513L259.406 137.513L262.454 137.513Z"/></svg>