<svg width="480px" height="360px" xmlns="http://www.w3.org/2000/svg"><rect x="216" y="124" width="80.5" height="80.5" fill-opacity="0"/><path fill="#F00" d="M253.759 155.754L253.759 155.754Q255.507 155.754 256.986 156.112L256.986 156.112L256.583 158.487Q255.148 158.084 253.625 158.084L253.625 158.084Q250.353 158.084 248.426 160.504Q246.499 162.924 246.499 166.913L246.499 166.913L246.499 180L243.944 180L243.944 156.157L246.095 156.157L246.364 160.594L246.499 160.594Q247.395 158.577 249.232 157.165Q251.070 155.754 253.759 155.754ZM247.440 182.734L247.440 183.048Q247.081 184.527 246.252 186.454Q245.423 188.381 244.347 189.905L244.347 189.905L242.868 189.905L242.868 189.501Q243.227 188.784 243.630 187.552Q244.034 186.319 244.370 184.997Q244.706 183.675 244.840 182.734L244.840 182.734L247.440 182.734Z"/></svg>