<svg width="480px" height="360px" xmlns="http://www.w3.org/2000/svg"><rect x="216" y="124" width="80.5" height="80.5" fill-opacity="0"/><path fill="#F00" d="M263.081 163.910L263.081 163.910Q263.081 171.888 260.616 176.168Q258.151 180.448 252.773 180.448L252.773 180.448Q247.709 180.448 245.109 176.235Q242.510 172.022 242.510 163.910L242.510 163.910Q242.510 158.980 243.496 155.305Q244.482 151.630 246.768 149.569Q249.053 147.507 252.818 147.507L252.818 147.507Q256.493 147.507 258.756 149.524Q261.020 151.541 262.050 155.216Q263.081 158.891 263.081 163.910ZM245.064 163.910L245.064 163.910Q245.064 171.171 246.924 174.689Q248.784 178.207 252.773 178.207L252.773 178.207Q256.896 178.207 258.689 174.667Q260.482 171.126 260.482 163.910L260.482 163.910Q260.482 159.429 259.787 156.269Q259.092 153.109 257.412 151.429Q255.731 149.748 252.818 149.748L252.818 149.748Q249.905 149.748 248.224 151.451Q246.543 153.154 245.804 156.336Q245.064 159.518 245.064 163.910Z"/></svg>