<svg width="480px" height="360px" xmlns="http://www.w3.org/2000/svg"><rect x="216" y="124" width="80.5" height="80.5" fill-opacity="0"/><path fill="#F00" d="M264.919 169.692L264.919 172.022L259.585 172.022L259.585 180L257.120 180L257.120 172.022L241.031 172.022L241.031 169.916L256.941 147.821L259.585 147.821L259.585 169.692L264.919 169.692ZM257.120 169.692L257.120 157.815Q257.120 156.067 257.120 154.857Q257.120 153.647 257.165 152.683Q257.210 151.720 257.255 150.644L257.255 150.644L257.120 150.644Q256.538 151.675 256 152.571Q255.462 153.468 254.700 154.499L254.700 154.499L243.765 169.692L257.120 169.692Z"/></svg>