<svg width="480px" height="360px" xmlns="http://www.w3.org/2000/svg"><rect x="216" y="124" width="80.5" height="80.5" fill-opacity="0"/><path fill="#F00" d="M253.401 157.860L253.401 157.860Q253.401 160.056 251.473 160.056L251.473 160.056Q249.501 160.056 249.501 157.860L249.501 157.860Q249.501 155.664 251.473 155.664L251.473 155.664Q253.401 155.664 253.401 157.860ZM252.639 164.538L252.639 165.434Q252.639 167.361 252.325 168.706Q252.011 170.050 251.182 171.126Q250.353 172.202 248.874 173.367L248.874 173.367Q247.171 174.711 246.095 175.742Q245.020 176.773 244.504 177.961Q243.989 179.148 243.989 180.807L243.989 180.807Q243.989 183.585 245.669 184.952Q247.350 186.319 250.263 186.319L250.263 186.319Q252.190 186.319 253.782 185.849Q255.373 185.378 256.986 184.616L256.986 184.616L257.882 186.768Q256 187.619 254.185 188.112Q252.370 188.605 250.129 188.605L250.129 188.605Q246.095 188.605 243.787 186.611Q241.479 184.616 241.479 180.852L241.479 180.852Q241.479 178.745 242.174 177.244Q242.868 175.742 244.123 174.532Q245.378 173.322 247.081 172.022L247.081 172.022Q248.426 170.992 249.165 170.050Q249.905 169.109 250.218 167.989Q250.532 166.868 250.532 165.210L250.532 165.210L250.532 164.538L252.639 164.538Z"/></svg>