<svg width="480px" height="360px" xmlns="http://www.w3.org/2000/svg"><rect x="216" y="124" width="80.5" height="80.5" fill-opacity="0"/><path fill="#F00" d="M246.499 156.157L246.499 180L243.944 180L243.944 156.157L246.499 156.157ZM239.507 149.524L239.507 149.524Q239.507 147.731 241.076 147.731L241.076 147.731Q242.689 147.731 242.689 149.524L242.689 149.524Q242.689 151.361 241.076 151.361L241.076 151.361Q239.507 151.361 239.507 149.524ZM247.843 149.524L247.843 149.524Q247.843 147.731 249.412 147.731L249.412 147.731Q251.025 147.731 251.025 149.524L251.025 149.524Q251.025 151.361 249.412 151.361L249.412 151.361Q247.843 151.361 247.843 149.524Z"/></svg>