<svg width="480px" height="360px" xmlns="http://www.w3.org/2000/svg"><rect x="216" y="124" width="80.5" height="80.5" fill-opacity="0"/><path fill="#F00" d="M257.345 166.062L257.345 163.686L268.997 163.686L268.997 178.566Q264.291 180.448 258.375 180.448L258.375 180.448Q250.756 180.448 246.768 176.101Q242.779 171.754 242.779 164.045L242.779 164.045Q242.779 159.160 244.728 155.440Q246.678 151.720 250.353 149.613Q254.028 147.507 259.182 147.507L259.182 147.507Q264.381 147.507 268.594 149.434L268.594 149.434L267.563 151.720Q265.546 150.824 263.395 150.331Q261.244 149.838 259.048 149.838L259.048 149.838Q254.790 149.838 251.765 151.630Q248.739 153.423 247.126 156.605Q245.513 159.787 245.513 164L245.513 164Q245.513 170.947 248.919 174.532Q252.325 178.118 258.913 178.118L258.913 178.118Q261.244 178.118 263.081 177.804Q264.919 177.490 266.398 176.952L266.398 176.952L266.398 166.062L257.345 166.062ZM262.723 139.171L264.515 139.171Q264.246 141.725 262.655 143.204Q261.064 144.683 258.241 144.683L258.241 144.683Q255.328 144.683 253.782 143.227Q252.235 141.770 252.056 139.171L252.056 139.171L253.849 139.171Q254.028 140.964 255.126 141.748Q256.224 142.532 258.286 142.532L258.286 142.532Q260.213 142.532 261.356 141.725Q262.499 140.919 262.723 139.171L262.723 139.171Z"/></svg>