<svg width="480px" height="360px" xmlns="http://www.w3.org/2000/svg"><rect x="216" y="124" width="80.5" height="80.5" fill-opacity="0"/><path fill="#F00" d="M243.899 164.134L243.899 164.134Q243.899 161.132 245.826 158.667L245.826 158.667L242.599 155.395L244.034 154.006L247.261 157.188Q249.636 155.261 252.773 155.261L252.773 155.261Q255.866 155.261 258.286 157.188L258.286 157.188L261.513 154.006L262.902 155.440L259.765 158.667Q260.661 159.832 261.176 161.244Q261.692 162.655 261.692 164.134L261.692 164.134Q261.692 167.317 259.765 169.647L259.765 169.647L262.902 172.874L261.513 174.308L258.286 171.126Q255.866 173.008 252.773 173.008L252.773 173.008Q249.591 173.008 247.261 171.081L247.261 171.081L244.034 174.263L242.644 172.874L245.826 169.647Q243.899 167.227 243.899 164.134ZM245.916 164.134L245.916 164.134Q245.916 166.106 246.835 167.675Q247.754 169.244 249.322 170.140Q250.891 171.036 252.773 171.036L252.773 171.036Q254.700 171.036 256.269 170.118Q257.838 169.199 258.779 167.608Q259.720 166.017 259.720 164.134L259.720 164.134Q259.720 162.207 258.779 160.639Q257.838 159.070 256.269 158.129Q254.700 157.188 252.818 157.188L252.818 157.188Q250.891 157.188 249.322 158.129Q247.754 159.070 246.835 160.639Q245.916 162.207 245.916 164.134Z"/></svg>