<svg width="480px" height="360px" xmlns="http://www.w3.org/2000/svg"><rect x="216" y="124" width="80.5" height="80.5" fill-opacity="0"/><path fill="#F00" d="M248.336 147.686L249.412 145.894Q252.594 147.373 254.880 149.120L254.880 149.120L259.899 146.118L261.020 147.776L256.493 150.465Q259.765 153.692 261.602 158.062Q263.440 162.431 263.440 167.720L263.440 167.720Q263.440 173.546 260.728 176.997Q258.017 180.448 252.908 180.448L252.908 180.448Q249.725 180.448 247.395 179.126Q245.064 177.804 243.787 175.406Q242.510 173.008 242.510 169.782L242.510 169.782Q242.510 166.420 243.810 164Q245.109 161.580 247.417 160.280Q249.725 158.980 252.773 158.980L252.773 158.980Q255.507 158.980 257.300 159.765Q259.092 160.549 260.213 161.938L260.213 161.938L260.347 161.894Q259.675 158.980 258.129 156.336Q256.583 153.692 254.431 151.675L254.431 151.675L248.605 155.081L247.485 153.423L252.728 150.331Q250.711 148.852 248.336 147.686L248.336 147.686ZM253.042 161.132L253.042 161.132Q249.322 161.132 247.216 163.395Q245.109 165.658 245.109 169.826L245.109 169.826Q245.109 173.725 247.126 175.989Q249.143 178.252 252.952 178.252L252.952 178.252Q256.807 178.252 258.824 175.630Q260.840 173.008 260.840 167.989L260.840 167.989Q260.840 166.420 260.101 164.829Q259.361 163.238 257.681 162.185Q256 161.132 253.042 161.132Z"/></svg>