<svg width="480px" height="360px" xmlns="http://www.w3.org/2000/svg"><rect x="216" y="124" width="80.5" height="80.5" fill-opacity="0"/><path fill="#F00" d="M268.190 148L268.190 168.706Q268.190 174.174 265.031 177.311Q261.871 180.448 256.090 180.448L256.090 180.448Q250.308 180.448 247.238 177.311Q244.168 174.174 244.168 168.616L244.168 168.616L244.168 148L246.768 148L246.768 168.616Q246.768 173.277 249.188 175.697Q251.608 178.118 256.224 178.118L256.224 178.118Q260.751 178.118 263.193 175.675Q265.636 173.232 265.636 168.885L265.636 168.885L265.636 148L268.190 148ZM262.319 137.513L262.319 137.871Q261.647 138.812 260.549 140.067Q259.451 141.322 258.196 142.555Q256.941 143.787 255.821 144.683L255.821 144.683L254.028 144.683L254.028 144.280Q254.880 143.429 255.866 142.218Q256.852 141.008 257.770 139.754Q258.689 138.499 259.272 137.513L259.272 137.513L262.319 137.513Z"/></svg>