<svg width="480px" height="360px" xmlns="http://www.w3.org/2000/svg"><rect x="216" y="124" width="80.5" height="80.5" fill-opacity="0"/><path fill="#F00" d="M244.482 148L252.459 148Q258.196 148 261.087 149.994Q263.978 151.989 263.978 156.784L263.978 156.784Q263.978 160.459 262.028 162.543Q260.078 164.627 257.165 165.479L257.165 165.479L265.950 180L262.857 180L254.700 166.196L247.081 166.196L247.081 180L244.482 180L244.482 148ZM252.235 150.286L252.235 150.286L247.081 150.286L247.081 163.955L253.132 163.955Q257.031 163.955 259.160 162.140Q261.289 160.325 261.289 156.874L261.289 156.874Q261.289 153.199 259.048 151.742Q256.807 150.286 252.235 150.286ZM259.585 137.513L259.585 137.871Q258.913 138.812 257.815 140.067Q256.717 141.322 255.462 142.555Q254.207 143.787 253.087 144.683L253.087 144.683L251.294 144.683L251.294 144.280Q252.146 143.429 253.132 142.218Q254.118 141.008 255.036 139.754Q255.955 138.499 256.538 137.513L256.538 137.513L259.585 137.513Z"/></svg>