<svg width="480px" height="360px" xmlns="http://www.w3.org/2000/svg"><rect x="216" y="124" width="80.5" height="80.5" fill-opacity="0"/><path fill="#F00" d="M260.168 156.157L262.723 156.157L262.723 180L260.661 180L260.258 175.922L260.123 175.922Q259.137 177.894 257.098 179.171Q255.059 180.448 252.011 180.448L252.011 180.448Q243.630 180.448 243.630 171.754L243.630 171.754L243.630 156.157L246.185 156.157L246.185 171.529Q246.185 174.980 247.731 176.616Q249.277 178.252 252.325 178.252L252.325 178.252Q260.168 178.252 260.168 169.154L260.168 169.154L260.168 156.157ZM260.706 145.669L260.706 146.028Q260.168 146.969 259.204 148.224Q258.241 149.479 257.143 150.711Q256.045 151.944 255.104 152.840L255.104 152.840L253.490 152.840L253.490 152.437Q254.207 151.585 255.036 150.375Q255.866 149.165 256.627 147.910Q257.389 146.655 257.882 145.669L257.882 145.669L260.706 145.669ZM253.176 145.669L253.176 146.028Q252.639 146.969 251.675 148.224Q250.711 149.479 249.613 150.711Q248.515 151.944 247.574 152.840L247.574 152.840L245.961 152.840L245.961 152.437Q246.678 151.585 247.507 150.375Q248.336 149.165 249.098 147.910Q249.860 146.655 250.353 145.669L250.353 145.669L253.176 145.669Z"/></svg>