<svg width="480px" height="360px" xmlns="http://www.w3.org/2000/svg"><rect x="216" y="124" width="80.5" height="80.5" fill-opacity="0"/><path fill="#F00" d="M253.759 155.754L253.759 155.754Q255.507 155.754 256.986 156.112L256.986 156.112L256.583 158.487Q255.148 158.084 253.625 158.084L253.625 158.084Q250.353 158.084 248.426 160.504Q246.499 162.924 246.499 166.913L246.499 166.913L246.499 180L243.944 180L243.944 156.157L246.095 156.157L246.364 160.594L246.499 160.594Q247.395 158.577 249.232 157.165Q251.070 155.754 253.759 155.754ZM250.846 152.840L248.336 152.840Q247.754 151.854 246.812 150.644Q245.871 149.434 244.840 148.246Q243.810 147.059 243.003 146.162L243.003 146.162L243.003 145.714L244.840 145.714Q246.050 146.745 247.283 148.045Q248.515 149.345 249.546 150.599L249.546 150.599Q250.622 149.345 251.899 148.045Q253.176 146.745 254.387 145.714L254.387 145.714L256.224 145.714L256.224 146.162Q255.373 147.059 254.319 148.246Q253.266 149.434 252.325 150.644Q251.384 151.854 250.846 152.840L250.846 152.840Z"/></svg>