<svg width="480px" height="360px" xmlns="http://www.w3.org/2000/svg"><rect x="216" y="124" width="80.5" height="80.5" fill-opacity="0"/><path fill="#F00" d="M271.193 155.709L271.193 155.709Q274.196 155.709 276.235 157.120Q278.275 158.532 279.305 160.997Q280.336 163.462 280.336 166.644L280.336 166.644L280.336 168.392L263.574 168.392Q263.574 173.277 265.725 175.742Q267.877 178.207 271.910 178.207L271.910 178.207Q274.151 178.207 275.787 177.826Q277.423 177.445 279.350 176.594L279.350 176.594L279.350 178.924Q277.602 179.731 275.877 180.090Q274.151 180.448 271.866 180.448L271.866 180.448Q268.146 180.448 265.770 178.745Q263.395 177.042 262.319 174.039L262.319 174.039Q261.199 176.997 258.868 178.723Q256.538 180.448 253.042 180.448L253.042 180.448Q249.770 180.448 247.417 178.924Q245.064 177.401 243.810 174.599Q242.555 171.798 242.555 168.034L242.555 168.034Q242.555 162.252 245.378 158.980Q248.202 155.709 253.266 155.709L253.266 155.709Q256.762 155.709 259.003 157.457Q261.244 159.204 262.275 162.162L262.275 162.162Q263.350 159.294 265.591 157.501Q267.832 155.709 271.193 155.709ZM271.148 157.905L271.148 157.905Q267.922 157.905 265.950 160.034Q263.978 162.162 263.619 166.286L263.619 166.286L277.647 166.286Q277.647 162.521 276.078 160.213Q274.510 157.905 271.148 157.905ZM253.176 157.905L253.176 157.905Q249.188 157.905 247.193 160.549Q245.199 163.193 245.199 168.034L245.199 168.034Q245.199 172.784 247.104 175.518Q249.008 178.252 253.087 178.252L253.087 178.252Q257.165 178.252 259.070 175.541Q260.975 172.829 260.975 168.123L260.975 168.123Q260.975 163.507 259.137 160.706Q257.300 157.905 253.176 157.905Z"/></svg>