<svg width="480px" height="360px" xmlns="http://www.w3.org/2000/svg"><rect x="216" y="124" width="80.5" height="80.5" fill-opacity="0"/><path fill="#F00" d="M251.697 178.387L251.697 180L242.286 180L242.286 178.387L245.692 177.894L245.692 150.151L242.286 149.613L242.286 148L251.697 148L251.697 149.613L248.291 150.151L248.291 177.894L251.697 178.387ZM241.300 141.367L241.300 141.367Q241.300 139.574 242.868 139.574L242.868 139.574Q244.482 139.574 244.482 141.367L244.482 141.367Q244.482 143.204 242.868 143.204L242.868 143.204Q241.300 143.204 241.300 141.367ZM249.636 141.367L249.636 141.367Q249.636 139.574 251.204 139.574L251.204 139.574Q252.818 139.574 252.818 141.367L252.818 141.367Q252.818 143.204 251.204 143.204L251.204 143.204Q249.636 143.204 249.636 141.367Z"/></svg>