<svg width="480px" height="360px" xmlns="http://www.w3.org/2000/svg"><rect x="216" y="124" width="80.5" height="80.5" fill-opacity="0"/><path fill="#F00" d="M248.426 180L246.140 180L264.246 148L266.532 148L248.426 180ZM246.992 167.182L246.992 154.723Q246.992 153.513 247.014 152.325Q247.036 151.137 247.126 150.062L247.126 150.062Q246.499 150.510 245.871 150.936Q245.244 151.361 244.437 151.854L244.437 151.854L242.151 153.289L241.120 151.675L247.081 148L249.188 148L249.188 167.182L246.992 167.182ZM268.908 180L266.667 180L266.667 174.891L257.748 174.891L257.748 173.322L266.667 160.683L268.908 160.683L268.908 173.008L271.955 173.008L271.955 174.891L268.908 174.891L268.908 180ZM264.919 166.017L260.034 173.008L266.667 173.008L266.667 167.272Q266.667 166.241 266.689 165.188Q266.711 164.134 266.756 163.148L266.756 163.148Q266.443 163.776 265.927 164.560Q265.412 165.345 264.919 166.017L264.919 166.017Z"/></svg>