<svg width="480px" height="360px" xmlns="http://www.w3.org/2000/svg"><rect x="216" y="124" width="80.5" height="80.5" fill-opacity="0"/><path fill="#F00" d="M253.176 150.331L253.176 180L250.577 180L250.577 150.331L240.269 150.331L240.269 148L263.485 148L263.485 150.331L253.176 150.331ZM255.776 186.364L255.776 186.364Q255.776 188.426 254.230 189.591Q252.683 190.756 249.950 190.756L249.950 190.756Q248.426 190.756 247.529 190.487L247.529 190.487L247.529 188.739Q248.426 188.964 249.994 188.964L249.994 188.964Q251.653 188.964 252.639 188.359Q253.625 187.754 253.625 186.409L253.625 186.409Q253.625 185.154 252.482 184.549Q251.339 183.944 249.277 183.810L249.277 183.810L251.249 180L253.087 180L251.787 182.644Q253.535 182.868 254.655 183.787Q255.776 184.706 255.776 186.364Z"/></svg>