<svg width="480px" height="360px" xmlns="http://www.w3.org/2000/svg"><rect x="216" y="124" width="80.5" height="80.5" fill-opacity="0"/><path fill="#F00" d="M283.518 163.955L283.518 163.955Q283.518 168.796 281.994 172.515Q280.471 176.235 277.401 178.342Q274.331 180.448 269.669 180.448L269.669 180.448Q265.098 180.448 262.073 178.431Q259.048 176.415 257.501 172.807Q255.955 169.199 255.866 164.403L255.866 164.403L247.081 164.403L247.081 180L244.482 180L244.482 148L247.081 148L247.081 162.073L255.910 162.073Q256.134 157.725 257.725 154.431Q259.317 151.137 262.319 149.322Q265.322 147.507 269.714 147.507L269.714 147.507Q274.241 147.507 277.311 149.569Q280.381 151.630 281.950 155.328Q283.518 159.025 283.518 163.955ZM258.555 163.641L258.555 163.641Q258.555 167.944 259.720 171.216Q260.885 174.487 263.350 176.303Q265.815 178.118 269.669 178.118L269.669 178.118Q273.524 178.118 275.989 176.347Q278.454 174.577 279.619 171.373Q280.784 168.168 280.784 163.955L280.784 163.955Q280.784 159.742 279.619 156.583Q278.454 153.423 276.011 151.630Q273.569 149.838 269.714 149.838L269.714 149.838Q265.905 149.838 263.417 151.563Q260.930 153.289 259.742 156.381Q258.555 159.473 258.555 163.641Z"/></svg>