<svg width="480px" height="360px" xmlns="http://www.w3.org/2000/svg"><rect x="216" y="124" width="80.5" height="80.5" fill-opacity="0"/><path fill="#F00" d="M268.190 148L268.190 168.706Q268.190 174.174 265.031 177.311Q261.871 180.448 256.090 180.448L256.090 180.448Q250.308 180.448 247.238 177.311Q244.168 174.174 244.168 168.616L244.168 168.616L244.168 148L246.768 148L246.768 168.616Q246.768 173.277 249.188 175.697Q251.608 178.118 256.224 178.118L256.224 178.118Q260.751 178.118 263.193 175.675Q265.636 173.232 265.636 168.885L265.636 168.885L265.636 148L268.190 148ZM250.174 144.415L248.471 144.415Q248.695 141.994 249.860 140.672Q251.025 139.350 252.952 139.350L252.952 139.350Q253.983 139.350 254.857 139.798Q255.731 140.246 256.515 140.829Q257.300 141.412 258.062 141.860Q258.824 142.308 259.630 142.308L259.630 142.308Q260.616 142.308 261.333 141.658Q262.050 141.008 262.319 139.305L262.319 139.305L263.978 139.305Q263.754 141.725 262.566 143.070Q261.378 144.415 259.496 144.415L259.496 144.415Q258.465 144.415 257.591 143.966Q256.717 143.518 255.955 142.936Q255.193 142.353 254.431 141.905Q253.669 141.457 252.818 141.457L252.818 141.457Q251.787 141.457 251.115 142.106Q250.443 142.756 250.174 144.415L250.174 144.415Z"/></svg>