<svg width="480px" height="360px" xmlns="http://www.w3.org/2000/svg"><rect x="216" y="124" width="80.5" height="80.5" fill-opacity="0"/><path fill="#F00" d="M268.190 148L268.190 180L265.412 180L246.857 152.034L246.723 152.034Q246.812 153.782 246.880 155.731Q246.947 157.681 246.947 159.787L246.947 159.787L246.947 180L244.482 180L244.482 148L247.261 148L265.770 175.877L265.905 175.877Q265.815 174.487 265.770 172.336Q265.725 170.185 265.725 168.303L265.725 168.303L265.725 148L268.190 148ZM258.644 182.734L258.644 183.048Q258.286 184.527 257.457 186.454Q256.627 188.381 255.552 189.905L255.552 189.905L254.073 189.905L254.073 189.501Q254.431 188.784 254.835 187.552Q255.238 186.319 255.574 184.997Q255.910 183.675 256.045 182.734L256.045 182.734L258.644 182.734Z"/></svg>