<svg width="480px" height="360px" xmlns="http://www.w3.org/2000/svg"><rect x="216" y="124" width="80.5" height="80.5" fill-opacity="0"/><path fill="#F00" d="M256.762 180L247.798 180L247.798 150.331L240.269 150.331L240.269 148L250.353 148L250.353 161.938L256.269 161.938Q262.006 161.938 264.717 164.179Q267.429 166.420 267.429 170.768L267.429 170.768Q267.429 175.160 264.762 177.580Q262.095 180 256.762 180L256.762 180ZM250.353 177.714L256.403 177.714Q260.661 177.714 262.700 176.034Q264.739 174.353 264.739 170.768L264.739 170.768Q264.739 167.003 262.454 165.636Q260.168 164.269 255.910 164.269L255.910 164.269L250.353 164.269L250.353 177.714Z"/></svg>