<svg width="480px" height="360px" xmlns="http://www.w3.org/2000/svg"><rect x="216" y="124" width="80.5" height="80.5" fill-opacity="0"/><path fill="#F00" d="M256 147.552L258.555 147.552L258.555 151.451Q265.457 151.585 268.818 154.633Q272.179 157.681 272.179 163.238L272.179 163.238Q272.179 166.779 270.700 169.535Q269.221 172.291 266.196 173.860Q263.171 175.429 258.555 175.518L258.555 175.518L258.555 180.448L256 180.448L256 175.518Q251.294 175.429 248.291 173.860Q245.289 172.291 243.832 169.580Q242.375 166.868 242.375 163.373L242.375 163.373Q242.375 158.084 245.647 154.857Q248.919 151.630 256 151.451L256 151.451L256 147.552ZM256 173.322L256 153.737Q250.398 153.871 247.709 156.314Q245.020 158.756 245.020 163.328L245.020 163.328Q245.020 168.168 247.821 170.678Q250.622 173.188 256 173.322L256 173.322ZM258.555 153.737L258.555 173.322Q263.933 173.188 266.734 170.611Q269.535 168.034 269.535 163.193L269.535 163.193Q269.535 158.532 266.891 156.202Q264.246 153.871 258.555 153.737L258.555 153.737Z"/></svg>