<svg width="480px" height="360px" xmlns="http://www.w3.org/2000/svg"><rect x="216" y="124" width="80.5" height="80.5" fill-opacity="0"/><path fill="#F00" d="M246.499 190.577L243.944 190.577L243.944 156.157L246.499 156.157L246.499 171.574Q246.499 178.252 252.997 178.252L252.997 178.252Q256.896 178.252 258.599 175.877Q260.303 173.501 260.303 169.154L260.303 169.154L260.303 156.157L262.857 156.157L262.857 174.667Q262.857 176.728 263.395 177.490Q263.933 178.252 264.919 178.252L264.919 178.252Q265.681 178.252 266.398 178.028L266.398 178.028L266.398 180Q266.084 180.179 265.501 180.314Q264.919 180.448 264.291 180.448L264.291 180.448Q262.543 180.448 261.625 179.507Q260.706 178.566 260.437 176.280L260.437 176.280L260.213 176.280Q259.227 178.118 257.524 179.283Q255.821 180.448 252.863 180.448L252.863 180.448Q250.487 180.448 248.919 179.664Q247.350 178.880 246.499 177.625L246.499 177.625L246.364 177.625Q246.409 178.297 246.454 179.238Q246.499 180.179 246.499 181.345L246.499 181.345L246.499 190.577Z"/></svg>