<svg width="480px" height="360px" xmlns="http://www.w3.org/2000/svg"><rect x="216" y="124" width="80.5" height="80.5" fill-opacity="0"/><path fill="#F00" d="M268.190 148L268.190 168.706Q268.190 174.174 265.031 177.311Q261.871 180.448 256.090 180.448L256.090 180.448Q250.308 180.448 247.238 177.311Q244.168 174.174 244.168 168.616L244.168 168.616L244.168 148L246.768 148L246.768 168.616Q246.768 173.277 249.188 175.697Q251.608 178.118 256.224 178.118L256.224 178.118Q260.751 178.118 263.193 175.675Q265.636 173.232 265.636 168.885L265.636 168.885L265.636 148L268.190 148ZM260.616 139.171L262.409 139.171Q262.140 141.725 260.549 143.204Q258.958 144.683 256.134 144.683L256.134 144.683Q253.221 144.683 251.675 143.227Q250.129 141.770 249.950 139.171L249.950 139.171L251.742 139.171Q251.922 140.964 253.020 141.748Q254.118 142.532 256.179 142.532L256.179 142.532Q258.106 142.532 259.249 141.725Q260.392 140.919 260.616 139.171L260.616 139.171Z"/></svg>