<svg width="480px" height="360px" xmlns="http://www.w3.org/2000/svg"><rect x="216" y="124" width="80.5" height="80.5" fill-opacity="0"/><path fill="#F00" d="M244.078 190.577L241.300 190.577L251.384 173.367L245.782 161.176Q245.064 159.608 244.415 158.824Q243.765 158.039 242.824 158.039L242.824 158.039Q242.017 158.039 241.255 158.353L241.255 158.353L241.255 156.246Q241.613 156.112 242.084 156Q242.555 155.888 243.361 155.888L243.361 155.888Q244.885 155.888 245.826 156.672Q246.768 157.457 247.754 159.608L247.754 159.608L253.042 170.992L260.751 156.157L263.485 156.157L254.118 173.412L259.227 184.392Q260.258 186.678 260.975 187.619Q261.692 188.560 263.081 188.560L263.081 188.560Q263.619 188.560 264.045 188.493Q264.471 188.426 264.829 188.336L264.829 188.336L264.829 190.398Q264.426 190.532 263.910 190.622Q263.395 190.711 262.678 190.711L262.678 190.711Q260.527 190.756 259.451 189.636Q258.375 188.515 257.210 185.961L257.210 185.961L252.504 175.742L244.078 190.577Z"/></svg>