<svg width="480px" height="360px" xmlns="http://www.w3.org/2000/svg"><rect x="216" y="124" width="80.5" height="80.5" fill-opacity="0"/><path fill="#F00" d="M251.742 180.448L251.742 180.448Q246.768 180.448 244.437 178.521Q242.106 176.594 242.106 173.636L242.106 173.636Q242.106 171.081 243.563 169.692Q245.020 168.303 247.485 167.720L247.485 167.720L247.485 167.541Q245.154 166.913 244.056 165.479Q242.958 164.045 242.958 162.028L242.958 162.028Q242.958 158.846 245.468 157.277Q247.978 155.709 251.922 155.709L251.922 155.709Q254.431 155.709 256.314 156.179Q258.196 156.650 259.496 157.322L259.496 157.322L258.734 159.518Q257.345 158.801 255.619 158.353Q253.894 157.905 251.966 157.905L251.966 157.905Q248.605 157.905 247.059 159.048Q245.513 160.190 245.513 162.162L245.513 162.162Q245.513 164.314 247.216 165.434Q248.919 166.555 251.832 166.555L251.832 166.555L255.283 166.555L255.283 168.661L251.832 168.661Q248.560 168.661 246.655 169.804Q244.751 170.947 244.751 173.501L244.751 173.501Q244.751 175.653 246.521 176.930Q248.291 178.207 251.742 178.207L251.742 178.207Q256.134 178.207 259.182 176.594L259.182 176.594L259.182 178.880Q257.838 179.686 255.933 180.067Q254.028 180.448 251.742 180.448Z"/></svg>