<svg width="480px" height="360px" xmlns="http://www.w3.org/2000/svg"><rect x="216" y="124" width="80.5" height="80.5" fill-opacity="0"/><path fill="#F00" d="M247.754 180L245.468 180L263.574 148L265.860 148L247.754 180ZM246.723 167.182L246.723 154.723Q246.723 153.513 246.745 152.325Q246.768 151.137 246.857 150.062L246.857 150.062Q246.230 150.510 245.602 150.936Q244.975 151.361 244.168 151.854L244.168 151.854L241.882 153.289L240.852 151.675L246.812 148L248.919 148L248.919 167.182L246.723 167.182ZM272.493 180L259.899 180L259.899 178.297L265.232 172.964Q266.936 171.261 268.011 170.073Q269.087 168.885 269.580 167.854Q270.073 166.824 270.073 165.658L270.073 165.658Q270.073 164.090 269.087 163.148Q268.101 162.207 266.353 162.207L266.353 162.207Q264.964 162.207 263.798 162.700Q262.633 163.193 261.468 164.090L261.468 164.090L260.392 162.611Q261.647 161.580 263.126 160.975Q264.605 160.370 266.353 160.370L266.353 160.370Q269.132 160.370 270.700 161.804Q272.269 163.238 272.269 165.569L272.269 165.569Q272.269 167.092 271.619 168.370Q270.969 169.647 269.737 170.969Q268.504 172.291 266.801 173.950L266.801 173.950L262.678 178.028L272.493 178.028L272.493 180Z"/></svg>