<svg width="480px" height="360px" xmlns="http://www.w3.org/2000/svg"><rect x="216" y="124" width="80.5" height="80.5" fill-opacity="0"/><path fill="#F00" d="M253.221 156.157L253.221 158.218L247.529 158.218L247.529 180L244.975 180L244.975 158.218L240.583 158.218L240.583 156.829L244.975 156.067L244.975 153.692Q244.975 145.714 252.101 145.714L252.101 145.714Q253.356 145.714 254.387 145.916Q255.417 146.118 256.269 146.387L256.269 146.387L255.686 148.493Q254.880 148.224 253.961 148.045Q253.042 147.866 252.146 147.866L252.146 147.866Q249.725 147.866 248.627 149.255Q247.529 150.644 247.529 153.692L247.529 153.692L247.529 156.157L253.221 156.157Z"/></svg>