<svg width="480px" height="360px" xmlns="http://www.w3.org/2000/svg"><rect x="216" y="124" width="80.5" height="80.5" fill-opacity="0"/><path fill="#F00" d="M243.496 149.255L243.496 149.255Q243.496 147.328 245.244 147.328L245.244 147.328Q246.992 147.328 246.992 149.255L246.992 149.255Q246.992 151.227 245.244 151.227L245.244 151.227Q243.496 151.227 243.496 149.255ZM240.762 190.756L240.762 190.756Q239.731 190.756 238.969 190.622Q238.207 190.487 237.669 190.263L237.669 190.263L237.669 188.067Q238.924 188.560 240.493 188.560L240.493 188.560Q242.106 188.560 243.025 187.574Q243.944 186.588 243.944 184.437L243.944 184.437L243.944 156.157L246.499 156.157L246.499 184.482Q246.499 187.529 244.975 189.143Q243.451 190.756 240.762 190.756Z"/></svg>