<svg width="480px" height="360px" xmlns="http://www.w3.org/2000/svg"><rect x="216" y="124" width="80.5" height="80.5" fill-opacity="0"/><path fill="#F00" d="M259.048 180L256.493 180L256.493 171.485Q250.667 171.261 247.417 168.258Q244.168 165.255 244.168 158.487L244.168 158.487L244.168 148L246.812 148L246.812 158.532Q246.812 164.224 249.300 166.667Q251.787 169.109 256.493 169.199L256.493 169.199L256.493 148L259.048 148L259.048 169.199Q263.754 169.109 266.263 166.689Q268.773 164.269 268.773 158.487L268.773 158.487L268.773 148L271.417 148L271.417 158.487Q271.417 165.210 268.123 168.235Q264.829 171.261 259.048 171.485L259.048 171.485L259.048 180Z"/></svg>