<svg width="480px" height="360px" xmlns="http://www.w3.org/2000/svg"><rect x="216" y="124" width="80.5" height="80.5" fill-opacity="0"/><path fill="#F00" d="M246.454 145.938L246.454 155.350Q246.454 156.650 246.409 158.106Q246.364 159.563 246.319 160.459L246.319 160.459L246.454 160.459Q247.350 158.443 249.412 157.076Q251.473 155.709 254.566 155.709L254.566 155.709Q259.137 155.709 261.714 158.824Q264.291 161.938 264.291 168.034L264.291 168.034Q264.291 173.681 261.714 177.064Q259.137 180.448 254.207 180.448L254.207 180.448Q251.204 180.448 249.300 179.216Q247.395 177.983 246.499 176.146L246.499 176.146L246.319 176.146L245.826 180L243.899 180L243.899 145.938L246.454 145.938ZM254.252 157.905L254.252 157.905Q250.084 157.905 248.269 160.504Q246.454 163.104 246.454 168.034L246.454 168.034L246.454 168.347Q246.454 173.188 248.179 175.720Q249.905 178.252 253.938 178.252L253.938 178.252Q257.748 178.252 259.697 175.585Q261.647 172.919 261.647 167.989L261.647 167.989Q261.647 157.905 254.252 157.905Z"/></svg>