<svg width="480px" height="360px" xmlns="http://www.w3.org/2000/svg"><rect x="216" y="124" width="80.5" height="80.5" fill-opacity="0"/><path fill="#F00" d="M253.759 159.384L253.759 161.356L241.165 161.356L241.165 159.653L246.499 154.319Q248.202 152.616 249.255 151.429Q250.308 150.241 250.801 149.210Q251.294 148.179 251.294 147.014L251.294 147.014Q251.294 145.445 250.308 144.504Q249.322 143.563 247.574 143.563L247.574 143.563Q246.185 143.563 245.042 144.056Q243.899 144.549 242.689 145.445L242.689 145.445L241.613 143.966Q242.868 142.936 244.370 142.331Q245.871 141.725 247.619 141.725L247.619 141.725Q250.353 141.725 251.922 143.160Q253.490 144.594 253.490 146.924L253.490 146.924Q253.490 148.448 252.840 149.725Q252.190 151.003 250.980 152.325Q249.770 153.647 248.067 155.305L248.067 155.305L243.944 159.384L253.759 159.384Z"/></svg>