<svg width="480px" height="360px" xmlns="http://www.w3.org/2000/svg"><rect x="216" y="124" width="80.5" height="80.5" fill-opacity="0"/><path fill="#F00" d="M244.482 148L252.459 148Q258.196 148 261.087 149.994Q263.978 151.989 263.978 156.784L263.978 156.784Q263.978 160.459 262.028 162.543Q260.078 164.627 257.165 165.479L257.165 165.479L265.950 180L262.857 180L254.700 166.196L247.081 166.196L247.081 180L244.482 180L244.482 148ZM252.235 150.286L252.235 150.286L247.081 150.286L247.081 163.955L253.132 163.955Q257.031 163.955 259.160 162.140Q261.289 160.325 261.289 156.874L261.289 156.874Q261.289 153.199 259.048 151.742Q256.807 150.286 252.235 150.286ZM254.700 144.683L252.190 144.683Q251.608 143.697 250.667 142.487Q249.725 141.277 248.695 140.090Q247.664 138.902 246.857 138.006L246.857 138.006L246.857 137.557L248.695 137.557Q249.905 138.588 251.137 139.888Q252.370 141.188 253.401 142.443L253.401 142.443Q254.476 141.188 255.754 139.888Q257.031 138.588 258.241 137.557L258.241 137.557L260.078 137.557L260.078 138.006Q259.227 138.902 258.174 140.090Q257.120 141.277 256.179 142.487Q255.238 143.697 254.700 144.683L254.700 144.683Z"/></svg>