<svg width="480px" height="360px" xmlns="http://www.w3.org/2000/svg"><rect x="216" y="124" width="80.5" height="80.5" fill-opacity="0"/><path fill="#F00" d="M252.773 158.443L252.773 158.443Q250.936 158.443 250.936 156.381L250.936 156.381Q250.936 154.319 252.773 154.319L252.773 154.319Q254.611 154.319 254.611 156.381L254.611 156.381Q254.611 158.443 252.773 158.443ZM263.216 165.255L242.375 165.255L242.375 163.104L263.216 163.104L263.216 165.255ZM252.773 174.039L252.773 174.039Q250.936 174.039 250.936 171.978L250.936 171.978Q250.936 169.961 252.773 169.961L252.773 169.961Q254.611 169.961 254.611 171.978L254.611 171.978Q254.611 174.039 252.773 174.039Z"/></svg>