<svg width="480px" height="360px" xmlns="http://www.w3.org/2000/svg"><rect x="216" y="124" width="80.5" height="80.5" fill-opacity="0"/><path fill="#F00" d="M244.482 148L253.356 148Q259.272 148 262.095 149.860Q264.919 151.720 264.919 155.798L264.919 155.798Q264.919 158.577 263.328 160.549Q261.737 162.521 258.689 163.059L258.689 163.059L258.689 163.193Q262.185 163.776 264.022 165.658Q265.860 167.541 265.860 170.902L265.860 170.902Q265.860 173.994 264.426 176.011Q262.992 178.028 260.459 179.014Q257.927 180 254.611 180L254.611 180L244.482 180L244.482 148ZM247.081 162.118L253.938 162.118Q258.375 162.118 260.303 160.594Q262.230 159.070 262.230 156.067L262.230 156.067Q262.230 152.975 260.123 151.630Q258.017 150.286 253.356 150.286L253.356 150.286L247.081 150.286L247.081 162.118ZM253.983 164.359L247.081 164.359L247.081 177.714L254.387 177.714Q258.779 177.714 260.930 175.944Q263.081 174.174 263.081 170.768L263.081 170.768Q263.081 167.451 260.840 165.905Q258.599 164.359 253.983 164.359L253.983 164.359Z"/></svg>