<svg width="480px" height="360px" xmlns="http://www.w3.org/2000/svg"><rect x="216" y="124" width="80.5" height="80.5" fill-opacity="0"/><path fill="#F00" d="M256.493 145.938L256.493 155.798Q261.826 156.157 264.896 159.384Q267.966 162.611 267.966 168.034L267.966 168.034Q267.966 173.322 264.941 176.639Q261.916 179.955 256.493 180.359L256.493 180.359L256.493 190.756L253.983 190.756L253.983 180.359Q248.650 180.045 245.580 176.796Q242.510 173.546 242.510 168.034L242.510 168.034Q242.510 162.611 245.535 159.384Q248.560 156.157 254.073 155.798L254.073 155.798L254.073 145.938L256.493 145.938ZM254.073 178.162L254.073 157.994Q249.591 158.263 247.395 160.908Q245.199 163.552 245.199 168.034L245.199 168.034Q245.199 172.650 247.417 175.272Q249.636 177.894 254.073 178.162L254.073 178.162ZM256.493 157.994L256.493 178.162Q260.840 177.849 263.081 175.137Q265.322 172.426 265.322 168.034L265.322 168.034Q265.322 163.552 263.104 160.952Q260.885 158.353 256.493 157.994L256.493 157.994Z"/></svg>