<svg width="480px" height="360px" xmlns="http://www.w3.org/2000/svg"><rect x="216" y="124" width="80.5" height="80.5" fill-opacity="0"/><path fill="#F00" d="M247.081 180L244.482 180L244.482 173.457L240.448 173.457L240.448 171.440L244.482 171.440L244.482 166.286L240.448 166.286L240.448 164.045L244.482 164.045L244.482 148L252.011 148Q263.305 148 263.305 156.829L263.305 156.829Q263.305 161.580 260.168 163.933Q257.031 166.286 251.384 166.286L251.384 166.286L247.081 166.286L247.081 171.440L254.745 171.440L254.745 173.457L247.081 173.457L247.081 180ZM247.081 164.045L251.025 164.045Q253.938 164.045 256.090 163.395Q258.241 162.745 259.429 161.176Q260.616 159.608 260.616 156.919L260.616 156.919Q260.616 153.468 258.443 151.854Q256.269 150.241 251.742 150.241L251.742 150.241L247.081 150.241L247.081 164.045Z"/></svg>