<svg width="480px" height="360px" xmlns="http://www.w3.org/2000/svg"><rect x="216" y="124" width="80.5" height="80.5" fill-opacity="0"/><path fill="#F00" d="M267.249 180L264.515 180L260.258 168.975L246.992 168.975L242.689 180L240 180L252.594 147.866L254.969 147.866L267.249 180ZM259.451 166.599L255.193 155.081Q254.924 154.454 254.476 153.109Q254.028 151.765 253.714 150.734L253.714 150.734Q253.356 151.944 252.952 153.109Q252.549 154.275 252.280 155.126L252.280 155.126L247.843 166.599L259.451 166.599ZM248.829 137.513L251.877 137.513Q252.415 138.499 253.333 139.754Q254.252 141.008 255.261 142.218Q256.269 143.429 257.120 144.280L257.120 144.280L257.120 144.683L255.328 144.683Q254.207 143.787 252.952 142.555Q251.697 141.322 250.599 140.067Q249.501 138.812 248.829 137.871L248.829 137.871L248.829 137.513Z"/></svg>