<svg width="480px" height="360px" xmlns="http://www.w3.org/2000/svg"><rect x="216" y="124" width="80.5" height="80.5" fill-opacity="0"/><path fill="#F00" d="M240.762 190.756L240.762 190.756Q239.731 190.756 238.969 190.622Q238.207 190.487 237.669 190.263L237.669 190.263L237.669 188.067Q238.924 188.560 240.493 188.560L240.493 188.560Q242.106 188.560 243.025 187.574Q243.944 186.588 243.944 184.437L243.944 184.437L243.944 156.157L246.499 156.157L246.499 184.482Q246.499 187.529 244.975 189.143Q243.451 190.756 240.762 190.756ZM243.989 145.714L246.499 145.714Q247.036 146.700 247.978 147.933Q248.919 149.165 249.950 150.375Q250.980 151.585 251.832 152.437L251.832 152.437L251.832 152.840L249.994 152.840Q248.784 151.854 247.529 150.555Q246.275 149.255 245.199 148L245.199 148Q244.123 149.255 242.891 150.555Q241.658 151.854 240.448 152.840L240.448 152.840L238.611 152.840L238.611 152.437Q239.462 151.541 240.493 150.353Q241.524 149.165 242.465 147.933Q243.406 146.700 243.989 145.714L243.989 145.714Z"/></svg>