<svg width="480px" height="360px" xmlns="http://www.w3.org/2000/svg"><rect x="216" y="124" width="80.5" height="80.5" fill-opacity="0"/><path fill="#F00" d="M242.779 166.375L242.779 166.375Q242.779 160.639 244.213 156.403Q245.647 152.168 248.762 149.838Q251.877 147.507 256.807 147.507L256.807 147.507Q259.227 147.507 260.975 148L260.975 148L260.975 150.286Q259.227 149.658 256.852 149.658L256.852 149.658Q251.070 149.658 248.291 153.557Q245.513 157.457 245.289 164.627L245.289 164.627L245.468 164.627Q246.409 162.924 248.493 161.535Q250.577 160.146 253.938 160.146L253.938 160.146Q258.241 160.146 260.751 162.723Q263.261 165.300 263.261 169.782L263.261 169.782Q263.261 174.622 260.639 177.535Q258.017 180.448 253.401 180.448L253.401 180.448Q249.950 180.448 247.574 178.633Q245.199 176.818 243.989 173.658Q242.779 170.499 242.779 166.375ZM253.356 178.207L253.356 178.207Q256.807 178.207 258.756 176.056Q260.706 173.905 260.706 169.782L260.706 169.782Q260.706 166.286 258.913 164.269Q257.120 162.252 253.535 162.252L253.535 162.252Q251.070 162.252 249.255 163.261Q247.440 164.269 246.454 165.748Q245.468 167.227 245.468 168.661L245.468 168.661Q245.468 170.095 245.871 171.731Q246.275 173.367 247.193 174.846Q248.112 176.325 249.636 177.266Q251.160 178.207 253.356 178.207Z"/></svg>