<svg width="480px" height="360px" xmlns="http://www.w3.org/2000/svg"><rect x="216" y="124" width="80.5" height="80.5" fill-opacity="0"/><path fill="#F00" d="M260.347 190.577L260.347 180.179Q260.347 179.238 260.370 177.916Q260.392 176.594 260.482 175.653L260.482 175.653L260.303 175.653Q259.406 177.714 257.345 179.081Q255.283 180.448 252.146 180.448L252.146 180.448Q247.619 180.448 245.064 177.333Q242.510 174.218 242.510 168.123L242.510 168.123Q242.510 162.476 245.087 159.092Q247.664 155.709 252.594 155.709L252.594 155.709Q255.597 155.709 257.479 157.008Q259.361 158.308 260.303 160.101L260.303 160.101L260.437 160.101L260.840 156.157L262.902 156.157L262.902 190.577L260.347 190.577ZM252.549 178.252L252.549 178.252Q256.627 178.252 258.465 175.742Q260.303 173.232 260.347 168.482L260.347 168.482L260.347 167.854Q260.347 162.969 258.577 160.437Q256.807 157.905 252.863 157.905L252.863 157.905Q249.008 157.905 247.081 160.639Q245.154 163.373 245.154 168.168L245.154 168.168Q245.154 173.098 246.969 175.675Q248.784 178.252 252.549 178.252Z"/></svg>