<svg width="480px" height="360px" xmlns="http://www.w3.org/2000/svg"><rect x="216" y="124" width="80.5" height="80.5" fill-opacity="0"/><path fill="#F00" d="M268.863 155.709L268.863 155.709Q272.403 155.709 274.398 157.725Q276.392 159.742 276.392 164.090L276.392 164.090L276.392 180L273.882 180L273.882 164.179Q273.882 160.997 272.426 159.451Q270.969 157.905 268.504 157.905L268.504 157.905Q265.098 157.905 263.261 159.899Q261.423 161.894 261.423 166.062L261.423 166.062L261.423 180L258.913 180L258.913 164.179Q258.913 160.997 257.457 159.451Q256 157.905 253.535 157.905L253.535 157.905Q250.129 157.905 248.314 160.011Q246.499 162.118 246.499 166.465L246.499 166.465L246.499 180L243.944 180L243.944 156.157L246.006 156.157L246.364 159.922L246.543 159.922Q247.440 158.174 249.255 156.941Q251.070 155.709 253.894 155.709L253.894 155.709Q256.493 155.709 258.286 156.829Q260.078 157.950 260.840 160.146L260.840 160.146L260.975 160.146Q262.006 158.039 264.045 156.874Q266.084 155.709 268.863 155.709Z"/></svg>