<svg width="480px" height="360px" xmlns="http://www.w3.org/2000/svg"><rect x="216" y="124" width="80.5" height="80.5" fill-opacity="0"/><path fill="#F00" d="M268.190 148L268.190 168.706Q268.190 174.174 265.031 177.311Q261.871 180.448 256.090 180.448L256.090 180.448Q250.308 180.448 247.238 177.311Q244.168 174.174 244.168 168.616L244.168 168.616L244.168 148L246.768 148L246.768 168.616Q246.768 173.277 249.188 175.697Q251.608 178.118 256.224 178.118L256.224 178.118Q260.751 178.118 263.193 175.675Q265.636 173.232 265.636 168.885L265.636 168.885L265.636 148L268.190 148ZM254.969 137.557L257.479 137.557Q258.017 138.543 258.958 139.776Q259.899 141.008 260.930 142.218Q261.961 143.429 262.812 144.280L262.812 144.280L262.812 144.683L260.975 144.683Q259.765 143.697 258.510 142.398Q257.255 141.098 256.179 139.843L256.179 139.843Q255.104 141.098 253.871 142.398Q252.639 143.697 251.429 144.683L251.429 144.683L249.591 144.683L249.591 144.280Q250.443 143.384 251.473 142.196Q252.504 141.008 253.445 139.776Q254.387 138.543 254.969 137.557L254.969 137.557Z"/></svg>