<svg width="480px" height="360px" xmlns="http://www.w3.org/2000/svg"><rect x="216" y="124" width="80.5" height="80.5" fill-opacity="0"/><path fill="#F00" d="M243.361 162.297L243.361 162.297Q243.361 160.101 244.571 158.711Q245.782 157.322 247.529 156.605L247.529 156.605Q245.737 155.843 244.639 154.700Q243.541 153.557 243.541 151.541L243.541 151.541Q243.541 148.896 245.737 147.373Q247.933 145.849 251.877 145.849L251.877 145.849Q254.162 145.849 255.888 146.252Q257.613 146.655 259.182 147.238L259.182 147.238L258.331 149.300Q256.941 148.672 255.305 148.291Q253.669 147.910 251.742 147.910L251.742 147.910Q245.961 147.910 245.961 151.496L245.961 151.496Q245.961 153.289 247.552 154.140Q249.143 154.992 252.146 156.022L252.146 156.022Q254.252 156.739 255.955 157.569Q257.658 158.398 258.644 159.653Q259.630 160.908 259.630 162.880L259.630 162.880Q259.630 165.076 258.532 166.599Q257.434 168.123 255.910 168.930L255.910 168.930Q257.524 169.692 258.510 170.857Q259.496 172.022 259.496 173.860L259.496 173.860Q259.496 176.773 257.143 178.454Q254.790 180.134 250.353 180.134L250.353 180.134Q247.933 180.134 246.028 179.709Q244.123 179.283 242.779 178.655L242.779 178.655L242.779 176.325Q244.347 177.087 246.342 177.580Q248.336 178.073 250.443 178.073L250.443 178.073Q254.028 178.073 255.529 176.930Q257.031 175.787 257.031 174.039L257.031 174.039Q257.031 172.246 255.485 171.283Q253.938 170.319 250.667 169.199L250.667 169.199Q248.515 168.437 246.857 167.630Q245.199 166.824 244.280 165.569Q243.361 164.314 243.361 162.297ZM245.602 162.073L245.602 162.073Q245.602 164.224 247.261 165.277Q248.919 166.331 252.011 167.406L252.011 167.406L253.849 168.034Q255.328 167.361 256.336 166.129Q257.345 164.896 257.345 163.148L257.345 163.148Q257.345 161.087 255.574 159.877Q253.804 158.667 249.860 157.546L249.860 157.546Q248.112 157.994 246.857 159.115Q245.602 160.235 245.602 162.073Z"/></svg>