<svg width="480px" height="360px" xmlns="http://www.w3.org/2000/svg"><rect x="216" y="124" width="80.5" height="80.5" fill-opacity="0"/><path fill="#F00" d="M267.249 180L264.515 180L260.258 168.975L246.992 168.975L242.689 180L240 180L252.594 147.866L254.969 147.866L267.249 180ZM259.451 166.599L255.193 155.081Q254.924 154.454 254.476 153.109Q254.028 151.765 253.714 150.734L253.714 150.734Q253.356 151.944 252.952 153.109Q252.549 154.275 252.280 155.126L252.280 155.126L247.843 166.599L259.451 166.599ZM247.574 144.415L245.871 144.415Q246.095 141.994 247.261 140.672Q248.426 139.350 250.353 139.350L250.353 139.350Q251.384 139.350 252.258 139.798Q253.132 140.246 253.916 140.829Q254.700 141.412 255.462 141.860Q256.224 142.308 257.031 142.308L257.031 142.308Q258.017 142.308 258.734 141.658Q259.451 141.008 259.720 139.305L259.720 139.305L261.378 139.305Q261.154 141.725 259.966 143.070Q258.779 144.415 256.896 144.415L256.896 144.415Q255.866 144.415 254.992 143.966Q254.118 143.518 253.356 142.936Q252.594 142.353 251.832 141.905Q251.070 141.457 250.218 141.457L250.218 141.457Q249.188 141.457 248.515 142.106Q247.843 142.756 247.574 144.415L247.574 144.415Z"/></svg>