<svg width="480px" height="360px" xmlns="http://www.w3.org/2000/svg"><rect x="216" y="124" width="80.5" height="80.5" fill-opacity="0"/><path fill="#F00" d="M252.728 180.448L252.728 180.448Q249.546 180.448 247.171 179.148Q244.796 177.849 243.451 175.496Q242.106 173.143 242.106 170.006L242.106 170.006Q242.106 165.838 244.303 163.059Q246.499 160.280 251.115 158.711L251.115 158.711Q249.591 157.815 248.426 156.919Q247.261 156.022 246.611 154.880Q245.961 153.737 245.961 152.034L245.961 152.034Q245.961 149.434 247.978 147.574Q249.994 145.714 254.028 145.714L254.028 145.714Q256.717 145.714 258.779 146.521Q260.840 147.328 261.961 148.269L261.961 148.269L260.840 150.331Q259.451 149.300 257.770 148.583Q256.090 147.866 254.028 147.866L254.028 147.866Q251.070 147.866 249.770 149.053Q248.471 150.241 248.471 151.944L248.471 151.944Q248.471 153.109 249.008 153.983Q249.546 154.857 250.801 155.754Q252.056 156.650 254.207 157.815L254.207 157.815Q258.958 160.415 261.064 163.171Q263.171 165.927 263.171 169.782L263.171 169.782Q263.171 173.098 261.826 175.496Q260.482 177.894 258.129 179.171Q255.776 180.448 252.728 180.448ZM252.773 178.252L252.773 178.252Q256.538 178.252 258.599 175.877Q260.661 173.501 260.661 169.826L260.661 169.826Q260.661 166.196 258.644 163.843Q256.627 161.490 253.356 159.787L253.356 159.787Q249.277 161.087 247.014 163.417Q244.751 165.748 244.751 169.826L244.751 169.826Q244.751 173.636 246.924 175.944Q249.098 178.252 252.773 178.252Z"/></svg>