<svg width="480px" height="360px" xmlns="http://www.w3.org/2000/svg"><rect x="216" y="124" width="80.5" height="80.5" fill-opacity="0"/><path fill="#F00" d="M262.678 177.625L262.678 180L242.420 180L242.420 177.849L251.608 168.303Q253.894 165.927 255.462 164.045Q257.031 162.162 257.838 160.280Q258.644 158.398 258.644 156.067L258.644 156.067Q258.644 153.064 256.896 151.429Q255.148 149.793 252.190 149.793L252.190 149.793Q250.039 149.793 248.157 150.555Q246.275 151.317 244.437 152.751L244.437 152.751L243.048 150.958Q245.020 149.345 247.350 148.448Q249.681 147.552 252.190 147.552L252.190 147.552Q256.314 147.552 258.801 149.838Q261.289 152.123 261.289 155.933L261.289 155.933Q261.289 158.532 260.347 160.683Q259.406 162.835 257.703 164.896Q256 166.958 253.714 169.289L253.714 169.289L245.692 177.535L245.692 177.625L262.678 177.625Z"/></svg>