<svg width="480px" height="360px" xmlns="http://www.w3.org/2000/svg"><rect x="216" y="124" width="80.5" height="80.5" fill-opacity="0"/><path fill="#F00" d="M256.583 185.513L256.583 185.513Q256.583 187.888 258.868 187.888L258.868 187.888Q259.541 187.888 260.101 187.798Q260.661 187.709 261.020 187.619L261.020 187.619L261.020 189.412Q260.527 189.546 259.922 189.658Q259.317 189.770 258.510 189.770L258.510 189.770Q256.538 189.770 255.462 188.762Q254.387 187.754 254.387 185.826L254.387 185.826Q254.387 184.347 255.261 182.891Q256.134 181.434 257.569 180.090L257.569 180.090Q255.821 180.448 253.669 180.448L253.669 180.448Q248.291 180.448 245.423 177.176Q242.555 173.905 242.555 168.258L242.555 168.258Q242.555 164.627 243.787 161.804Q245.020 158.980 247.350 157.345Q249.681 155.709 252.997 155.709L252.997 155.709Q256.045 155.709 258.084 157.120Q260.123 158.532 261.176 160.997Q262.230 163.462 262.230 166.644L262.230 166.644L262.230 168.392L245.199 168.392Q245.199 173.143 247.417 175.675Q249.636 178.207 253.759 178.207L253.759 178.207Q255.955 178.207 257.613 177.826Q259.272 177.445 261.244 176.594L261.244 176.594L261.244 178.924Q261.064 179.014 260.930 179.059L260.930 179.059Q258.644 180.986 257.613 182.487Q256.583 183.989 256.583 185.513ZM252.952 157.860L252.952 157.860Q249.681 157.860 247.641 160.056Q245.602 162.252 245.289 166.286L245.289 166.286L259.585 166.286Q259.585 162.521 257.950 160.190Q256.314 157.860 252.952 157.860Z"/></svg>