<svg width="480px" height="360px" xmlns="http://www.w3.org/2000/svg"><rect x="216" y="124" width="80.5" height="80.5" fill-opacity="0"/><path fill="#F00" d="M252.325 160.639L252.325 160.639Q257.165 160.639 260.011 163.081Q262.857 165.524 262.857 170.006L262.857 170.006Q262.857 174.891 259.720 177.669Q256.583 180.448 251.249 180.448L251.249 180.448Q248.695 180.448 246.611 179.955Q244.527 179.462 243.092 178.611L243.092 178.611L243.092 176.101Q244.616 177.042 246.790 177.625Q248.964 178.207 251.249 178.207L251.249 178.207Q255.283 178.207 257.770 176.168Q260.258 174.129 260.258 170.230L260.258 170.230Q260.258 166.734 258.129 164.784Q256 162.835 251.653 162.835L251.653 162.835Q249.994 162.835 248.359 163.104Q246.723 163.373 245.423 163.686L245.423 163.686L243.989 162.745L245.289 148L260.796 148L260.796 150.331L247.485 150.331L246.543 161.311Q247.485 161.132 248.919 160.885Q250.353 160.639 252.325 160.639Z"/></svg>