<svg width="480px" height="360px" xmlns="http://www.w3.org/2000/svg"><rect x="216" y="124" width="80.5" height="80.5" fill-opacity="0"/><path fill="#F00" d="M249.367 179.910L240.045 156.157L242.734 156.157L248.426 170.947Q249.143 172.964 249.681 174.510Q250.218 176.056 250.532 177.266L250.532 177.266L250.667 177.266Q251.339 175.025 252.773 171.036L252.773 171.036L258.331 156.157L261.064 156.157L250.308 184.213Q249.098 187.395 247.440 189.098Q245.782 190.801 242.958 190.801L242.958 190.801Q242.106 190.801 241.412 190.711Q240.717 190.622 240.134 190.398L240.134 190.398L240.134 188.246Q240.672 188.426 241.300 188.538Q241.927 188.650 242.644 188.650L242.644 188.650Q244.527 188.650 245.714 187.485Q246.902 186.319 247.843 183.899L247.843 183.899L249.367 179.910ZM256.627 145.669L256.627 146.028Q255.955 146.969 254.857 148.224Q253.759 149.479 252.504 150.711Q251.249 151.944 250.129 152.840L250.129 152.840L248.336 152.840L248.336 152.437Q249.188 151.585 250.174 150.375Q251.160 149.165 252.078 147.910Q252.997 146.655 253.580 145.669L253.580 145.669L256.627 145.669Z"/></svg>