<svg width="480px" height="360px" xmlns="http://www.w3.org/2000/svg"><rect x="216" y="124" width="80.5" height="80.5" fill-opacity="0"/><path fill="#F00" d="M271.597 163.955L271.597 163.955Q271.597 168.840 269.983 172.560Q268.370 176.280 265.165 178.364Q261.961 180.448 257.210 180.448L257.210 180.448Q251.832 180.448 248.471 177.759L248.471 177.759L245.916 181.255L244.078 180.045L246.768 176.325Q244.796 174.129 243.787 170.969Q242.779 167.810 242.779 163.910L242.779 163.910Q242.779 159.025 244.415 155.350Q246.050 151.675 249.300 149.591Q252.549 147.507 257.345 147.507L257.345 147.507Q259.854 147.507 261.961 148.157Q264.067 148.807 265.770 149.972L265.770 149.972L268.146 146.700L269.938 147.955L267.429 151.406Q269.445 153.557 270.521 156.739Q271.597 159.922 271.597 163.955ZM245.513 163.910L245.513 163.910Q245.513 167.092 246.207 169.669Q246.902 172.246 248.336 174.129L248.336 174.129L264.336 151.989Q261.557 149.838 257.345 149.838L257.345 149.838Q253.356 149.838 250.711 151.608Q248.067 153.378 246.790 156.538Q245.513 159.697 245.513 163.910ZM268.863 163.955L268.863 163.955Q268.863 157.188 265.905 153.557L265.905 153.557L249.860 175.742Q251.204 176.863 253.064 177.490Q254.924 178.118 257.210 178.118L257.210 178.118Q261.244 178.118 263.821 176.370Q266.398 174.622 267.630 171.417Q268.863 168.213 268.863 163.955Z"/></svg>