<svg width="480px" height="360px" xmlns="http://www.w3.org/2000/svg"><rect x="216" y="124" width="80.5" height="80.5" fill-opacity="0"/><path fill="#F00" d="M256.314 155.709L256.314 155.709Q260.392 155.709 262.543 157.815Q264.695 159.922 264.695 164.403L264.695 164.403L264.695 180L262.185 180L262.185 164.583Q262.185 161.176 260.616 159.541Q259.048 157.905 256.045 157.905L256.045 157.905Q248.202 157.905 248.202 167.003L248.202 167.003L248.202 180L245.647 180L245.647 156.157L247.709 156.157L248.067 160.280L248.246 160.280Q249.188 158.308 251.249 157.008Q253.311 155.709 256.314 155.709ZM245.154 148L245.423 148.448Q244.930 151.003 243.944 153.804Q242.958 156.605 241.882 158.980L241.882 158.980L240.045 158.980Q240.627 157.367 241.120 155.417Q241.613 153.468 241.994 151.518Q242.375 149.569 242.599 148L242.599 148L245.154 148Z"/></svg>