<svg width="480px" height="360px" xmlns="http://www.w3.org/2000/svg"><rect x="216" y="124" width="80.5" height="80.5" fill-opacity="0"/><path fill="#F00" d="M271.597 163.955L271.597 163.955Q271.597 168.840 269.983 172.560Q268.370 176.280 265.165 178.364Q261.961 180.448 257.210 180.448L257.210 180.448Q252.370 180.448 249.165 178.364Q245.961 176.280 244.370 172.538Q242.779 168.796 242.779 163.910L242.779 163.910Q242.779 159.025 244.415 155.350Q246.050 151.675 249.300 149.591Q252.549 147.507 257.345 147.507L257.345 147.507Q261.961 147.507 265.143 149.501Q268.325 151.496 269.961 155.171Q271.597 158.846 271.597 163.955ZM245.513 163.910L245.513 163.910Q245.513 168.168 246.768 171.373Q248.022 174.577 250.622 176.347Q253.221 178.118 257.210 178.118L257.210 178.118Q261.244 178.118 263.821 176.370Q266.398 174.622 267.630 171.417Q268.863 168.213 268.863 163.955L268.863 163.955Q268.863 157.277 265.972 153.557Q263.081 149.838 257.345 149.838L257.345 149.838Q253.356 149.838 250.711 151.608Q248.067 153.378 246.790 156.538Q245.513 159.697 245.513 163.910ZM261.647 139.171L263.440 139.171Q263.171 141.725 261.580 143.204Q259.989 144.683 257.165 144.683L257.165 144.683Q254.252 144.683 252.706 143.227Q251.160 141.770 250.980 139.171L250.980 139.171L252.773 139.171Q252.952 140.964 254.050 141.748Q255.148 142.532 257.210 142.532L257.210 142.532Q259.137 142.532 260.280 141.725Q261.423 140.919 261.647 139.171L261.647 139.171Z"/></svg>