<svg width="480px" height="360px" xmlns="http://www.w3.org/2000/svg"><rect x="216" y="124" width="80.5" height="80.5" fill-opacity="0"/><path fill="#F00" d="M253.938 180L244.482 180L244.482 148L247.081 148L247.081 161.938L253.445 161.938Q259.182 161.938 261.961 164.179Q264.739 166.420 264.739 170.768L264.739 170.768Q264.739 175.160 262.006 177.580Q259.272 180 253.938 180L253.938 180ZM247.081 177.714L253.580 177.714Q257.838 177.714 259.944 176.034Q262.050 174.353 262.050 170.768L262.050 170.768Q262.050 167.003 259.697 165.636Q257.345 164.269 253.087 164.269L253.087 164.269L247.081 164.269L247.081 177.714Z"/></svg>