<svg width="480px" height="360px" xmlns="http://www.w3.org/2000/svg"><rect x="216" y="124" width="80.5" height="80.5" fill-opacity="0"/><path fill="#F00" d="M277.378 164.134L277.378 164.134Q277.378 167.048 276.549 169.557Q275.720 172.067 274.106 173.613Q272.493 175.160 269.983 175.160L269.983 175.160Q267.966 175.160 266.711 173.972Q265.457 172.784 265.322 170.857L265.322 170.857L265.188 170.857Q264.246 172.919 262.543 174.039Q260.840 175.160 258.555 175.160L258.555 175.160Q255.193 175.160 253.378 173.008Q251.563 170.857 251.563 167.003L251.563 167.003Q251.563 164.134 252.751 161.871Q253.938 159.608 256.067 158.308Q258.196 157.008 261.064 157.008L261.064 157.008Q262.857 157.008 264.515 157.300Q266.174 157.591 267.384 157.994L267.384 157.994L266.980 165.793Q266.936 166.599 266.913 167.339Q266.891 168.078 266.891 168.706L266.891 168.706Q266.891 171.126 267.720 172.157Q268.549 173.188 270.118 173.188L270.118 173.188Q271.821 173.188 272.941 172Q274.062 170.812 274.622 168.751Q275.182 166.689 275.182 164.090L275.182 164.090Q275.182 159.832 273.479 156.717Q271.776 153.602 268.661 151.899Q265.546 150.196 261.289 150.196L261.289 150.196Q256.179 150.196 252.459 152.303Q248.739 154.409 246.723 158.241Q244.706 162.073 244.706 167.272L244.706 167.272Q244.706 174.353 248.426 178.275Q252.146 182.196 259.003 182.196L259.003 182.196Q261.468 182.196 263.888 181.658Q266.308 181.120 268.325 180.314L268.325 180.314L268.325 182.465Q266.398 183.272 264.045 183.742Q261.692 184.213 259.003 184.213L259.003 184.213Q253.849 184.213 250.129 182.196Q246.409 180.179 244.437 176.392Q242.465 172.605 242.465 167.361L242.465 167.361Q242.465 161.535 244.796 157.210Q247.126 152.885 251.339 150.532Q255.552 148.179 261.289 148.179L261.289 148.179Q266.084 148.179 269.714 150.129Q273.345 152.078 275.361 155.641Q277.378 159.204 277.378 164.134ZM253.938 167.048L253.938 167.048Q253.938 173.188 258.868 173.188L258.868 173.188Q261.647 173.188 263.081 171.261Q264.515 169.333 264.739 165.703L264.739 165.703L265.053 159.518Q264.246 159.294 263.238 159.137Q262.230 158.980 261.109 158.980L261.109 158.980Q258.779 158.980 257.165 160.056Q255.552 161.132 254.745 162.969Q253.938 164.807 253.938 167.048Z"/></svg>