<svg version="1.1" xmlns="http://www.w3.org/2000/svg" xmlns:xlink="http://www.w3.org/1999/xlink" width="305" height="305" viewBox="0,0,305,305"><g transform="translate(-87.5,-27.5)"><g data-paper-data="{&quot;isPaintingLayer&quot;:true}" fill="none" fill-rule="nonzero" stroke="#ff0000" stroke-width="5" stroke-linecap="round" stroke-linejoin="miter" stroke-miterlimit="10" stroke-dasharray="" stroke-dashoffset="0" style="mix-blend-mode: normal"><path d="M230,30h20"/><path d="M230,330h20"/><path d="M90,190v-20"/><path d="M390,190v-20"/><path d="M126.86292,81.00505l14.14214,-14.14213"/><path d="M338.99495,293.13709l14.14213,-14.14213"/><path d="M141.00505,293.13709l-14.14214,-14.14213"/><path d="M353.13709,81.00505l-14.14213,-14.14213"/><path d="M192.13451,37.49072l19.34075,-5.09268"/><path d="M268.52474,327.60196l19.34075,-5.09268"/><path d="M97.49072,227.86549l-5.09268,-19.34075"/><path d="M387.60196,151.47526l-5.09268,-19.34075"/><path d="M105.38471,113.07674l10.0749,-17.27704"/><path d="M364.54039,264.20031l10.0749,-17.27704"/><path d="M173.07674,314.61529l-17.27704,-10.0749"/><path d="M324.20031,55.45961l-17.27704,-10.0749"/><path d="M156.29202,55.12817l17.31669,-10.00662"/><path d="M306.3913,314.87845l17.31669,-10.00662"/><path d="M115.12817,263.70798l-10.00662,-17.31669"/><path d="M374.87845,113.6087l-10.00662,-17.31669"/><path d="M92.5118,150.89276l5.169,-19.32049"/><path d="M382.3192,228.42773l5.169,-19.32049"/><path d="M210.89276,327.4882l-19.32049,-5.169"/><path d="M288.42773,37.6808l-19.32049,-5.169"/></g></g></svg>