<svg width="480px" height="360px" xmlns="http://www.w3.org/2000/svg"><rect x="216" y="124" width="80.5" height="80.5" fill-opacity="0"/><path fill="#F00" d="M257.165 147.686L257.165 147.686Q258.286 147.686 259.227 147.776Q260.168 147.866 261.244 148L261.244 148L278.230 148L278.230 150.331L263.754 150.331L263.754 162.028L277.333 162.028L277.333 164.359L263.754 164.359L263.754 177.669L278.230 177.669L278.230 180L261.154 180Q260.303 180.134 259.317 180.202Q258.331 180.269 257.210 180.269L257.210 180.269Q252.370 180.269 249.165 178.230Q245.961 176.190 244.370 172.493Q242.779 168.796 242.779 163.910L242.779 163.910Q242.779 159.025 244.415 155.373Q246.050 151.720 249.255 149.703Q252.459 147.686 257.165 147.686ZM257.345 150.017L257.345 150.017Q253.311 150.017 250.689 151.742Q248.067 153.468 246.790 156.583Q245.513 159.697 245.513 163.910L245.513 163.910Q245.513 168.213 246.768 171.373Q248.022 174.532 250.622 176.258Q253.221 177.983 257.255 177.983L257.255 177.983Q259.630 177.983 261.154 177.490L261.154 177.490L261.154 150.465Q260.437 150.241 259.473 150.129Q258.510 150.017 257.345 150.017Z"/></svg>