<svg width="480px" height="360px" xmlns="http://www.w3.org/2000/svg"><rect x="216" y="124" width="80.5" height="80.5" fill-opacity="0"/><path fill="#F00" d="M267.249 180L264.515 180L260.258 168.975L246.992 168.975L242.689 180L240 180L252.594 147.866L254.969 147.866L267.249 180ZM259.451 166.599L255.193 155.081Q254.924 154.454 254.476 153.109Q254.028 151.765 253.714 150.734L253.714 150.734Q253.356 151.944 252.952 153.109Q252.549 154.275 252.280 155.126L252.280 155.126L247.843 166.599L259.451 166.599ZM252.370 137.557L254.880 137.557Q255.417 138.543 256.359 139.776Q257.300 141.008 258.331 142.218Q259.361 143.429 260.213 144.280L260.213 144.280L260.213 144.683L258.375 144.683Q257.165 143.697 255.910 142.398Q254.655 141.098 253.580 139.843L253.580 139.843Q252.504 141.098 251.272 142.398Q250.039 143.697 248.829 144.683L248.829 144.683L246.992 144.683L246.992 144.280Q247.843 143.384 248.874 142.196Q249.905 141.008 250.846 139.776Q251.787 138.543 252.370 137.557L252.370 137.557Z"/></svg>