<svg width="480px" height="360px" xmlns="http://www.w3.org/2000/svg"><rect x="216" y="124" width="80.5" height="80.5" fill-opacity="0"/><path fill="#F00" d="M254.521 184.885L254.521 187.081Q250.622 187.081 248.515 185.423Q246.409 183.765 246.409 180.493L246.409 180.493L246.409 173.367Q246.409 170.812 245.154 169.714Q243.899 168.616 241.210 168.616L241.210 168.616L241.210 166.420Q243.899 166.420 245.154 165.345Q246.409 164.269 246.409 161.714L246.409 161.714L246.409 154.543Q246.409 151.317 248.560 149.658Q250.711 148 254.521 148L254.521 148L254.521 150.151Q251.787 150.196 250.375 151.317Q248.964 152.437 248.964 154.857L248.964 154.857L248.964 161.894Q248.964 164.179 247.978 165.591Q246.992 167.003 244.751 167.406L244.751 167.406L244.751 167.585Q246.992 167.989 247.978 169.423Q248.964 170.857 248.964 173.143L248.964 173.143L248.964 180.269Q248.964 182.689 250.353 183.787Q251.742 184.885 254.521 184.885L254.521 184.885Z"/></svg>