<svg width="480px" height="360px" xmlns="http://www.w3.org/2000/svg"><rect x="216" y="124" width="80.5" height="80.5" fill-opacity="0"/><path fill="#F00" d="M249.591 160.773L249.591 160.773Q246.633 160.773 244.728 158.958Q242.824 157.143 242.824 154.140L242.824 154.140Q242.824 151.182 244.706 149.367Q246.588 147.552 249.591 147.552L249.591 147.552Q252.549 147.552 254.454 149.389Q256.359 151.227 256.359 154.140L256.359 154.140Q256.359 157.143 254.454 158.958Q252.549 160.773 249.591 160.773ZM249.591 158.891L249.591 158.891Q251.832 158.891 253.064 157.569Q254.297 156.246 254.297 154.140L254.297 154.140Q254.297 151.989 253.020 150.689Q251.742 149.389 249.591 149.389L249.591 149.389Q247.305 149.389 246.095 150.689Q244.885 151.989 244.885 154.140L244.885 154.140Q244.885 156.246 246.095 157.569Q247.305 158.891 249.591 158.891Z"/></svg>