<svg width="480px" height="360px" xmlns="http://www.w3.org/2000/svg"><rect x="216" y="124" width="80.5" height="80.5" fill-opacity="0"/><path fill="#F00" d="M252.415 180L241.031 180L241.031 177.669L248.964 177.669Q246.857 176.235 245.087 174.196Q243.317 172.157 242.286 169.333Q241.255 166.510 241.255 162.745L241.255 162.745Q241.255 158.308 242.980 154.880Q244.706 151.451 247.933 149.479Q251.160 147.507 255.597 147.507L255.597 147.507Q260.078 147.507 263.283 149.389Q266.487 151.272 268.190 154.700Q269.894 158.129 269.894 162.745L269.894 162.745Q269.894 166.510 268.863 169.333Q267.832 172.157 266.106 174.218Q264.381 176.280 262.230 177.669L262.230 177.669L270.118 177.669L270.118 180L258.734 180L258.734 177.849Q263.171 175.070 265.165 171.597Q267.160 168.123 267.160 162.835L267.160 162.835Q267.160 158.891 265.815 155.978Q264.471 153.064 261.894 151.451Q259.317 149.838 255.597 149.838L255.597 149.838Q251.877 149.838 249.300 151.473Q246.723 153.109 245.356 156.045Q243.989 158.980 243.989 162.835L243.989 162.835Q243.989 166.420 244.908 169.087Q245.826 171.754 247.709 173.860Q249.591 175.966 252.415 177.849L252.415 177.849L252.415 180Z"/></svg>