<svg width="480px" height="360px" xmlns="http://www.w3.org/2000/svg"><rect x="216" y="124" width="80.5" height="80.5" fill-opacity="0"/><path fill="#F00" d="M268.190 148L268.190 168.706Q268.190 174.174 265.031 177.311Q261.871 180.448 256.090 180.448L256.090 180.448Q250.308 180.448 247.238 177.311Q244.168 174.174 244.168 168.616L244.168 168.616L244.168 148L246.768 148L246.768 168.616Q246.768 173.277 249.188 175.697Q251.608 178.118 256.224 178.118L256.224 178.118Q260.751 178.118 263.193 175.675Q265.636 173.232 265.636 168.885L265.636 168.885L265.636 148L268.190 148ZM256.179 144.549L256.179 144.549Q254.162 144.549 252.818 143.317Q251.473 142.084 251.473 139.933L251.473 139.933Q251.473 137.871 252.818 136.616Q254.162 135.361 256.179 135.361L256.179 135.361Q258.151 135.361 259.541 136.639Q260.930 137.916 260.930 139.933L260.930 139.933Q260.930 142.084 259.563 143.317Q258.196 144.549 256.179 144.549ZM256.179 142.891L256.179 142.891Q257.479 142.891 258.308 142.062Q259.137 141.232 259.137 139.933L259.137 139.933Q259.137 138.678 258.263 137.826Q257.389 136.975 256.179 136.975L256.179 136.975Q254.924 136.975 254.073 137.826Q253.221 138.678 253.221 139.933L253.221 139.933Q253.221 141.232 254.028 142.062Q254.835 142.891 256.179 142.891Z"/></svg>