<svg width="480px" height="360px" xmlns="http://www.w3.org/2000/svg"><rect x="216" y="124" width="80.5" height="80.5" fill-opacity="0"/><path fill="#F00" d="M248.022 180.448L248.022 180.448Q246.095 180.448 244.616 180.112Q243.137 179.776 241.927 179.238L241.927 179.238L241.927 176.908Q243.272 177.445 244.773 177.826Q246.275 178.207 248.067 178.207L248.067 178.207Q252.370 178.207 254.611 175.675Q256.852 173.143 257.120 168.796L257.120 168.796L243.765 168.796L243.765 166.644L257.076 166.644Q256.896 162.431 254.790 160.190Q252.683 157.950 248.515 157.950L248.515 157.950Q247.216 157.950 245.692 158.263Q244.168 158.577 242.913 159.070L242.913 159.070L242.241 156.919Q243.496 156.381 245.176 156.045Q246.857 155.709 248.560 155.709L248.560 155.709Q253.804 155.709 256.784 158.689Q259.765 161.669 259.765 167.854L259.765 167.854Q259.765 173.681 256.717 177.064Q253.669 180.448 248.022 180.448Z"/></svg>