<svg width="480px" height="360px" xmlns="http://www.w3.org/2000/svg"><rect x="216" y="124" width="80.5" height="80.5" fill-opacity="0"/><path fill="#F00" d="M252.997 161.625L266.398 180L263.261 180L251.070 163.417L247.081 167.227L247.081 180L244.482 180L244.482 148L247.081 148L247.081 164.627Q248.022 163.597 248.986 162.543Q249.950 161.490 250.980 160.415L250.980 160.415L262.812 148L265.994 148L252.997 161.625ZM255.955 182.734L255.955 183.048Q255.597 184.527 254.768 186.454Q253.938 188.381 252.863 189.905L252.863 189.905L251.384 189.905L251.384 189.501Q251.742 188.784 252.146 187.552Q252.549 186.319 252.885 184.997Q253.221 183.675 253.356 182.734L253.356 182.734L255.955 182.734Z"/></svg>