<svg width="480px" height="360px" xmlns="http://www.w3.org/2000/svg"><rect x="216" y="124" width="80.5" height="80.5" fill-opacity="0"/><path fill="#F00" d="M251.697 178.387L251.697 180L242.286 180L242.286 178.387L245.692 177.894L245.692 150.151L242.286 149.613L242.286 148L251.697 148L251.697 149.613L248.291 150.151L248.291 177.894L251.697 178.387ZM253.132 137.513L253.132 137.871Q252.459 138.812 251.361 140.067Q250.263 141.322 249.008 142.555Q247.754 143.787 246.633 144.683L246.633 144.683L244.840 144.683L244.840 144.280Q245.692 143.429 246.678 142.218Q247.664 141.008 248.583 139.754Q249.501 138.499 250.084 137.513L250.084 137.513L253.132 137.513Z"/></svg>