<svg width="480px" height="360px" xmlns="http://www.w3.org/2000/svg"><rect x="216" y="124" width="80.5" height="80.5" fill-opacity="0"/><path fill="#F00" d="M251.697 178.387L251.697 180L242.286 180L242.286 178.387L245.692 177.894L245.692 150.151L242.286 149.613L242.286 148L251.697 148L251.697 149.613L248.291 150.151L248.291 177.894L251.697 178.387ZM246.947 185.513L246.947 185.513Q246.947 187.888 249.277 187.888L249.277 187.888Q249.950 187.888 250.487 187.798Q251.025 187.709 251.429 187.619L251.429 187.619L251.429 189.412Q250.891 189.546 250.286 189.658Q249.681 189.770 248.919 189.770L248.919 189.770Q246.947 189.770 245.849 188.762Q244.751 187.754 244.751 185.826L244.751 185.826Q244.751 184.078 245.983 182.420Q247.216 180.762 249.053 179.417L249.053 179.417L250.532 180Q249.008 181.345 247.978 182.667Q246.947 183.989 246.947 185.513Z"/></svg>