<svg width="480px" height="360px" xmlns="http://www.w3.org/2000/svg"><rect x="216" y="124" width="80.5" height="80.5" fill-opacity="0"/><path fill="#F00" d="M263.081 180L258.196 164.493Q257.703 163.014 257.345 161.669Q256.986 160.325 256.717 159.204L256.717 159.204L256.583 159.204Q256.314 160.325 255.955 161.692Q255.597 163.059 255.104 164.538L255.104 164.538L250.084 180L247.350 180L240.627 156.157L243.317 156.157L247.305 170.857Q247.843 172.874 248.202 174.375Q248.560 175.877 248.784 177.042L248.784 177.042L248.919 177.042Q249.143 175.966 249.524 174.487Q249.905 173.008 250.487 171.216L250.487 171.216L255.417 156.157L258.017 156.157L262.768 171.216Q263.261 172.829 263.686 174.353Q264.112 175.877 264.336 176.997L264.336 176.997L264.471 176.997Q264.605 175.922 264.964 174.398Q265.322 172.874 265.860 170.857L265.860 170.857L269.759 156.157L272.359 156.157L265.860 180L263.081 180Z"/></svg>