<svg width="480px" height="360px" xmlns="http://www.w3.org/2000/svg"><rect x="216" y="124" width="80.5" height="80.5" fill-opacity="0"/><path fill="#F00" d="M263.888 168.034L263.888 168.034Q263.888 171.798 262.655 174.577Q261.423 177.356 259.025 178.902Q256.627 180.448 253.176 180.448L253.176 180.448Q249.860 180.448 247.485 178.924Q245.109 177.401 243.832 174.599Q242.555 171.798 242.555 168.034L242.555 168.034Q242.555 162.252 245.423 158.980Q248.291 155.709 253.356 155.709L253.356 155.709Q256.762 155.709 259.115 157.255Q261.468 158.801 262.678 161.580Q263.888 164.359 263.888 168.034ZM245.199 168.034L245.199 168.034Q245.199 172.650 247.148 175.451Q249.098 178.252 253.221 178.252L253.221 178.252Q257.389 178.252 259.317 175.429Q261.244 172.605 261.244 168.034L261.244 168.034Q261.244 165.076 260.437 162.790Q259.630 160.504 257.882 159.204Q256.134 157.905 253.311 157.905L253.311 157.905Q249.277 157.905 247.238 160.594Q245.199 163.283 245.199 168.034ZM247.529 149.524L247.529 149.524Q247.529 147.731 249.098 147.731L249.098 147.731Q250.711 147.731 250.711 149.524L250.711 149.524Q250.711 151.361 249.098 151.361L249.098 151.361Q247.529 151.361 247.529 149.524ZM255.866 149.524L255.866 149.524Q255.866 147.731 257.434 147.731L257.434 147.731Q259.048 147.731 259.048 149.524L259.048 149.524Q259.048 151.361 257.434 151.361L257.434 151.361Q255.866 151.361 255.866 149.524Z"/></svg>