<svg width="480px" height="360px" xmlns="http://www.w3.org/2000/svg"><rect x="216" y="124" width="80.5" height="80.5" fill-opacity="0"/><path fill="#F00" d="M246.499 156.157L246.499 180L243.944 180L243.944 156.157L246.499 156.157ZM249.681 147.328L251.473 147.328Q251.204 149.882 249.613 151.361Q248.022 152.840 245.199 152.840L245.199 152.840Q242.286 152.840 240.739 151.384Q239.193 149.927 239.014 147.328L239.014 147.328L240.807 147.328Q240.986 149.120 242.084 149.905Q243.182 150.689 245.244 150.689L245.244 150.689Q247.171 150.689 248.314 149.882Q249.457 149.076 249.681 147.328L249.681 147.328Z"/></svg>