<svg width="480px" height="360px" xmlns="http://www.w3.org/2000/svg"><rect x="216" y="124" width="80.5" height="80.5" fill-opacity="0"/><path fill="#F00" d="M249.367 179.910L240.045 156.157L242.734 156.157L248.426 170.947Q249.143 172.964 249.681 174.510Q250.218 176.056 250.532 177.266L250.532 177.266L250.667 177.266Q251.339 175.025 252.773 171.036L252.773 171.036L258.331 156.157L261.064 156.157L250.308 184.213Q249.098 187.395 247.440 189.098Q245.782 190.801 242.958 190.801L242.958 190.801Q242.106 190.801 241.412 190.711Q240.717 190.622 240.134 190.398L240.134 190.398L240.134 188.246Q240.672 188.426 241.300 188.538Q241.927 188.650 242.644 188.650L242.644 188.650Q244.527 188.650 245.714 187.485Q246.902 186.319 247.843 183.899L247.843 183.899L249.367 179.910ZM249.277 145.714L251.787 145.714Q252.325 146.700 253.266 147.933Q254.207 149.165 255.238 150.375Q256.269 151.585 257.120 152.437L257.120 152.437L257.120 152.840L255.283 152.840Q254.073 151.854 252.818 150.555Q251.563 149.255 250.487 148L250.487 148Q249.412 149.255 248.179 150.555Q246.947 151.854 245.737 152.840L245.737 152.840L243.899 152.840L243.899 152.437Q244.751 151.541 245.782 150.353Q246.812 149.165 247.754 147.933Q248.695 146.700 249.277 145.714L249.277 145.714Z"/></svg>