<svg width="480px" height="360px" xmlns="http://www.w3.org/2000/svg"><rect x="216" y="124" width="80.5" height="80.5" fill-opacity="0"/><path fill="#F00" d="M257.479 147.507L257.479 147.507Q259.630 147.507 261.333 147.933Q263.036 148.359 264.650 149.210L264.650 149.210L263.619 151.406Q262.319 150.734 260.773 150.263Q259.227 149.793 257.479 149.793L257.479 149.793Q253.759 149.793 251.249 152.392Q248.739 154.992 247.978 160.011L247.978 160.011L259.361 160.011L259.361 162.028L247.754 162.028Q247.709 162.924 247.709 164.269L247.709 164.269Q247.709 165.569 247.754 166.510L247.754 166.510L258.689 166.510L258.689 168.527L247.978 168.527Q248.650 173.098 251.070 175.608Q253.490 178.118 257.658 178.118L257.658 178.118Q259.361 178.118 260.975 177.737Q262.588 177.356 263.978 176.728L263.978 176.728L263.978 179.104Q262.678 179.686 261.087 180.067Q259.496 180.448 257.524 180.448L257.524 180.448Q252.415 180.448 249.345 177.468Q246.275 174.487 245.378 168.527L245.378 168.527L241.524 168.527L241.524 166.510L245.154 166.510Q245.109 165.479 245.109 164.314L245.109 164.314Q245.109 163.686 245.132 163.059Q245.154 162.431 245.154 162.028L245.154 162.028L241.524 162.028L241.524 160.011L245.378 160.011Q246.140 154.364 249.210 150.936Q252.280 147.507 257.479 147.507Z"/></svg>