<svg width="480px" height="360px" xmlns="http://www.w3.org/2000/svg"><rect x="216" y="124" width="80.5" height="80.5" fill-opacity="0"/><path fill="#F00" d="M255.193 147.597L255.193 147.597Q257.479 147.597 259.249 148.045Q261.020 148.493 262.454 149.165L262.454 149.165L261.557 151.272Q260.168 150.689 258.622 150.241Q257.076 149.793 255.238 149.793L255.238 149.793Q252.235 149.793 250.711 151.473Q249.188 153.154 249.188 156.739L249.188 156.739L249.188 163.283L258.241 163.283L258.241 165.300L249.188 165.300L249.188 170.947Q249.188 173.860 248.202 175.384Q247.216 176.908 245.871 177.625L245.871 177.625L263.619 177.625L263.619 180L241.658 180L241.658 177.804Q243.989 177.356 245.311 175.742Q246.633 174.129 246.633 170.992L246.633 170.992L246.633 165.300L242.106 165.300L242.106 163.283L246.633 163.283L246.633 156.471Q246.633 152.168 248.896 149.882Q251.160 147.597 255.193 147.597Z"/></svg>