<svg width="480px" height="360px" xmlns="http://www.w3.org/2000/svg"><rect x="216" y="124" width="80.5" height="80.5" fill-opacity="0"/><path fill="#F00" d="M258.644 180.403L258.644 180.403Q255.059 180.403 252.056 179.148Q249.053 177.894 246.857 175.675Q244.661 173.457 243.451 170.454Q242.241 167.451 242.241 164L242.241 164Q242.241 160.459 243.473 157.457Q244.706 154.454 246.969 152.258Q249.232 150.062 252.213 148.829Q255.193 147.597 258.644 147.597L258.644 147.597Q262.140 147.597 265.120 148.874Q268.101 150.151 270.342 152.415Q272.583 154.678 273.838 157.658Q275.092 160.639 275.092 164L275.092 164Q275.092 167.496 273.838 170.476Q272.583 173.457 270.342 175.675Q268.101 177.894 265.120 179.148Q262.140 180.403 258.644 180.403ZM258.644 178.655L258.644 178.655Q261.737 178.655 264.381 177.535Q267.025 176.415 268.997 174.398Q270.969 172.381 272.090 169.714Q273.210 167.048 273.210 164L273.210 164Q273.210 160.997 272.134 158.353Q271.059 155.709 269.087 153.669Q267.115 151.630 264.471 150.487Q261.826 149.345 258.644 149.345L258.644 149.345Q255.507 149.345 252.863 150.443Q250.218 151.541 248.224 153.535Q246.230 155.529 245.154 158.196Q244.078 160.863 244.078 164L244.078 164Q244.078 167.003 245.132 169.647Q246.185 172.291 248.134 174.331Q250.084 176.370 252.751 177.513Q255.417 178.655 258.644 178.655ZM255.597 173.681L253.311 173.681L253.311 154.364L259.272 154.364Q262.499 154.364 264.224 155.776Q265.950 157.188 265.950 160.101L265.950 160.101Q265.950 163.104 264.090 164.605Q262.230 166.106 259.541 166.106L259.541 166.106L255.597 166.106L255.597 173.681ZM255.552 156.336L255.552 164.224L259.137 164.224Q261.154 164.224 262.431 163.328Q263.709 162.431 263.709 160.146L263.709 160.146Q263.709 158.129 262.499 157.232Q261.289 156.336 259.182 156.336L259.182 156.336L255.552 156.336Z"/></svg>