<svg width="480px" height="360px" xmlns="http://www.w3.org/2000/svg"><rect x="216" y="124" width="80.5" height="80.5" fill-opacity="0"/><path fill="#F00" d="M260.616 188.157L260.616 188.157Q259.541 188.157 258.599 187.978Q257.658 187.798 257.120 187.574L257.120 187.574L257.120 185.289Q257.838 185.513 258.734 185.647Q259.630 185.782 260.616 185.782L260.616 185.782Q262.857 185.782 264.269 184.415Q265.681 183.048 265.725 179.776L265.725 179.776L246.857 152.034L246.723 152.034Q246.812 153.647 246.880 155.798Q246.947 157.950 246.947 160.056L246.947 160.056L246.947 180L244.482 180L244.482 148L247.261 148L265.770 175.429L265.905 175.429Q265.815 173.905 265.770 171.754Q265.725 169.602 265.725 167.585L265.725 167.585L265.725 148L268.190 148L268.190 179.776Q268.190 183.899 266.196 186.028Q264.202 188.157 260.616 188.157Z"/></svg>