<svg width="480px" height="360px" xmlns="http://www.w3.org/2000/svg"><rect x="216" y="124" width="80.5" height="80.5" fill-opacity="0"/><path fill="#F00" d="M260.482 180L258.375 180L246.902 150.734L246.768 150.734Q246.812 151.989 246.880 153.580Q246.947 155.171 246.947 156.919L246.947 156.919L246.947 180L244.482 180L244.482 148L248.426 148L259.451 176.011L259.585 176.011L270.745 148L274.599 148L274.599 180L272 180L272 156.650Q272 155.171 272.067 153.625Q272.134 152.078 272.179 150.779L272.179 150.779L272.045 150.779L260.482 180Z"/></svg>