<svg width="480px" height="360px" xmlns="http://www.w3.org/2000/svg"><rect x="216" y="124" width="80.5" height="80.5" fill-opacity="0"/><path fill="#F00" d="M248.829 180L246.140 180L243.585 164.762L240.359 164.762L240.359 162.745L243.272 162.745L240.852 148L243.227 148L245.557 162.745L249.950 162.745L252.863 148L255.597 148L258.375 162.745L262.723 162.745L265.143 148L267.518 148L265.008 162.745L268.011 162.745L268.011 164.762L264.650 164.762L262.050 180L259.361 180L256.583 164.762L251.742 164.762L248.829 180ZM254.207 151.137L252.101 162.745L256.224 162.745L254.207 151.137ZM245.871 164.762L247.485 176.146L249.546 164.762L245.871 164.762ZM258.734 164.762L260.661 176.235L262.409 164.762L258.734 164.762Z"/></svg>