<svg width="480px" height="360px" xmlns="http://www.w3.org/2000/svg"><rect x="216" y="124" width="80.5" height="80.5" fill-opacity="0"/><path fill="#F00" d="M262.050 177.669L262.050 180L244.482 180L244.482 148L262.050 148L262.050 150.331L247.081 150.331L247.081 162.028L261.199 162.028L261.199 164.359L247.081 164.359L247.081 177.669L262.050 177.669ZM248.874 137.513L251.922 137.513Q252.459 138.499 253.378 139.754Q254.297 141.008 255.305 142.218Q256.314 143.429 257.165 144.280L257.165 144.280L257.165 144.683L255.373 144.683Q254.252 143.787 252.997 142.555Q251.742 141.322 250.644 140.067Q249.546 138.812 248.874 137.871L248.874 137.871L248.874 137.513Z"/></svg>