<svg width="480px" height="360px" xmlns="http://www.w3.org/2000/svg"><rect x="216" y="124" width="80.5" height="80.5" fill-opacity="0"/><path fill="#F00" d="M271.597 163.955L271.597 163.955Q271.597 168.840 269.983 172.560Q268.370 176.280 265.165 178.364Q261.961 180.448 257.210 180.448L257.210 180.448Q252.370 180.448 249.165 178.364Q245.961 176.280 244.370 172.538Q242.779 168.796 242.779 163.910L242.779 163.910Q242.779 159.025 244.415 155.350Q246.050 151.675 249.300 149.591Q252.549 147.507 257.345 147.507L257.345 147.507Q261.961 147.507 265.143 149.501Q268.325 151.496 269.961 155.171Q271.597 158.846 271.597 163.955ZM245.513 163.910L245.513 163.910Q245.513 168.168 246.768 171.373Q248.022 174.577 250.622 176.347Q253.221 178.118 257.210 178.118L257.210 178.118Q261.244 178.118 263.821 176.370Q266.398 174.622 267.630 171.417Q268.863 168.213 268.863 163.955L268.863 163.955Q268.863 157.277 265.972 153.557Q263.081 149.838 257.345 149.838L257.345 149.838Q253.356 149.838 250.711 151.608Q248.067 153.378 246.790 156.538Q245.513 159.697 245.513 163.910ZM256 137.557L258.510 137.557Q259.048 138.543 259.989 139.776Q260.930 141.008 261.961 142.218Q262.992 143.429 263.843 144.280L263.843 144.280L263.843 144.683L262.006 144.683Q260.796 143.697 259.541 142.398Q258.286 141.098 257.210 139.843L257.210 139.843Q256.134 141.098 254.902 142.398Q253.669 143.697 252.459 144.683L252.459 144.683L250.622 144.683L250.622 144.280Q251.473 143.384 252.504 142.196Q253.535 141.008 254.476 139.776Q255.417 138.543 256 137.557L256 137.557Z"/></svg>