<svg width="480px" height="360px" xmlns="http://www.w3.org/2000/svg"><rect x="216" y="124" width="80.5" height="80.5" fill-opacity="0"/><path fill="#F00" d="M252.325 180.448L252.325 180.448Q247.664 180.448 245.087 177.333Q242.510 174.218 242.510 168.168L242.510 168.168Q242.510 162.162 245.154 158.936Q247.798 155.709 252.325 155.709L252.325 155.709Q255.238 155.709 257.165 156.941Q259.092 158.174 260.123 160.101L260.123 160.101L260.258 160.101L260.661 156.157L262.723 156.157L262.723 174.667Q262.723 176.728 263.261 177.490Q263.798 178.252 264.784 178.252L264.784 178.252Q265.546 178.252 266.263 178.028L266.263 178.028L266.263 180Q265.950 180.179 265.367 180.314Q264.784 180.448 264.157 180.448L264.157 180.448Q262.364 180.448 261.445 179.417Q260.527 178.387 260.303 175.877L260.303 175.877L260.078 175.877Q259.137 177.804 257.232 179.126Q255.328 180.448 252.325 180.448ZM252.728 178.252L252.728 178.252Q256.672 178.252 258.420 175.697Q260.168 173.143 260.168 168.347L260.168 168.347L260.168 167.720Q260.168 162.880 258.375 160.392Q256.583 157.905 252.639 157.905L252.639 157.905Q249.008 157.905 247.081 160.571Q245.154 163.238 245.154 168.168L245.154 168.168Q245.154 173.143 247.059 175.697Q248.964 178.252 252.728 178.252Z"/></svg>