<svg width="480px" height="360px" xmlns="http://www.w3.org/2000/svg"><rect x="216" y="124" width="80.5" height="80.5" fill-opacity="0"/><path fill="#F00" d="M246.499 156.157L246.499 180L243.944 180L243.944 156.157L246.499 156.157ZM239.193 152.571L237.490 152.571Q237.714 150.151 238.880 148.829Q240.045 147.507 241.972 147.507L241.972 147.507Q243.003 147.507 243.877 147.955Q244.751 148.403 245.535 148.986Q246.319 149.569 247.081 150.017Q247.843 150.465 248.650 150.465L248.650 150.465Q249.636 150.465 250.353 149.815Q251.070 149.165 251.339 147.462L251.339 147.462L252.997 147.462Q252.773 149.882 251.585 151.227Q250.398 152.571 248.515 152.571L248.515 152.571Q247.485 152.571 246.611 152.123Q245.737 151.675 244.975 151.092Q244.213 150.510 243.451 150.062Q242.689 149.613 241.838 149.613L241.838 149.613Q240.807 149.613 240.134 150.263Q239.462 150.913 239.193 152.571L239.193 152.571Z"/></svg>