<svg width="480px" height="360px" xmlns="http://www.w3.org/2000/svg"><rect x="216" y="124" width="80.5" height="80.5" fill-opacity="0"/><path fill="#F00" d="M252.997 155.709L252.997 155.709Q256.045 155.709 258.084 157.120Q260.123 158.532 261.176 160.997Q262.230 163.462 262.230 166.644L262.230 166.644L262.230 168.392L245.199 168.392Q245.199 173.143 247.417 175.675Q249.636 178.207 253.759 178.207L253.759 178.207Q255.955 178.207 257.613 177.826Q259.272 177.445 261.244 176.594L261.244 176.594L261.244 178.924Q259.451 179.731 257.703 180.090Q255.955 180.448 253.669 180.448L253.669 180.448Q248.291 180.448 245.423 177.176Q242.555 173.905 242.555 168.258L242.555 168.258Q242.555 164.627 243.787 161.804Q245.020 158.980 247.350 157.345Q249.681 155.709 252.997 155.709ZM252.952 157.860L252.952 157.860Q249.681 157.860 247.641 160.056Q245.602 162.252 245.289 166.286L245.289 166.286L259.585 166.286Q259.585 162.521 257.950 160.190Q256.314 157.860 252.952 157.860ZM253.669 152.840L251.160 152.840Q250.577 151.854 249.636 150.644Q248.695 149.434 247.664 148.246Q246.633 147.059 245.826 146.162L245.826 146.162L245.826 145.714L247.664 145.714Q248.874 146.745 250.106 148.045Q251.339 149.345 252.370 150.599L252.370 150.599Q253.445 149.345 254.723 148.045Q256 146.745 257.210 145.714L257.210 145.714L259.048 145.714L259.048 146.162Q258.196 147.059 257.143 148.246Q256.090 149.434 255.148 150.644Q254.207 151.854 253.669 152.840L253.669 152.840Z"/></svg>