<svg width="480px" height="360px" xmlns="http://www.w3.org/2000/svg"><rect x="216" y="124" width="80.5" height="80.5" fill-opacity="0"/><path fill="#F00" d="M251.697 178.387L251.697 180L242.286 180L242.286 178.387L245.692 177.894L245.692 150.151L242.286 149.613L242.286 148L251.697 148L251.697 149.613L248.291 150.151L248.291 177.894L251.697 178.387ZM253.445 188.157L253.445 188.157Q252.280 188.157 251.429 188Q250.577 187.843 249.994 187.574L249.994 187.574L249.994 185.244Q250.667 185.513 251.541 185.647Q252.415 185.782 253.401 185.782L253.401 185.782Q258.375 185.782 258.375 179.776L258.375 179.776L258.375 148L260.975 148L260.975 179.686Q260.975 183.675 259.092 185.916Q257.210 188.157 253.445 188.157Z"/></svg>