<svg width="480px" height="360px" xmlns="http://www.w3.org/2000/svg"><rect x="216" y="124" width="80.5" height="80.5" fill-opacity="0"/><path fill="#F00" d="M250.622 170.050L243.899 180L240.852 180L247.978 169.782Q245.199 169.378 243.563 167.765Q241.927 166.151 241.927 163.148L241.927 163.148Q241.927 159.653 244.168 157.905Q246.409 156.157 250.039 156.157L250.039 156.157L260.034 156.157L260.034 180L257.479 180L257.479 170.050L250.622 170.050ZM244.437 163.104L244.437 163.104Q244.437 167.854 250.532 167.854L250.532 167.854L257.479 167.854L257.479 158.353L250.308 158.353Q247.350 158.353 245.894 159.630Q244.437 160.908 244.437 163.104Z"/></svg>