<svg width="480px" height="360px" xmlns="http://www.w3.org/2000/svg"><rect x="216" y="124" width="80.5" height="80.5" fill-opacity="0"/><path fill="#F00" d="M267.249 180L264.515 180L260.258 168.975L246.992 168.975L242.689 180L240 180L252.594 147.866L254.969 147.866L267.249 180ZM259.451 166.599L255.193 155.081Q254.924 154.454 254.476 153.109Q254.028 151.765 253.714 150.734L253.714 150.734Q253.356 151.944 252.952 153.109Q252.549 154.275 252.280 155.126L252.280 155.126L247.843 166.599L259.451 166.599ZM259.720 137.513L259.720 137.871Q259.048 138.812 257.950 140.067Q256.852 141.322 255.597 142.555Q254.342 143.787 253.221 144.683L253.221 144.683L251.429 144.683L251.429 144.280Q252.280 143.429 253.266 142.218Q254.252 141.008 255.171 139.754Q256.090 138.499 256.672 137.513L256.672 137.513L259.720 137.513Z"/></svg>