<svg width="480px" height="360px" xmlns="http://www.w3.org/2000/svg"><rect x="216" y="124" width="80.5" height="80.5" fill-opacity="0"/><path fill="#F00" d="M260.168 156.157L262.723 156.157L262.723 180L260.661 180L260.258 175.922L260.123 175.922Q259.137 177.894 257.098 179.171Q255.059 180.448 252.011 180.448L252.011 180.448Q243.630 180.448 243.630 171.754L243.630 171.754L243.630 156.157L246.185 156.157L246.185 171.529Q246.185 174.980 247.731 176.616Q249.277 178.252 252.325 178.252L252.325 178.252Q260.168 178.252 260.168 169.154L260.168 169.154L260.168 156.157ZM248.560 145.669L251.608 145.669Q252.146 146.655 253.064 147.910Q253.983 149.165 254.992 150.375Q256 151.585 256.852 152.437L256.852 152.437L256.852 152.840L255.059 152.840Q253.938 151.944 252.683 150.711Q251.429 149.479 250.331 148.224Q249.232 146.969 248.560 146.028L248.560 146.028L248.560 145.669Z"/></svg>