<svg width="480px" height="360px" xmlns="http://www.w3.org/2000/svg"><rect x="216" y="124" width="80.5" height="80.5" fill-opacity="0"/><path fill="#F00" d="M260.168 156.157L262.723 156.157L262.723 180L260.661 180L260.258 175.922L260.123 175.922Q259.137 177.894 257.098 179.171Q255.059 180.448 252.011 180.448L252.011 180.448Q243.630 180.448 243.630 171.754L243.630 171.754L243.630 156.157L246.185 156.157L246.185 171.529Q246.185 174.980 247.731 176.616Q249.277 178.252 252.325 178.252L252.325 178.252Q260.168 178.252 260.168 169.154L260.168 169.154L260.168 156.157ZM247.350 152.571L245.647 152.571Q245.871 150.151 247.036 148.829Q248.202 147.507 250.129 147.507L250.129 147.507Q251.160 147.507 252.034 147.955Q252.908 148.403 253.692 148.986Q254.476 149.569 255.238 150.017Q256 150.465 256.807 150.465L256.807 150.465Q257.793 150.465 258.510 149.815Q259.227 149.165 259.496 147.462L259.496 147.462L261.154 147.462Q260.930 149.882 259.742 151.227Q258.555 152.571 256.672 152.571L256.672 152.571Q255.641 152.571 254.768 152.123Q253.894 151.675 253.132 151.092Q252.370 150.510 251.608 150.062Q250.846 149.613 249.994 149.613L249.994 149.613Q248.964 149.613 248.291 150.263Q247.619 150.913 247.350 152.571L247.350 152.571Z"/></svg>