<svg width="480px" height="360px" xmlns="http://www.w3.org/2000/svg"><rect x="216" y="124" width="80.5" height="80.5" fill-opacity="0"/><path fill="#F00" d="M262.050 177.669L262.050 180L244.482 180L244.482 148L262.050 148L262.050 150.331L247.081 150.331L247.081 162.028L261.199 162.028L261.199 164.359L247.081 164.359L247.081 177.669L262.050 177.669ZM247.978 141.367L247.978 141.367Q247.978 139.574 249.546 139.574L249.546 139.574Q251.160 139.574 251.160 141.367L251.160 141.367Q251.160 143.204 249.546 143.204L249.546 143.204Q247.978 143.204 247.978 141.367ZM256.314 141.367L256.314 141.367Q256.314 139.574 257.882 139.574L257.882 139.574Q259.496 139.574 259.496 141.367L259.496 141.367Q259.496 143.204 257.882 143.204L257.882 143.204Q256.314 143.204 256.314 141.367Z"/></svg>