<svg width="480px" height="360px" xmlns="http://www.w3.org/2000/svg"><rect x="216" y="124" width="80.5" height="80.5" fill-opacity="0"/><path fill="#F00" d="M261.557 151.899L261.557 151.899Q261.557 153.513 260.930 154.611Q260.303 155.709 259.361 156.493Q258.420 157.277 257.501 157.972Q256.583 158.667 255.955 159.451Q255.328 160.235 255.328 161.356L255.328 161.356Q255.328 162.700 256.269 163.597Q257.210 164.493 259.406 165.972L259.406 165.972Q260.840 166.958 261.983 167.966Q263.126 168.975 263.776 170.297Q264.426 171.619 264.426 173.546L264.426 173.546Q264.426 176.773 262.342 178.611Q260.258 180.448 256.538 180.448L256.538 180.448Q254.387 180.448 252.908 180.067Q251.429 179.686 250.263 179.059L250.263 179.059L250.263 176.683Q251.563 177.356 253.132 177.826Q254.700 178.297 256.448 178.297L256.448 178.297Q259.227 178.297 260.549 177.042Q261.871 175.787 261.871 173.681L261.871 173.681Q261.871 171.619 260.818 170.364Q259.765 169.109 257.658 167.675L257.658 167.675Q255.283 166.106 254.050 164.807Q252.818 163.507 252.818 161.445L252.818 161.445Q252.818 159.966 253.445 158.980Q254.073 157.994 254.969 157.277Q255.866 156.560 256.784 155.866Q257.703 155.171 258.331 154.275Q258.958 153.378 258.958 152.034L258.958 152.034Q258.958 150.017 257.412 148.964Q255.866 147.910 253.176 147.910L253.176 147.910Q250.084 147.910 248.269 149.434Q246.454 150.958 246.454 154.275L246.454 154.275L246.454 180L243.899 180L243.899 154.275Q243.899 149.882 246.431 147.798Q248.964 145.714 253.176 145.714L253.176 145.714Q257.076 145.714 259.317 147.328Q261.557 148.941 261.557 151.899Z"/></svg>