<svg width="480px" height="360px" xmlns="http://www.w3.org/2000/svg"><rect x="216" y="124" width="80.5" height="80.5" fill-opacity="0"/><path fill="#F00" d="M268.190 148L268.190 180L265.412 180L246.857 152.034L246.723 152.034Q246.812 153.782 246.880 155.731Q246.947 157.681 246.947 159.787L246.947 159.787L246.947 180L244.482 180L244.482 148L247.261 148L265.770 175.877L265.905 175.877Q265.815 174.487 265.770 172.336Q265.725 170.185 265.725 168.303L265.725 168.303L265.725 148L268.190 148ZM250.308 144.415L248.605 144.415Q248.829 141.994 249.994 140.672Q251.160 139.350 253.087 139.350L253.087 139.350Q254.118 139.350 254.992 139.798Q255.866 140.246 256.650 140.829Q257.434 141.412 258.196 141.860Q258.958 142.308 259.765 142.308L259.765 142.308Q260.751 142.308 261.468 141.658Q262.185 141.008 262.454 139.305L262.454 139.305L264.112 139.305Q263.888 141.725 262.700 143.070Q261.513 144.415 259.630 144.415L259.630 144.415Q258.599 144.415 257.725 143.966Q256.852 143.518 256.090 142.936Q255.328 142.353 254.566 141.905Q253.804 141.457 252.952 141.457L252.952 141.457Q251.922 141.457 251.249 142.106Q250.577 142.756 250.308 144.415L250.308 144.415Z"/></svg>