<svg version="1.1" xmlns="http://www.w3.org/2000/svg" xmlns:xlink="http://www.w3.org/1999/xlink" width="556.88659" height="377.88658" viewBox="0,0,556.88659,377.88658"><defs><radialGradient cx="219.5" cy="142.21134" r="445.50927" gradientUnits="userSpaceOnUse" id="color-1"><stop offset="0" stop-color="#1a1f3a"/><stop offset="1" stop-color="#0a0d1a"/></radialGradient><radialGradient cx="198.18767" cy="175.57164" r="22.14179" gradientUnits="userSpaceOnUse" id="color-2"><stop offset="0" stop-color="#ffff66"/><stop offset="0.4" stop-color="#ff9933"/><stop offset="0.8" stop-color="#ff3300"/><stop offset="1" stop-color="#ff0000" stop-opacity="0"/></radialGradient><radialGradient cx="241.82438" cy="166.3459" r="36.90299" gradientUnits="userSpaceOnUse" id="color-3"><stop offset="0" stop-color="#ffff66"/><stop offset="0.4" stop-color="#ff9933"/><stop offset="0.8" stop-color="#ff3300"/><stop offset="1" stop-color="#ff0000" stop-opacity="0"/></radialGradient><radialGradient cx="281.33134" cy="221.33135" r="22.14179" gradientUnits="userSpaceOnUse" id="color-4"><stop offset="0" stop-color="#99ffff"/><stop offset="0.4" stop-color="#3399ff"/><stop offset="0.8" stop-color="#0033ff"/><stop offset="1" stop-color="#0000ff" stop-opacity="0"/></radialGradient><radialGradient cx="240" cy="234.29311" r="41.33134" gradientUnits="userSpaceOnUse" id="color-5"><stop offset="0" stop-color="#99ffff"/><stop offset="0.4" stop-color="#3399ff"/><stop offset="0.8" stop-color="#0033ff"/><stop offset="1" stop-color="#0000ff" stop-opacity="0"/></radialGradient></defs><g transform="translate(58.94329,8.94329)"><g stroke-miterlimit="10"><path d="M-58.94329,368.94329v-377.88658h556.88659v377.88658z" fill="url(#color-1)" stroke="none" stroke-width="1" stroke-linecap="butt"/><path d="M87.22163,64.86268c0,-0.40762 0.33044,-0.73806 0.73806,-0.73806c0.40762,0 0.73806,0.33045 0.73806,0.73806c0,0.40762 -0.33045,0.73806 -0.73806,0.73806c-0.40762,0 -0.73806,-0.33044 -0.73806,-0.73806z" fill="#fefffe" stroke="none" stroke-width="1" stroke-linecap="butt"/><path d="M124.30913,27.95969c0,-0.30572 0.24783,-0.55354 0.55355,-0.55354c0.30572,0 0.55354,0.24782 0.55354,0.55354c0,0.30572 -0.24782,0.55355 -0.55354,0.55355c-0.30572,0 -0.55355,-0.24783 -0.55355,-0.55355z" fill="#fefffe" stroke="none" stroke-width="1" stroke-linecap="butt"/><path d="M197.93059,57.48208c0,-0.40762 0.33045,-0.73806 0.73806,-0.73806c0.40762,0 0.73806,0.33044 0.73806,0.73806c0,0.40762 -0.33044,0.73806 -0.73806,0.73806c-0.40762,0 -0.73806,-0.33045 -0.73806,-0.73806z" fill="#fefffe" stroke="none" stroke-width="1" stroke-linecap="butt"/><path d="M308.82407,35.34029c0,-0.30572 0.24783,-0.55355 0.55355,-0.55355c0.30572,0 0.55355,0.24783 0.55355,0.55355c0,0.30572 -0.24783,0.55354 -0.55355,0.55354c-0.30572,0 -0.55355,-0.24782 -0.55355,-0.55354z" fill="#fefffe" stroke="none" stroke-width="1" stroke-linecap="butt"/><path d="M363.99403,83.31418c0,-0.40762 0.33045,-0.73806 0.73806,-0.73806c0.40762,0 0.73806,0.33045 0.73806,0.73806c0,0.40762 -0.33044,0.73806 -0.73806,0.73806c-0.40762,0 -0.73806,-0.33044 -0.73806,-0.73806z" fill="#fefffe" stroke="none" stroke-width="1" stroke-linecap="butt"/><path d="M272.1056,101.76567c0,-0.20381 0.16522,-0.36903 0.36903,-0.36903c0.20381,0 0.36902,0.16522 0.36902,0.36903c0,0.20381 -0.16522,0.36903 -0.36902,0.36903c-0.20381,0 -0.36903,-0.16522 -0.36903,-0.36903z" fill="#fefffe" stroke="none" stroke-width="1" stroke-linecap="butt"/><path d="M161.21212,120.21716c0,-0.30572 0.24782,-0.55354 0.55354,-0.55354c0.30572,0 0.55355,0.24782 0.55355,0.55354c0,0.30572 -0.24783,0.55355 -0.55355,0.55355c-0.30572,0 -0.55354,-0.24783 -0.55354,-0.55355z" fill="#fefffe" stroke="none" stroke-width="1" stroke-linecap="butt"/><path d="M382.44553,138.66865c0,-0.40762 0.33045,-0.73806 0.73806,-0.73806c0.40762,0 0.73806,0.33044 0.73806,0.73806c0,0.40762 -0.33044,0.73806 -0.73806,0.73806c-0.40762,0 -0.73806,-0.33045 -0.73806,-0.73806z" fill="#fefffe" stroke="none" stroke-width="1" stroke-linecap="butt"/><path d="M105.85764,175.57164c0,-0.30572 0.24783,-0.55355 0.55355,-0.55355c0.30572,0 0.55354,0.24783 0.55354,0.55355c0,0.30572 -0.24782,0.55354 -0.55354,0.55354c-0.30572,0 -0.55355,-0.24782 -0.55355,-0.55354z" fill="#fefffe" stroke="none" stroke-width="1" stroke-linecap="butt"/><path d="M234.83358,157.12015c0,-0.40762 0.33044,-0.73806 0.73806,-0.73806c0.40762,0 0.73806,0.33045 0.73806,0.73806c0,0.40762 -0.33045,0.73806 -0.73806,0.73806c-0.40762,0 -0.73806,-0.33044 -0.73806,-0.73806z" fill="#fefffe" stroke="none" stroke-width="1" stroke-linecap="butt"/><path d="M327.27557,194.02313c0,-0.30572 0.24782,-0.55355 0.55354,-0.55355c0.30572,0 0.55355,0.24783 0.55355,0.55355c0,0.30572 -0.24783,0.55355 -0.55355,0.55355c-0.30572,0 -0.55354,-0.24783 -0.55354,-0.55355z" fill="#fefffe" stroke="none" stroke-width="1" stroke-linecap="butt"/><path d="M382.44553,249.37762c0,-0.40762 0.33045,-0.73806 0.73806,-0.73806c0.40762,0 0.73806,0.33045 0.73806,0.73806c0,0.40762 -0.33044,0.73806 -0.73806,0.73806c-0.40762,0 -0.73806,-0.33044 -0.73806,-0.73806z" fill="#fefffe" stroke="none" stroke-width="1" stroke-linecap="butt"/><path d="M176.04588,175.57164c0,-12.22858 9.91322,-22.1418 22.1418,-22.1418c12.22858,0 22.14179,9.91322 22.14179,22.1418c0,12.22858 -9.91321,22.14179 -22.14179,22.14179c-12.22858,0 -22.1418,-9.91321 -22.1418,-22.14179z" fill="url(#color-2)" stroke="none" stroke-width="1" stroke-linecap="butt"/><path d="M204.9214,175.57164c16.72344,-11.14896 30.92068,-17.24552 42.59171,-18.28966c14.08299,-1.25992 24.48775,4.83663 31.21427,18.28966" fill="none" stroke="url(#color-3)" stroke-width="40" stroke-linecap="round"/><path d="M259.18955,221.33135c0,-12.22858 9.91322,-22.1418 22.1418,-22.1418c12.22858,0 22.14179,9.91322 22.14179,22.1418c0,12.22858 -9.91321,22.14179 -22.14179,22.14179c-12.22858,0 -22.1418,-9.91321 -22.1418,-22.14179z" fill="url(#color-4)" stroke="none" stroke-width="1" stroke-linecap="butt"/><path d="M281.33134,221.33135c-30.50647,30.99851 -58.0607,34.19677 -82.66269,9.59478" fill="none" stroke="url(#color-5)" stroke-width="40" stroke-linecap="round"/><g fill="#fefffe" stroke="none" stroke-width="1" stroke-linecap="butt" opacity="0.25"><path d="M51.0567,323.18359c0,-16.30477 33.04406,-29.52239 73.80598,-29.52239c40.76192,0 73.80598,13.21762 73.80598,29.52239c0,16.30477 -33.04406,29.52239 -73.80598,29.52239c-40.76192,0 -73.80598,-13.21762 -73.80598,-29.52239z"/><path d="M124.86268,330.56419c0,-20.38096 49.56609,-36.90298 110.70896,-36.90298c61.14287,0 110.70896,16.52203 110.70896,36.90298c0,20.38096 -49.56609,36.90299 -110.70896,36.90299c-61.14287,0 -110.70896,-16.52204 -110.70896,-36.90299z"/><path d="M265.09403,323.18359c0,-18.34286 36.34846,-33.21269 81.18657,-33.21269c44.83811,0 81.18658,14.86983 81.18658,33.21269c0,18.34286 -36.34847,33.21269 -81.18658,33.21269c-44.83811,0 -81.18657,-14.86983 -81.18657,-33.21269z"/></g><text transform="translate(153.50543,69.80809) scale(0.36903,0.36903)" font-size="72" xml:space="preserve" fill="#fefffe" stroke="none" stroke-width="1" stroke-linecap="butt" font-family="&quot;MV Boli&quot;, Sans Serif" font-weight="400" text-anchor="start"><tspan x="0" dy="0">A DANCE OF</tspan></text><text transform="translate(156.87229,103.95766) scale(0.36903,0.36903)" font-size="72" xml:space="preserve" fill="#ff4444" stroke="none" stroke-width="1" stroke-linecap="butt" font-family="&quot;MV Boli&quot;, Sans Serif" font-weight="400" text-anchor="start"><tspan x="0" dy="0">FIRE</tspan></text><text transform="translate(217.95675,102.99571) scale(0.36903,0.36903)" font-size="72" xml:space="preserve" fill="#fefffe" stroke="none" stroke-width="1" stroke-linecap="butt" font-family="&quot;MV Boli&quot;, Sans Serif" font-weight="400" text-anchor="start"><tspan x="0" dy="0">AND</tspan></text><text transform="translate(280.96511,101.55276) scale(0.36903,0.36903)" font-size="72" xml:space="preserve" fill="#3399ff" stroke="none" stroke-width="1" stroke-linecap="butt" font-family="&quot;MV Boli&quot;, Sans Serif" font-weight="400" text-anchor="start"><tspan x="0" dy="0">ICE</tspan></text></g></g></svg>