<svg width="480px" height="360px" xmlns="http://www.w3.org/2000/svg"><rect x="216" y="124" width="80.5" height="80.5" fill-opacity="0"/><path fill="#F00" d="M254.611 155.709L254.611 155.709Q258.689 155.709 260.840 157.815Q262.992 159.922 262.992 164.403L262.992 164.403L262.992 180L260.482 180L260.482 164.583Q260.482 161.176 258.913 159.541Q257.345 157.905 254.342 157.905L254.342 157.905Q246.499 157.905 246.499 167.003L246.499 167.003L246.499 180L243.944 180L243.944 156.157L246.006 156.157L246.364 160.280L246.543 160.280Q247.485 158.308 249.546 157.008Q251.608 155.709 254.611 155.709ZM247.350 152.571L245.647 152.571Q245.871 150.151 247.036 148.829Q248.202 147.507 250.129 147.507L250.129 147.507Q251.160 147.507 252.034 147.955Q252.908 148.403 253.692 148.986Q254.476 149.569 255.238 150.017Q256 150.465 256.807 150.465L256.807 150.465Q257.793 150.465 258.510 149.815Q259.227 149.165 259.496 147.462L259.496 147.462L261.154 147.462Q260.930 149.882 259.742 151.227Q258.555 152.571 256.672 152.571L256.672 152.571Q255.641 152.571 254.768 152.123Q253.894 151.675 253.132 151.092Q252.370 150.510 251.608 150.062Q250.846 149.613 249.994 149.613L249.994 149.613Q248.964 149.613 248.291 150.263Q247.619 150.913 247.350 152.571L247.350 152.571Z"/></svg>