<svg width="480px" height="360px" xmlns="http://www.w3.org/2000/svg"><rect x="216" y="124" width="80.5" height="80.5" fill-opacity="0"/><path fill="#F00" d="M252.504 180.448L252.504 180.448Q247.709 180.448 245.132 177.378Q242.555 174.308 242.555 168.347L242.555 168.347Q242.555 162.162 245.244 158.958Q247.933 155.754 252.683 155.754L252.683 155.754Q255.731 155.754 257.591 157.076Q259.451 158.398 260.392 160.325L260.392 160.325L260.571 160.325Q260.482 159.294 260.437 157.994Q260.392 156.695 260.392 155.619L260.392 155.619L260.392 152.303L250.218 152.303L250.218 150.286L260.392 150.286L260.392 145.938L262.947 145.938L262.947 150.286L266.308 150.286L266.308 152.303L262.947 152.303L262.947 180L260.840 180L260.527 175.832L260.392 175.832Q259.451 177.759 257.569 179.104Q255.686 180.448 252.504 180.448ZM252.863 178.252L252.863 178.252Q256.941 178.252 258.667 175.742Q260.392 173.232 260.392 168.527L260.392 168.527L260.392 168.078Q260.392 163.148 258.689 160.549Q256.986 157.950 252.997 157.950L252.997 157.950Q249.143 157.950 247.193 160.639Q245.244 163.328 245.244 168.392L245.244 168.392Q245.244 173.232 247.104 175.742Q248.964 178.252 252.863 178.252Z"/></svg>