<svg width="480px" height="360px" xmlns="http://www.w3.org/2000/svg"><rect x="216" y="124" width="80.5" height="80.5" fill-opacity="0"/><path fill="#F00" d="M252.683 155.709L252.683 155.709Q255.462 155.709 257.322 156.807Q259.182 157.905 260.303 159.787L260.303 159.787L260.482 159.787L260.840 156.157L262.902 156.157L262.902 180.762Q262.902 185.468 260.482 188.112Q258.062 190.756 252.639 190.756L252.639 190.756Q249.950 190.756 247.866 190.331Q245.782 189.905 244.123 189.143L244.123 189.143L244.123 186.678Q245.782 187.529 247.978 188.045Q250.174 188.560 252.728 188.560L252.728 188.560Q256.627 188.560 258.510 186.499Q260.392 184.437 260.392 180.896L260.392 180.896L260.392 179.507Q260.392 178.566 260.415 177.602Q260.437 176.639 260.482 175.787L260.482 175.787L260.347 175.787Q258.286 180.448 252.370 180.448L252.370 180.448Q247.754 180.448 245.154 177.311Q242.555 174.174 242.555 168.258L242.555 168.258Q242.555 162.476 245.154 159.092Q247.754 155.709 252.683 155.709ZM252.952 157.905L252.952 157.905Q249.053 157.905 247.126 160.639Q245.199 163.373 245.199 168.303L245.199 168.303Q245.199 173.143 247.126 175.697Q249.053 178.252 252.683 178.252L252.683 178.252Q255.641 178.252 257.322 177.064Q259.003 175.877 259.697 173.770Q260.392 171.664 260.392 168.975L260.392 168.975L260.392 167.406Q260.392 162.880 258.711 160.392Q257.031 157.905 252.952 157.905Z"/></svg>