<svg width="480px" height="360px" xmlns="http://www.w3.org/2000/svg"><rect x="216" y="124" width="80.5" height="80.5" fill-opacity="0"/><path fill="#F00" d="M253.669 180.448L253.669 180.448Q250.443 180.448 248.762 178.768Q247.081 177.087 247.081 173.188L247.081 173.188L247.081 158.218L240.583 158.218L240.583 156.157L258.779 156.157L258.779 158.218L249.681 158.218L249.681 172.874Q249.681 175.697 250.644 176.997Q251.608 178.297 254.028 178.297L254.028 178.297Q254.924 178.297 255.910 178.162Q256.896 178.028 257.613 177.804L257.613 177.804L257.613 179.821Q256.986 180.090 255.910 180.269Q254.835 180.448 253.669 180.448Z"/></svg>