<svg width="480px" height="360px" xmlns="http://www.w3.org/2000/svg"><rect x="216" y="124" width="80.5" height="80.5" fill-opacity="0"/><path fill="#F00" d="M253.401 180L244.482 180L244.482 148L247.081 148L247.081 161.938L252.908 161.938Q258.644 161.938 261.356 164.179Q264.067 166.420 264.067 170.768L264.067 170.768Q264.067 175.160 261.401 177.580Q258.734 180 253.401 180L253.401 180ZM271.238 180L268.639 180L268.639 148L271.238 148L271.238 180ZM247.081 177.714L253.087 177.714Q257.300 177.714 259.339 176.034Q261.378 174.353 261.378 170.768L261.378 170.768Q261.378 167.003 259.092 165.636Q256.807 164.269 252.594 164.269L252.594 164.269L247.081 164.269L247.081 177.714Z"/></svg>