<svg width="480px" height="360px" xmlns="http://www.w3.org/2000/svg"><rect x="216" y="124" width="80.5" height="80.5" fill-opacity="0"/><path fill="#F00" d="M267.249 180L264.515 180L260.258 168.975L246.992 168.975L242.689 180L240 180L252.594 147.866L254.969 147.866L267.249 180ZM259.451 166.599L255.193 155.081Q254.924 154.454 254.476 153.109Q254.028 151.765 253.714 150.734L253.714 150.734Q253.356 151.944 252.952 153.109Q252.549 154.275 252.280 155.126L252.280 155.126L247.843 166.599L259.451 166.599ZM247.888 141.367L247.888 141.367Q247.888 139.574 249.457 139.574L249.457 139.574Q251.070 139.574 251.070 141.367L251.070 141.367Q251.070 143.204 249.457 143.204L249.457 143.204Q247.888 143.204 247.888 141.367ZM256.224 141.367L256.224 141.367Q256.224 139.574 257.793 139.574L257.793 139.574Q259.406 139.574 259.406 141.367L259.406 141.367Q259.406 143.204 257.793 143.204L257.793 143.204Q256.224 143.204 256.224 141.367Z"/></svg>