<svg width="480px" height="360px" xmlns="http://www.w3.org/2000/svg"><rect x="216" y="124" width="80.5" height="80.5" fill-opacity="0"/><path fill="#F00" d="M255.686 163.776L253.759 163.776L253.759 148L256.717 148L261.468 161.087L266.308 148L269.176 148L269.176 163.776L267.160 163.776L267.160 155.036Q267.160 154.050 267.182 152.908Q267.204 151.765 267.249 150.779L267.249 150.779L267.115 150.779L262.185 163.776L260.482 163.776L255.731 150.689L255.597 150.689Q255.597 151.720 255.641 152.796Q255.686 153.871 255.686 154.812L255.686 154.812L255.686 163.776ZM247.081 163.776L245.109 163.776L245.109 149.748L240.359 149.748L240.359 148L251.877 148L251.877 149.748L247.081 149.748L247.081 163.776Z"/></svg>