<svg width="480px" height="360px" xmlns="http://www.w3.org/2000/svg"><rect x="216" y="124" width="80.5" height="80.5" fill-opacity="0"/><path fill="#F00" d="M244.661 148L253.401 148Q260.930 148 265.008 152.011Q269.087 156.022 269.087 163.686L269.087 163.686Q269.087 171.754 264.807 175.877Q260.527 180 252.370 180L252.370 180L244.661 180L244.661 165.255L241.076 165.255L241.076 162.969L244.661 162.969L244.661 148ZM252.863 150.286L252.863 150.286L247.261 150.286L247.261 162.969L255.866 162.969L255.866 165.255L247.261 165.255L247.261 177.714L252.190 177.714Q266.353 177.714 266.353 163.776L266.353 163.776Q266.353 150.286 252.863 150.286Z"/></svg>