<svg width="480px" height="360px" xmlns="http://www.w3.org/2000/svg"><rect x="216" y="124" width="80.5" height="80.5" fill-opacity="0"/><path fill="#F00" d="M249.546 155.709L249.546 155.709Q253.311 155.709 255.440 157.322Q257.569 158.936 257.569 161.849L257.569 161.849Q257.569 163.955 256.426 165.300Q255.283 166.644 253.311 167.182L253.311 167.182L253.311 167.317Q255.731 167.899 257.076 169.401Q258.420 170.902 258.420 173.322L258.420 173.322Q258.420 176.549 255.955 178.499Q253.490 180.448 249.053 180.448L249.053 180.448Q246.633 180.448 244.661 180Q242.689 179.552 241.434 178.880L241.434 178.880L241.434 176.415Q243.003 177.266 244.930 177.759Q246.857 178.252 249.053 178.252L249.053 178.252Q251.966 178.252 253.916 177.020Q255.866 175.787 255.866 173.188L255.866 173.188Q255.866 170.723 254.073 169.625Q252.280 168.527 248.829 168.527L248.829 168.527L245.602 168.527L245.602 166.331L248.515 166.331Q251.473 166.331 253.266 165.322Q255.059 164.314 255.059 162.028L255.059 162.028Q255.059 160.011 253.602 158.958Q252.146 157.905 249.457 157.905L249.457 157.905Q247.485 157.905 245.961 158.331Q244.437 158.756 242.779 159.518L242.779 159.518L241.882 157.412Q243.585 156.605 245.468 156.157Q247.350 155.709 249.546 155.709Z"/></svg>