<svg width="480px" height="360px" xmlns="http://www.w3.org/2000/svg"><rect x="216" y="124" width="80.5" height="80.5" fill-opacity="0"/><path fill="#F00" d="M258.913 177.894L258.913 180L241.793 180L241.793 178.297L255.776 158.218L242.779 158.218L242.779 156.157L258.824 156.157L258.824 157.950L244.885 177.894L258.913 177.894ZM256.493 145.669L256.493 146.028Q255.821 146.969 254.723 148.224Q253.625 149.479 252.370 150.711Q251.115 151.944 249.994 152.840L249.994 152.840L248.202 152.840L248.202 152.437Q249.053 151.585 250.039 150.375Q251.025 149.165 251.944 147.910Q252.863 146.655 253.445 145.669L253.445 145.669L256.493 145.669Z"/></svg>