<svg width="480px" height="360px" xmlns="http://www.w3.org/2000/svg"><rect x="216" y="124" width="80.5" height="80.5" fill-opacity="0"/><path fill="#F00" d="M243.496 157.950L243.496 157.950Q243.496 155.754 245.423 155.754L245.423 155.754Q247.440 155.754 247.440 157.950L247.440 157.950Q247.440 160.190 245.423 160.190L245.423 160.190Q243.496 160.190 243.496 157.950ZM246.678 174.801L246.902 175.294Q246.364 177.714 245.445 180.560Q244.527 183.406 243.541 185.782L243.541 185.782L241.569 185.782Q242.375 182.868 242.980 180.067Q243.585 177.266 243.944 174.801L243.944 174.801L246.678 174.801Z"/></svg>