<svg width="480px" height="360px" xmlns="http://www.w3.org/2000/svg"><rect x="216" y="124" width="80.5" height="80.5" fill-opacity="0"/><path fill="#F00" d="M242.868 148L252.011 165.120L261.154 148L264.022 148L253.356 167.630L253.356 180L250.756 180L250.756 167.810L240 148L242.868 148ZM258.151 137.513L258.151 137.871Q257.479 138.812 256.381 140.067Q255.283 141.322 254.028 142.555Q252.773 143.787 251.653 144.683L251.653 144.683L249.860 144.683L249.860 144.280Q250.711 143.429 251.697 142.218Q252.683 141.008 253.602 139.754Q254.521 138.499 255.104 137.513L255.104 137.513L258.151 137.513Z"/></svg>