<svg width="480px" height="360px" xmlns="http://www.w3.org/2000/svg"><rect x="216" y="124" width="80.5" height="80.5" fill-opacity="0"/><path fill="#F00" d="M251.697 178.387L251.697 180L242.286 180L242.286 178.387L245.692 177.894L245.692 150.151L242.286 149.613L242.286 148L251.697 148L251.697 149.613L248.291 150.151L248.291 177.894L251.697 178.387ZM251.429 139.171L253.221 139.171Q252.952 141.725 251.361 143.204Q249.770 144.683 246.947 144.683L246.947 144.683Q244.034 144.683 242.487 143.227Q240.941 141.770 240.762 139.171L240.762 139.171L242.555 139.171Q242.734 140.964 243.832 141.748Q244.930 142.532 246.992 142.532L246.992 142.532Q248.919 142.532 250.062 141.725Q251.204 140.919 251.429 139.171L251.429 139.171Z"/></svg>