<svg width="480px" height="360px" xmlns="http://www.w3.org/2000/svg"><rect x="216" y="124" width="80.5" height="80.5" fill-opacity="0"/><path fill="#F00" d="M243.944 148L249.188 148Q253.849 148 256.336 149.994Q258.824 151.989 258.824 156.784L258.824 156.784Q258.824 160.459 257.188 162.566Q255.552 164.672 253.311 165.479L253.311 165.479L259.989 180L257.165 180L250.936 166.196L246.454 166.196L246.454 180L243.944 180L243.944 148ZM249.143 150.241L249.143 150.241L246.454 150.241L246.454 163.955L249.546 163.955Q252.728 163.955 254.499 162.140Q256.269 160.325 256.269 156.874L256.269 156.874Q256.269 153.199 254.454 151.720Q252.639 150.241 249.143 150.241ZM267.653 155.709L267.653 155.709Q269.401 155.709 270.723 156.090Q272.045 156.471 273.389 157.143L273.389 157.143L272.403 159.204Q271.148 158.532 270.006 158.196Q268.863 157.860 267.608 157.860L267.608 157.860Q265.815 157.860 264.672 158.868Q263.529 159.877 263.529 161.625L263.529 161.625Q263.529 163.507 264.762 164.583Q265.994 165.658 268.056 166.779L268.056 166.779Q269.535 167.630 270.790 168.549Q272.045 169.468 272.829 170.723Q273.613 171.978 273.613 173.860L273.613 173.860Q273.613 176.728 271.821 178.588Q270.028 180.448 266.398 180.448L266.398 180.448Q264.605 180.448 263.148 180.045Q261.692 179.641 260.706 179.059L260.706 179.059L260.706 176.594Q261.916 177.266 263.417 177.782Q264.919 178.297 266.398 178.297L266.398 178.297Q268.908 178.297 270.006 177.087Q271.104 175.877 271.104 173.994L271.104 173.994Q271.104 172.202 269.961 171.148Q268.818 170.095 266.532 168.840L266.532 168.840Q265.053 167.989 263.798 167.115Q262.543 166.241 261.782 164.964Q261.020 163.686 261.020 161.714L261.020 161.714Q261.020 158.891 262.902 157.300Q264.784 155.709 267.653 155.709Z"/></svg>