<svg width="480px" height="360px" xmlns="http://www.w3.org/2000/svg"><rect x="216" y="124" width="80.5" height="80.5" fill-opacity="0"/><path fill="#F00" d="M254.611 155.709L254.611 155.709Q258.689 155.709 260.840 157.815Q262.992 159.922 262.992 164.403L262.992 164.403L262.992 180L260.482 180L260.482 164.583Q260.482 161.176 258.913 159.541Q257.345 157.905 254.342 157.905L254.342 157.905Q246.499 157.905 246.499 167.003L246.499 167.003L246.499 180L243.944 180L243.944 156.157L246.006 156.157L246.364 160.280L246.543 160.280Q247.485 158.308 249.546 157.008Q251.608 155.709 254.611 155.709ZM254.611 152.840L252.101 152.840Q251.518 151.854 250.577 150.644Q249.636 149.434 248.605 148.246Q247.574 147.059 246.768 146.162L246.768 146.162L246.768 145.714L248.605 145.714Q249.815 146.745 251.048 148.045Q252.280 149.345 253.311 150.599L253.311 150.599Q254.387 149.345 255.664 148.045Q256.941 146.745 258.151 145.714L258.151 145.714L259.989 145.714L259.989 146.162Q259.137 147.059 258.084 148.246Q257.031 149.434 256.090 150.644Q255.148 151.854 254.611 152.840L254.611 152.840Z"/></svg>