<svg width="480px" height="360px" xmlns="http://www.w3.org/2000/svg"><rect x="216" y="124" width="80.5" height="80.5" fill-opacity="0"/><path fill="#F00" d="M262.050 177.669L262.050 180L244.482 180L244.482 148L262.050 148L262.050 150.331L247.081 150.331L247.081 162.028L261.199 162.028L261.199 164.359L247.081 164.359L247.081 177.669L262.050 177.669ZM248.022 141.367L248.022 141.367Q248.022 139.574 249.591 139.574L249.591 139.574Q251.204 139.574 251.204 141.367L251.204 141.367Q251.204 143.204 249.591 143.204L249.591 143.204Q248.022 143.204 248.022 141.367ZM256.359 141.367L256.359 141.367Q256.359 139.574 257.927 139.574L257.927 139.574Q259.541 139.574 259.541 141.367L259.541 141.367Q259.541 143.204 257.927 143.204L257.927 143.204Q256.359 143.204 256.359 141.367Z"/></svg>