<svg width="480px" height="360px" xmlns="http://www.w3.org/2000/svg"><rect x="216" y="124" width="80.5" height="80.5" fill-opacity="0"/><path fill="#F00" d="M262.857 161.580L262.857 161.580Q262.857 167.317 261.401 171.552Q259.944 175.787 256.852 178.140Q253.759 180.493 248.829 180.493L248.829 180.493Q247.709 180.493 246.454 180.359Q245.199 180.224 244.392 179.955L244.392 179.955L244.392 177.669Q245.199 177.938 246.387 178.118Q247.574 178.297 248.784 178.297L248.784 178.297Q254.521 178.297 257.322 174.398Q260.123 170.499 260.303 163.328L260.303 163.328L260.123 163.328Q259.182 165.076 257.076 166.465Q254.969 167.854 251.608 167.854L251.608 167.854Q247.305 167.854 244.840 165.277Q242.375 162.700 242.375 158.174L242.375 158.174Q242.375 153.333 245.020 150.443Q247.664 147.552 252.280 147.552L252.280 147.552Q255.731 147.552 258.084 149.345Q260.437 151.137 261.647 154.297Q262.857 157.457 262.857 161.580ZM252.280 149.748L252.280 149.748Q248.829 149.748 246.880 151.922Q244.930 154.095 244.930 158.129L244.930 158.129Q244.930 161.669 246.678 163.709Q248.426 165.748 252.056 165.748L252.056 165.748Q254.566 165.748 256.381 164.739Q258.196 163.731 259.182 162.230Q260.168 160.728 260.168 159.249L260.168 159.249Q260.168 157.905 259.742 156.269Q259.317 154.633 258.420 153.154Q257.524 151.675 256 150.711Q254.476 149.748 252.280 149.748Z"/></svg>