<svg width="480px" height="360px" xmlns="http://www.w3.org/2000/svg"><rect x="216" y="124" width="80.5" height="80.5" fill-opacity="0"/><path fill="#F00" d="M245.244 147.328L245.244 147.328Q246.992 147.328 246.992 149.255L246.992 149.255Q246.992 151.227 245.244 151.227L245.244 151.227Q243.496 151.227 243.496 149.255L243.496 149.255Q243.496 147.328 245.244 147.328ZM243.944 156.157L246.499 156.157L246.499 180L243.944 180L243.944 156.157ZM253.938 149.255L253.938 149.255Q253.938 147.328 255.686 147.328L255.686 147.328Q257.434 147.328 257.434 149.255L257.434 149.255Q257.434 151.227 255.686 151.227L255.686 151.227Q253.938 151.227 253.938 149.255ZM251.204 190.756L251.204 190.756Q250.174 190.756 249.412 190.622Q248.650 190.487 248.112 190.263L248.112 190.263L248.112 188.067Q249.367 188.560 250.936 188.560L250.936 188.560Q252.549 188.560 253.468 187.574Q254.387 186.588 254.387 184.437L254.387 184.437L254.387 156.157L256.941 156.157L256.941 184.482Q256.941 187.529 255.417 189.143Q253.894 190.756 251.204 190.756Z"/></svg>