<svg width="480px" height="360px" xmlns="http://www.w3.org/2000/svg"><rect x="216" y="124" width="80.5" height="80.5" fill-opacity="0"/><path fill="#F00" d="M251.697 178.387L251.697 180L242.286 180L242.286 178.387L245.692 177.894L245.692 150.151L242.286 149.613L242.286 148L251.697 148L251.697 149.613L248.291 150.151L248.291 177.894L251.697 178.387ZM240.986 144.415L239.283 144.415Q239.507 141.994 240.672 140.672Q241.838 139.350 243.765 139.350L243.765 139.350Q244.796 139.350 245.669 139.798Q246.543 140.246 247.328 140.829Q248.112 141.412 248.874 141.860Q249.636 142.308 250.443 142.308L250.443 142.308Q251.429 142.308 252.146 141.658Q252.863 141.008 253.132 139.305L253.132 139.305L254.790 139.305Q254.566 141.725 253.378 143.070Q252.190 144.415 250.308 144.415L250.308 144.415Q249.277 144.415 248.403 143.966Q247.529 143.518 246.768 142.936Q246.006 142.353 245.244 141.905Q244.482 141.457 243.630 141.457L243.630 141.457Q242.599 141.457 241.927 142.106Q241.255 142.756 240.986 144.415L240.986 144.415Z"/></svg>