<svg width="480px" height="360px" xmlns="http://www.w3.org/2000/svg"><rect x="216" y="124" width="80.5" height="80.5" fill-opacity="0"/><path fill="#F00" d="M246.499 190.577L243.944 190.577L243.944 156.022Q243.944 150.913 246.521 148.314Q249.098 145.714 253.535 145.714L253.535 145.714Q257.748 145.714 260.146 147.821Q262.543 149.927 262.543 154.095L262.543 154.095Q262.543 157.053 260.930 159.182Q259.317 161.311 256.627 161.849L256.627 161.849L256.627 161.983Q259.899 162.431 262.095 164.538Q264.291 166.644 264.291 170.768L264.291 170.768Q264.291 175.204 261.468 177.759Q258.644 180.314 253.983 180.314L253.983 180.314Q251.608 180.314 249.950 179.798Q248.291 179.283 246.499 178.252L246.499 178.252L246.499 190.577ZM253.804 178.118L253.804 178.118Q257.524 178.118 259.630 176.146Q261.737 174.174 261.737 170.633L261.737 170.633Q261.737 167.092 259.675 165.076Q257.613 163.059 253.894 163.059L253.894 163.059L250.711 163.059L250.711 160.997L253.669 160.997Q256.717 160.997 258.308 159.070Q259.899 157.143 259.899 154.185L259.899 154.185Q259.899 151.003 258.129 149.457Q256.359 147.910 253.490 147.910L253.490 147.910Q250.308 147.910 248.403 149.860Q246.499 151.810 246.499 156.202L246.499 156.202L246.499 175.877Q248.246 176.952 249.882 177.535Q251.518 178.118 253.804 178.118Z"/></svg>