<svg width="480px" height="360px" xmlns="http://www.w3.org/2000/svg"><rect x="216" y="124" width="80.5" height="80.5" fill-opacity="0"/><path fill="#F00" d="M262.230 171.664L262.230 171.664Q262.230 174.532 260.796 176.504Q259.361 178.476 256.852 179.462Q254.342 180.448 251.160 180.448L251.160 180.448Q248.246 180.448 246.095 180.045Q243.944 179.641 242.420 179.014L242.420 179.014L242.420 176.459Q244.078 177.132 246.364 177.625Q248.650 178.118 251.294 178.118L251.294 178.118Q254.969 178.118 257.277 176.549Q259.585 174.980 259.585 171.843L259.585 171.843Q259.585 169.961 258.711 168.728Q257.838 167.496 256.022 166.577Q254.207 165.658 251.384 164.717L251.384 164.717Q248.695 163.821 246.768 162.700Q244.840 161.580 243.810 159.899Q242.779 158.218 242.779 155.664L242.779 155.664Q242.779 153.064 244.101 151.249Q245.423 149.434 247.731 148.493Q250.039 147.552 252.997 147.552L252.997 147.552Q255.328 147.552 257.434 148Q259.541 148.448 261.423 149.255L261.423 149.255L260.571 151.496Q256.717 149.882 252.908 149.882L252.908 149.882Q249.591 149.882 247.507 151.339Q245.423 152.796 245.423 155.619L245.423 155.619Q245.423 157.681 246.319 158.913Q247.216 160.146 248.919 160.997Q250.622 161.849 253.087 162.700L253.087 162.700Q255.910 163.686 257.950 164.762Q259.989 165.838 261.109 167.473Q262.230 169.109 262.230 171.664Z"/></svg>