<svg width="480px" height="360px" xmlns="http://www.w3.org/2000/svg"><rect x="216" y="124" width="80.5" height="80.5" fill-opacity="0"/><path fill="#F00" d="M267.742 159.877L261.244 159.877L259.630 168.168L266.129 168.168L266.129 170.230L259.227 170.230L257.345 180L255.193 180L257.076 170.230L249.412 170.230L247.574 180L245.423 180L247.261 170.230L241.210 170.230L241.210 168.168L247.664 168.168L249.277 159.877L242.913 159.877L242.913 157.860L249.636 157.860L251.518 148L253.714 148L251.832 157.860L259.496 157.860L261.378 148L263.485 148L261.602 157.860L267.742 157.860L267.742 159.877ZM251.429 159.877L249.815 168.168L257.479 168.168L259.092 159.877L251.429 159.877Z"/></svg>