<svg width="480px" height="360px" xmlns="http://www.w3.org/2000/svg"><rect x="216" y="124" width="80.5" height="80.5" fill-opacity="0"/><path fill="#F00" d="M250.667 178.252L250.667 178.252Q251.653 178.252 252.549 178.118Q253.445 177.983 254.118 177.714L254.118 177.714L254.118 179.776Q253.445 180.045 252.459 180.246Q251.473 180.448 250.353 180.448L250.353 180.448Q247.350 180.448 245.737 178.790Q244.123 177.132 244.123 173.367L244.123 173.367L244.123 158.218L240.583 158.218L240.583 156.784L244.123 155.933L245.020 150.465L246.678 150.465L246.678 156.157L253.983 156.157L253.983 158.218L246.678 158.218L246.678 173.232Q246.678 178.252 250.667 178.252ZM252.997 186.364L252.997 186.364Q252.997 188.426 251.451 189.591Q249.905 190.756 247.171 190.756L247.171 190.756Q245.647 190.756 244.751 190.487L244.751 190.487L244.751 188.739Q245.647 188.964 247.216 188.964L247.216 188.964Q248.874 188.964 249.860 188.359Q250.846 187.754 250.846 186.409L250.846 186.409Q250.846 185.154 249.703 184.549Q248.560 183.944 246.499 183.810L246.499 183.810L248.471 180L250.308 180L249.008 182.644Q250.756 182.868 251.877 183.787Q252.997 184.706 252.997 186.364Z"/></svg>