<svg width="480px" height="360px" xmlns="http://www.w3.org/2000/svg"><rect x="216" y="124" width="80.5" height="80.5" fill-opacity="0"/><path fill="#F00" d="M255.507 147.552L255.507 151.272Q257.210 151.317 258.667 151.608Q260.123 151.899 261.378 152.437L261.378 152.437L260.661 154.633Q259.406 154.140 257.994 153.826Q256.583 153.513 255.373 153.513L255.373 153.513Q251.115 153.513 248.852 156.246Q246.588 158.980 246.588 163.776L246.588 163.776Q246.588 168.392 248.605 171.059Q250.622 173.725 254.880 173.725L254.880 173.725Q256.672 173.725 258.196 173.389Q259.720 173.053 261.064 172.471L261.064 172.471L261.064 174.756Q259.944 175.294 258.577 175.630Q257.210 175.966 255.462 176.011L255.462 176.011L255.462 180.448L253.401 180.448L253.401 175.966Q248.784 175.563 246.364 172.448Q243.944 169.333 243.944 163.776L243.944 163.776Q243.944 158.218 246.499 155.081Q249.053 151.944 253.401 151.406L253.401 151.406L253.401 147.552L255.507 147.552Z"/></svg>