<svg width="480px" height="360px" xmlns="http://www.w3.org/2000/svg"><rect x="216" y="124" width="80.5" height="80.5" fill-opacity="0"/><path fill="#F00" d="M260.168 156.157L262.723 156.157L262.723 180L260.661 180L260.258 175.922L260.123 175.922Q259.137 177.894 257.098 179.171Q255.059 180.448 252.011 180.448L252.011 180.448Q243.630 180.448 243.630 171.754L243.630 171.754L243.630 156.157L246.185 156.157L246.185 171.529Q246.185 174.980 247.731 176.616Q249.277 178.252 252.325 178.252L252.325 178.252Q260.168 178.252 260.168 169.154L260.168 169.154L260.168 156.157ZM253.356 152.706L253.356 152.706Q251.339 152.706 249.994 151.473Q248.650 150.241 248.650 148.090L248.650 148.090Q248.650 146.028 249.994 144.773Q251.339 143.518 253.356 143.518L253.356 143.518Q255.328 143.518 256.717 144.796Q258.106 146.073 258.106 148.090L258.106 148.090Q258.106 150.241 256.739 151.473Q255.373 152.706 253.356 152.706ZM253.356 151.048L253.356 151.048Q254.655 151.048 255.485 150.218Q256.314 149.389 256.314 148.090L256.314 148.090Q256.314 146.835 255.440 145.983Q254.566 145.132 253.356 145.132L253.356 145.132Q252.101 145.132 251.249 145.983Q250.398 146.835 250.398 148.090L250.398 148.090Q250.398 149.389 251.204 150.218Q252.011 151.048 253.356 151.048Z"/></svg>