<svg width="480px" height="360px" xmlns="http://www.w3.org/2000/svg"><rect x="216" y="124" width="80.5" height="80.5" fill-opacity="0"/><path fill="#F00" d="M242.868 148L252.011 165.120L261.154 148L264.022 148L253.356 167.630L253.356 180L250.756 180L250.756 167.810L240 148L242.868 148ZM246.319 141.367L246.319 141.367Q246.319 139.574 247.888 139.574L247.888 139.574Q249.501 139.574 249.501 141.367L249.501 141.367Q249.501 143.204 247.888 143.204L247.888 143.204Q246.319 143.204 246.319 141.367ZM254.655 141.367L254.655 141.367Q254.655 139.574 256.224 139.574L256.224 139.574Q257.838 139.574 257.838 141.367L257.838 141.367Q257.838 143.204 256.224 143.204L256.224 143.204Q254.655 143.204 254.655 141.367Z"/></svg>