<svg width="480px" height="360px" xmlns="http://www.w3.org/2000/svg"><rect x="216" y="124" width="80.5" height="80.5" fill-opacity="0"/><path fill="#F00" d="M262.230 171.664L262.230 171.664Q262.230 174.532 260.796 176.504Q259.361 178.476 256.852 179.462Q254.342 180.448 251.160 180.448L251.160 180.448Q248.246 180.448 246.095 180.045Q243.944 179.641 242.420 179.014L242.420 179.014L242.420 176.459Q244.078 177.132 246.364 177.625Q248.650 178.118 251.294 178.118L251.294 178.118Q254.969 178.118 257.277 176.549Q259.585 174.980 259.585 171.843L259.585 171.843Q259.585 169.961 258.711 168.728Q257.838 167.496 256.022 166.577Q254.207 165.658 251.384 164.717L251.384 164.717Q248.695 163.821 246.768 162.700Q244.840 161.580 243.810 159.899Q242.779 158.218 242.779 155.664L242.779 155.664Q242.779 153.064 244.101 151.249Q245.423 149.434 247.731 148.493Q250.039 147.552 252.997 147.552L252.997 147.552Q255.328 147.552 257.434 148Q259.541 148.448 261.423 149.255L261.423 149.255L260.571 151.496Q256.717 149.882 252.908 149.882L252.908 149.882Q249.591 149.882 247.507 151.339Q245.423 152.796 245.423 155.619L245.423 155.619Q245.423 157.681 246.319 158.913Q247.216 160.146 248.919 160.997Q250.622 161.849 253.087 162.700L253.087 162.700Q255.910 163.686 257.950 164.762Q259.989 165.838 261.109 167.473Q262.230 169.109 262.230 171.664ZM253.714 144.683L251.204 144.683Q250.622 143.697 249.681 142.487Q248.739 141.277 247.709 140.090Q246.678 138.902 245.871 138.006L245.871 138.006L245.871 137.557L247.709 137.557Q248.919 138.588 250.151 139.888Q251.384 141.188 252.415 142.443L252.415 142.443Q253.490 141.188 254.768 139.888Q256.045 138.588 257.255 137.557L257.255 137.557L259.092 137.557L259.092 138.006Q258.241 138.902 257.188 140.090Q256.134 141.277 255.193 142.487Q254.252 143.697 253.714 144.683L253.714 144.683Z"/></svg>