<svg version="1.1" xmlns="http://www.w3.org/2000/svg" xmlns:xlink="http://www.w3.org/1999/xlink" width="422.23274" height="355.38338" viewBox="0,0,422.23274,355.38338"><defs><radialGradient cx="90.50434" cy="106.0455" r="13.8119" gradientUnits="userSpaceOnUse" id="color-1"><stop offset="0" stop-color="#ff0000"/><stop offset="1" stop-color="#ff9604"/></radialGradient><radialGradient cx="90.82902" cy="261.88" r="13.8119" gradientUnits="userSpaceOnUse" id="color-2"><stop offset="0" stop-color="#ff0000"/><stop offset="1" stop-color="#ff9604"/></radialGradient><radialGradient cx="398.47394" cy="103.18081" r="13.81189" gradientUnits="userSpaceOnUse" id="color-3"><stop offset="0" stop-color="#ff0000"/><stop offset="1" stop-color="#ff9604"/></radialGradient><radialGradient cx="398.14924" cy="259.01532" r="13.81189" gradientUnits="userSpaceOnUse" id="color-4"><stop offset="0" stop-color="#ff0000"/><stop offset="1" stop-color="#ff9604"/></radialGradient><radialGradient cx="393.91357" cy="182.4595" r="16.9265" gradientUnits="userSpaceOnUse" id="color-5"><stop offset="0" stop-color="#ff0000"/><stop offset="1" stop-color="#ff9604"/></radialGradient><radialGradient cx="94.46323" cy="182.55313" r="16.92649" gradientUnits="userSpaceOnUse" id="color-6"><stop offset="0" stop-color="#ff0000"/><stop offset="1" stop-color="#ff9604"/></radialGradient></defs><g transform="translate(-19.72798,-18.52289)"><g data-paper-data="{&quot;isPaintingLayer&quot;:true}" fill-rule="nonzero" stroke-linecap="butt" stroke-linejoin="miter" stroke-miterlimit="10" stroke-dasharray="" stroke-dashoffset="0" style="mix-blend-mode: normal"><path d="M441.12969,373.88518l-421.33536,0.02109l-0.01354,-115.15438l421.33536,-0.02109z" fill="#581800" stroke="none" stroke-width="0"/><path d="M26.64618,335.05267v-294.58098h109.79836v294.58098z" fill="#581800" stroke="none" stroke-width="NaN"/><path d="M326.77324,327.38658v-274.94225h115.15438v274.94225z" fill="#581800" stroke="none" stroke-width="0"/><path d="M19.72799,118.50189v-99.979h422.23274v99.979z" fill="#581800" stroke="none" stroke-width="NaN"/><path d="M140.9054,108.50212l3.38264,-5.00682l193.7626,0.42149v5.5545z" fill="none" stroke="#595959" stroke-width="8.5"/><path d="M137.83184,258.21128v-142.82027h191.72247v142.82028z" fill="none" stroke="#8e8e8e" stroke-width="8.5"/><path d="M340.22259,226.8518v-91.89026l10.46763,16.26041l-0.37384,57.85683z" fill="#565656" stroke="none" stroke-width="0"/><g><path d="M56.81126,79.62793v-1.71595h57.54178l1.04172,1.0614z" fill="none" stroke="#595959" stroke-width="8.5"/><path d="M56.71743,83.58329l0.25119,0.23715l-0.03034,30.19279l-0.15214,-0.21825z" fill="none" stroke="#9b9b9b" stroke-width="8.5"/><path d="M65.17091,123.08865v-36.70908h54.91621v36.70908z" fill="#720000" stroke="#8e8e8e" stroke-width="8.5"/><path d="M49.57131,102.18845l-0.11306,-14.24309l3.16575,-4.00296v22.62138z" fill="#565656" stroke="none" stroke-width="0"/><g stroke="none"><path d="M104.31623,106.0455c0,6.98641 -6.1838,12.65001 -13.8119,12.65001c-7.6281,0 -13.8119,-5.6636 -13.8119,-12.65001c0,-6.98641 6.1838,-12.65001 13.8119,-12.65001c7.6281,0 13.8119,5.6636 13.8119,12.65001z" fill="url(#color-1)" stroke-width="0"/><text transform="translate(89.76441,110.80376) scale(0.2868,0.26991)" font-size="40" xml:space="preserve" fill="#ffde00" fill-rule="nonzero" stroke="none" stroke-width="1" stroke-linecap="butt" stroke-linejoin="miter" stroke-miterlimit="10" stroke-dasharray="" stroke-dashoffset="0" font-family="Pixel" font-weight="normal" text-anchor="start" style="mix-blend-mode: normal"><tspan x="0" dy="0">!</tspan></text></g></g><path d="M57.13595,235.46244v-1.71595h57.54178l1.04172,1.06141z" fill="none" stroke="#595959" stroke-width="8.5"/><path d="M57.04212,239.4178l0.2512,0.23715l-0.03036,30.19279l-0.15214,-0.21825z" fill="none" stroke="#9b9b9b" stroke-width="8.5"/><path d="M65.49559,278.92315v-36.70908h54.9162v36.70908z" fill="#1c1b50" stroke="#8e8e8e" stroke-width="8.5"/><path d="M49.896,258.02295l-0.11306,-14.24309l3.16575,-4.00295v22.62137z" fill="#565656" stroke="none" stroke-width="0"/><g stroke="none"><path d="M104.64092,261.88c0,6.98641 -6.18381,12.65001 -13.8119,12.65001c-7.6281,0 -13.81189,-5.66361 -13.81189,-12.65001c0,-6.98641 6.1838,-12.65001 13.81189,-12.65001c7.6281,0 13.8119,5.6636 13.8119,12.65001z" fill="url(#color-2)" stroke-width="0"/><text transform="translate(90.0891,266.63826) scale(0.2868,0.26991)" font-size="40" xml:space="preserve" fill="#ffde00" fill-rule="nonzero" stroke="none" stroke-width="1" stroke-linecap="butt" stroke-linejoin="miter" stroke-miterlimit="10" stroke-dasharray="" stroke-dashoffset="0" font-family="Pixel" font-weight="normal" text-anchor="start" style="mix-blend-mode: normal"><tspan x="0" dy="0">!</tspan></text></g><g><path d="M373.5835,76.10871l1.04172,-1.06141h57.54178v1.71595z" fill="none" stroke="#595959" stroke-width="8.5"/><path d="M432.19213,110.93029l-0.15214,0.21825l-0.03035,-30.19278l0.25119,-0.23716z" fill="none" stroke="#9b9b9b" stroke-width="8.5"/><path d="M368.89115,120.22396v-36.70908h54.9162v36.70909z" fill="#246500" stroke="#8e8e8e" stroke-width="8.5"/><path d="M436.35426,103.69909v-22.62137l3.16576,4.00296l-0.11306,14.24309z" fill="#565656" stroke="none" stroke-width="0"/><g stroke="none"><path d="M398.47394,90.53081c7.62809,0 13.81189,5.66359 13.81189,12.65c0,6.98641 -6.1838,12.65001 -13.81189,12.65001c-7.62809,0 -13.8119,-5.6636 -13.8119,-12.65001c0,-6.98641 6.18381,-12.65 13.8119,-12.65z" fill="url(#color-3)" stroke-width="0"/><text transform="translate(399.21385,107.93907) rotate(-180) scale(0.2868,-0.2699)" font-size="40" xml:space="preserve" fill="#ffde00" fill-rule="nonzero" stroke="none" stroke-width="1" stroke-linecap="butt" stroke-linejoin="miter" stroke-miterlimit="10" stroke-dasharray="" stroke-dashoffset="0" font-family="Pixel" font-weight="normal" text-anchor="start" style="mix-blend-mode: normal"><tspan x="0" dy="0">!</tspan></text></g></g><path d="M373.25882,231.94321l1.04172,-1.0614h57.54178v1.71594z" fill="none" stroke="#595959" stroke-width="8.5"/><path d="M431.86744,266.7648l-0.15214,0.21825l-0.03035,-30.19279l0.25119,-0.23716z" fill="none" stroke="#9b9b9b" stroke-width="8.5"/><path d="M368.56646,276.05847v-36.70908h54.9162v36.70908z" fill="#36133d" stroke="#8e8e8e" stroke-width="8.5"/><path d="M436.02957,259.53359v-22.62136l3.16576,4.00294l-0.11306,14.24309z" fill="#565656" stroke="none" stroke-width="0"/><g stroke="none"><path d="M398.14924,246.36531c7.62809,0 13.81189,5.6636 13.81189,12.65001c0,6.98641 -6.1838,12.65002 -13.81189,12.65002c-7.62809,0 -13.81189,-5.66361 -13.81189,-12.65002c0,-6.98641 6.1838,-12.65001 13.81189,-12.65001z" fill="url(#color-4)" stroke-width="0"/><text transform="translate(398.88917,263.77358) rotate(-180) scale(0.2868,-0.2699)" font-size="40" xml:space="preserve" fill="#ffde00" fill-rule="nonzero" stroke="none" stroke-width="1" stroke-linecap="butt" stroke-linejoin="miter" stroke-miterlimit="10" stroke-dasharray="" stroke-dashoffset="0" font-family="Pixel" font-weight="normal" text-anchor="start" style="mix-blend-mode: normal"><tspan x="0" dy="0">!</tspan></text></g><path d="M337.86356,249.01231l-0.32481,-136.32022l0.6655,-0.91668l1.20139,135.11517z" fill="#9c9c9c" stroke="#9b9b9b" stroke-width="8.5"/><g><path d="M369.36365,139.18385l1.01621,-1.03989l57.58112,0.35283l-1.39913,1.98895z" fill="none" stroke="#595959" stroke-width="8.5"/><path d="M432.06646,206.5743l-0.85935,1.0746l0.08497,-62.79264l0.46734,-0.44571z" fill="none" stroke="#9b9b9b" stroke-width="8.5"/><path d="M363.64612,215.52356v-68.34955h59.30399v68.34955z" fill="#ffffff" stroke="#8e8e8e" stroke-width="8.5"/><path d="M435.68289,195.49386v-46.61965l6.01493,8.24956l-0.21481,29.35311z" fill="#565656" stroke="none" stroke-width="0"/><g stroke="none"><path d="M393.91357,166.72412c9.34824,0 16.92651,7.04495 16.92651,15.73537c0,8.69042 -7.57826,15.73538 -16.92651,15.73538c-9.34824,0 -16.92649,-7.04496 -16.92649,-15.73538c0,-8.69042 7.57824,-15.73537 16.92649,-15.73537z" fill="url(#color-5)" stroke-width="0"/><text transform="translate(394.82035,188.37832) rotate(-180) scale(0.35148,-0.33573)" font-size="40" xml:space="preserve" fill="#ffde00" fill-rule="nonzero" stroke="none" stroke-width="1" stroke-linecap="butt" stroke-linejoin="miter" stroke-miterlimit="10" stroke-dasharray="" stroke-dashoffset="0" font-family="Pixel" font-weight="normal" text-anchor="start" style="mix-blend-mode: normal"><tspan x="0" dy="0">!</tspan></text></g></g><g><path d="M61.81495,140.57937l-1.39913,-1.98895l57.58111,-0.35283l1.01622,1.03989z" data-paper-data="{&quot;index&quot;:null}" fill="none" stroke="#595959" stroke-width="8.5"/><path d="M56.61738,144.50417l0.46734,0.44572l0.08497,62.79263l-0.85935,-1.07459z" data-paper-data="{&quot;index&quot;:null}" fill="none" stroke="#9b9b9b" stroke-width="8.5"/><path d="M65.42669,215.61719v-68.34955h59.30399v68.34955z" data-paper-data="{&quot;index&quot;:null}" fill="#000000" stroke="#8e8e8e" stroke-width="8.5"/><path d="M46.8938,186.5705l-0.21481,-29.3531l6.01493,-8.24956v46.61966z" data-paper-data="{&quot;index&quot;:null}" fill="#565656" stroke="none" stroke-width="0"/><path d="M111.38972,182.55312c0,8.69042 -7.57825,15.73538 -16.92649,15.73538c-9.34825,0 -16.92651,-7.04496 -16.92651,-15.73538c0,-8.69042 7.57827,-15.73537 16.92651,-15.73537c9.34825,0 16.92649,7.04496 16.92649,15.73537z" data-paper-data="{&quot;index&quot;:null}" fill="url(#color-6)" stroke="none" stroke-width="0"/><text transform="translate(93.55645,188.47195) scale(0.35148,0.33573)" font-size="40" xml:space="preserve" data-paper-data="{&quot;index&quot;:null}" fill="#ffde00" fill-rule="nonzero" stroke="none" stroke-width="1" stroke-linecap="butt" stroke-linejoin="miter" stroke-miterlimit="10" stroke-dasharray="" stroke-dashoffset="0" font-family="Pixel" font-weight="normal" text-anchor="start" style="mix-blend-mode: normal"><tspan x="0" dy="0">!</tspan></text></g></g></g></svg>