<svg width="480px" height="360px" xmlns="http://www.w3.org/2000/svg"><rect x="216" y="124" width="80.5" height="80.5" fill-opacity="0"/><path fill="#F00" d="M244.482 148L252.459 148Q263.978 148 263.978 157.053L263.978 157.053Q263.978 161.669 260.997 164.291Q258.017 166.913 251.787 166.913L251.787 166.913L247.081 166.913L247.081 180L244.482 180L244.482 148ZM252.190 150.286L252.190 150.286L247.081 150.286L247.081 164.627L251.518 164.627Q256.134 164.627 258.711 163.014Q261.289 161.401 261.289 157.188L261.289 157.188Q261.289 153.602 259.070 151.944Q256.852 150.286 252.190 150.286Z"/></svg>