<svg width="480px" height="360px" xmlns="http://www.w3.org/2000/svg"><rect x="216" y="124" width="80.5" height="80.5" fill-opacity="0"/><path fill="#F00" d="M241.524 187.081L241.524 184.885Q244.303 184.885 245.692 183.787Q247.081 182.689 247.081 180.269L247.081 180.269L247.081 173.143Q247.081 170.857 248.090 169.445Q249.098 168.034 251.294 167.630L251.294 167.630L251.294 167.451Q249.053 167.048 248.067 165.613Q247.081 164.179 247.081 161.894L247.081 161.894L247.081 154.857Q247.081 152.392 245.692 151.294Q244.303 150.196 241.524 150.151L241.524 150.151L241.524 148Q245.423 148 247.529 149.658Q249.636 151.317 249.636 154.588L249.636 154.588L249.636 161.669Q249.636 164.269 250.891 165.345Q252.146 166.420 254.835 166.420L254.835 166.420L254.835 168.616Q252.146 168.616 250.891 169.714Q249.636 170.812 249.636 173.322L249.636 173.322L249.636 180.493Q249.636 183.765 247.485 185.423Q245.333 187.081 241.524 187.081L241.524 187.081Z"/></svg>