<svg width="480px" height="360px" xmlns="http://www.w3.org/2000/svg"><rect x="216" y="124" width="80.5" height="80.5" fill-opacity="0"/><path fill="#F00" d="M250.711 180.448L250.711 180.448Q246.768 180.448 244.908 177.490Q243.048 174.532 243.003 169.199L243.003 169.199Q242.958 164.538 244.146 161.266Q245.333 157.994 246.947 156.157L246.947 156.157L249.636 156.157Q247.709 158.308 246.633 161.557Q245.557 164.807 245.602 169.199L245.602 169.199Q245.602 173.860 246.880 176.056Q248.157 178.252 250.846 178.252L250.846 178.252Q253.042 178.252 254.521 176.571Q256 174.891 256 171.395L256 171.395L256 164.269L258.465 164.269L258.465 171.395Q258.465 175.025 259.944 176.639Q261.423 178.252 263.529 178.252L263.529 178.252Q266.308 178.252 267.585 176.011Q268.863 173.770 268.908 169.199L268.908 169.199Q268.908 164.896 267.877 161.669Q266.846 158.443 264.874 156.157L264.874 156.157L267.518 156.157Q269.176 158.084 270.342 161.311Q271.507 164.538 271.462 169.199L271.462 169.199Q271.417 174.532 269.513 177.490Q267.608 180.448 263.709 180.448L263.709 180.448Q261.289 180.448 259.585 179.171Q257.882 177.894 257.345 175.249L257.345 175.249L257.120 175.249Q256.583 177.894 254.835 179.171Q253.087 180.448 250.711 180.448Z"/></svg>