<svg width="480px" height="360px" xmlns="http://www.w3.org/2000/svg"><rect x="216" y="124" width="80.5" height="80.5" fill-opacity="0"/><path fill="#F00" d="M240.896 156.157L250.756 156.157L250.756 166.151L258.689 166.151Q263.126 166.151 265.210 167.899Q267.294 169.647 267.294 172.829L267.294 172.829Q267.294 176.190 265.143 178.095Q262.992 180 258.375 180L258.375 180L248.202 180L248.202 158.353L240.896 158.353L240.896 156.157ZM258.555 168.347L258.555 168.347L250.756 168.347L250.756 177.849L258.286 177.849Q264.739 177.849 264.739 172.919L264.739 172.919Q264.739 170.543 263.216 169.445Q261.692 168.347 258.555 168.347Z"/></svg>