<svg width="480px" height="360px" xmlns="http://www.w3.org/2000/svg"><rect x="216" y="124" width="80.5" height="80.5" fill-opacity="0"/><path fill="#F00" d="M250.980 148L264.919 148L264.919 177.625L268.370 177.625L268.370 188.112L265.860 188.112L265.860 180L242.824 180L242.824 188.112L240.314 188.112L240.314 177.625L242.644 177.625Q244.303 174.756 245.759 171.148Q247.216 167.541 248.336 163.552Q249.457 159.563 250.129 155.574Q250.801 151.585 250.980 148L250.980 148ZM262.364 150.375L253.311 150.375Q253.132 153.468 252.437 157.098Q251.742 160.728 250.689 164.448Q249.636 168.168 248.291 171.574Q246.947 174.980 245.468 177.625L245.468 177.625L262.364 177.625L262.364 150.375Z"/></svg>