<svg width="480px" height="360px" xmlns="http://www.w3.org/2000/svg"><rect x="216" y="124" width="80.5" height="80.5" fill-opacity="0"/><path fill="#F00" d="M264.022 162.880L264.022 162.880Q264.022 167.361 261.087 170.006Q258.151 172.650 251.742 172.650L251.742 172.650L247.081 172.650L247.081 180L244.482 180L244.482 148L247.081 148L247.081 153.737L252.639 153.737Q258.510 153.737 261.266 156.022Q264.022 158.308 264.022 162.880ZM247.081 170.364L251.473 170.364Q256.224 170.364 258.779 168.728Q261.333 167.092 261.333 162.969L261.333 162.969Q261.333 159.339 259.182 157.681Q257.031 156.022 252.325 156.022L252.325 156.022L247.081 156.022L247.081 170.364Z"/></svg>