<svg width="480px" height="360px" xmlns="http://www.w3.org/2000/svg"><rect x="216" y="124" width="80.5" height="80.5" fill-opacity="0"/><path fill="#F00" d="M263.888 168.034L263.888 168.034Q263.888 171.798 262.655 174.577Q261.423 177.356 259.025 178.902Q256.627 180.448 253.176 180.448L253.176 180.448Q251.160 180.448 249.569 179.888Q247.978 179.328 246.723 178.252L246.723 178.252L244.347 181.345L242.644 180.090L245.199 176.818Q242.555 173.457 242.555 168.034L242.555 168.034Q242.555 162.252 245.423 158.980Q248.291 155.709 253.356 155.709L253.356 155.709Q255.283 155.709 256.852 156.246Q258.420 156.784 259.630 157.725L259.630 157.725L261.826 154.857L263.574 156.067L261.199 159.160Q263.888 162.521 263.888 168.034ZM245.199 168.034L245.199 168.034Q245.199 170.050 245.557 171.731Q245.916 173.412 246.678 174.711L246.678 174.711L258.241 159.608Q257.345 158.801 256.112 158.353Q254.880 157.905 253.311 157.905L253.311 157.905Q249.277 157.905 247.238 160.594Q245.199 163.283 245.199 168.034ZM261.244 168.034L261.244 168.034Q261.244 166.017 260.863 164.291Q260.482 162.566 259.675 161.266L259.675 161.266L248.112 176.415Q249.008 177.266 250.308 177.759Q251.608 178.252 253.221 178.252L253.221 178.252Q257.389 178.252 259.317 175.429Q261.244 172.605 261.244 168.034Z"/></svg>