<svg width="480px" height="360px" xmlns="http://www.w3.org/2000/svg"><rect x="216" y="124" width="80.5" height="80.5" fill-opacity="0"/><path fill="#F00" d="M262.050 177.669L262.050 180L244.482 180L244.482 148L262.050 148L262.050 150.331L247.081 150.331L247.081 162.028L261.199 162.028L261.199 164.359L247.081 164.359L247.081 177.669L262.050 177.669ZM259.810 137.513L259.810 137.871Q259.137 138.812 258.039 140.067Q256.941 141.322 255.686 142.555Q254.431 143.787 253.311 144.683L253.311 144.683L251.518 144.683L251.518 144.280Q252.370 143.429 253.356 142.218Q254.342 141.008 255.261 139.754Q256.179 138.499 256.762 137.513L256.762 137.513L259.810 137.513Z"/></svg>