<svg width="480px" height="360px" xmlns="http://www.w3.org/2000/svg"><rect x="216" y="124" width="80.5" height="80.5" fill-opacity="0"/><path fill="#F00" d="M254.611 155.709L254.611 155.709Q258.689 155.709 260.840 157.815Q262.992 159.922 262.992 164.403L262.992 164.403L262.992 180L260.482 180L260.482 164.583Q260.482 161.176 258.913 159.541Q257.345 157.905 254.342 157.905L254.342 157.905Q246.499 157.905 246.499 167.003L246.499 167.003L246.499 180L243.944 180L243.944 156.157L246.006 156.157L246.364 160.280L246.543 160.280Q247.485 158.308 249.546 157.008Q251.608 155.709 254.611 155.709ZM259.496 145.669L259.496 146.028Q258.824 146.969 257.725 148.224Q256.627 149.479 255.373 150.711Q254.118 151.944 252.997 152.840L252.997 152.840L251.204 152.840L251.204 152.437Q252.056 151.585 253.042 150.375Q254.028 149.165 254.947 147.910Q255.866 146.655 256.448 145.669L256.448 145.669L259.496 145.669Z"/></svg>