<svg width="480px" height="360px" xmlns="http://www.w3.org/2000/svg"><rect x="216" y="124" width="80.5" height="80.5" fill-opacity="0"/><path fill="#F00" d="M265.770 148L265.770 180L263.171 180L263.171 166.241Q260.796 167.227 258.443 167.832Q256.090 168.437 253.132 168.437L253.132 168.437Q248.560 168.437 246.230 166.375Q243.899 164.314 243.899 160.459L243.899 160.459L243.899 148L246.499 148L246.499 160.056Q246.499 163.014 248.090 164.560Q249.681 166.106 253.356 166.106L253.356 166.106Q256.179 166.106 258.443 165.569Q260.706 165.031 263.171 164.045L263.171 164.045L263.171 148L265.770 148Z"/></svg>