<svg width="480px" height="360px" xmlns="http://www.w3.org/2000/svg"><rect x="216" y="124" width="80.5" height="80.5" fill-opacity="0"/><path fill="#F00" d="M267.249 180L264.515 180L260.258 168.975L246.992 168.975L242.689 180L240 180L252.594 147.866L254.969 147.866L267.249 180ZM259.451 166.599L255.193 155.081Q254.924 154.454 254.476 153.109Q254.028 151.765 253.714 150.734L253.714 150.734Q253.356 151.944 252.952 153.109Q252.549 154.275 252.280 155.126L252.280 155.126L247.843 166.599L259.451 166.599ZM253.669 149.434L253.669 149.434Q251.653 149.434 250.308 148.202Q248.964 146.969 248.964 144.818L248.964 144.818Q248.964 142.756 250.308 141.501Q251.653 140.246 253.669 140.246L253.669 140.246Q255.641 140.246 257.031 141.524Q258.420 142.801 258.420 144.818L258.420 144.818Q258.420 146.969 257.053 148.202Q255.686 149.434 253.669 149.434ZM253.669 147.776L253.669 147.776Q254.969 147.776 255.798 146.947Q256.627 146.118 256.627 144.818L256.627 144.818Q256.627 143.563 255.754 142.711Q254.880 141.860 253.669 141.860L253.669 141.860Q252.415 141.860 251.563 142.711Q250.711 143.563 250.711 144.818L250.711 144.818Q250.711 146.118 251.518 146.947Q252.325 147.776 253.669 147.776Z"/></svg>