<svg width="480px" height="360px" xmlns="http://www.w3.org/2000/svg"><rect x="216" y="124" width="80.5" height="80.5" fill-opacity="0"/><path fill="#F00" d="M260.258 180.403L260.258 180.403Q259.003 180.403 258.241 179.754Q257.479 179.104 256.941 177.580L256.941 177.580L252.325 164.269Q251.877 162.924 251.339 161.333Q250.801 159.742 250.487 158.577L250.487 158.577L250.353 158.577Q250.039 159.787 249.569 161.244Q249.098 162.700 248.650 164L248.650 164L242.913 180L240.224 180L249.232 155.933L247.843 151.944Q247.081 149.882 245.961 148.874Q244.840 147.866 242.824 147.866L242.824 147.866Q242.017 147.866 241.412 148Q240.807 148.134 240.359 148.269L240.359 148.269L240.359 146.118Q240.896 145.938 241.569 145.826Q242.241 145.714 243.092 145.714L243.092 145.714Q245.961 145.714 247.619 147.171Q249.277 148.627 250.398 151.720L250.398 151.720L259.182 176.370Q259.585 177.490 260.011 177.849Q260.437 178.207 261.020 178.207L261.020 178.207Q261.333 178.207 261.647 178.140Q261.961 178.073 262.185 178.028L262.185 178.028L262.185 180Q261.782 180.179 261.333 180.291Q260.885 180.403 260.258 180.403Z"/></svg>