<svg width="480px" height="360px" xmlns="http://www.w3.org/2000/svg"><rect x="216" y="124" width="80.5" height="80.5" fill-opacity="0"/><path fill="#F00" d="M253.490 180.448L253.490 180.448Q248.246 180.448 245.401 177.221Q242.555 173.994 242.555 168.213L242.555 168.213Q242.555 164.179 243.989 161.401Q245.423 158.622 248 157.165Q250.577 155.709 254.028 155.709L254.028 155.709Q255.731 155.709 257.255 156.022Q258.779 156.336 259.944 156.874L259.944 156.874L259.227 159.070Q258.017 158.577 256.627 158.286Q255.238 157.994 253.983 157.994L253.983 157.994Q249.725 157.994 247.462 160.728Q245.199 163.462 245.199 168.168L245.199 168.168Q245.199 172.650 247.216 175.406Q249.232 178.162 253.490 178.162L253.490 178.162Q255.238 178.162 256.807 177.804Q258.375 177.445 259.630 176.908L259.630 176.908L259.630 179.193Q258.465 179.776 256.964 180.112Q255.462 180.448 253.490 180.448ZM254.476 152.840L251.966 152.840Q251.384 151.854 250.443 150.644Q249.501 149.434 248.471 148.246Q247.440 147.059 246.633 146.162L246.633 146.162L246.633 145.714L248.471 145.714Q249.681 146.745 250.913 148.045Q252.146 149.345 253.176 150.599L253.176 150.599Q254.252 149.345 255.529 148.045Q256.807 146.745 258.017 145.714L258.017 145.714L259.854 145.714L259.854 146.162Q259.003 147.059 257.950 148.246Q256.896 149.434 255.955 150.644Q255.014 151.854 254.476 152.840L254.476 152.840Z"/></svg>