<svg width="480px" height="360px" xmlns="http://www.w3.org/2000/svg"><rect x="216" y="124" width="80.5" height="80.5" fill-opacity="0"/><path fill="#F00" d="M252.504 180.448L252.504 180.448Q247.709 180.448 245.132 177.378Q242.555 174.308 242.555 168.303L242.555 168.303Q242.555 162.162 245.244 158.936Q247.933 155.709 252.728 155.709L252.728 155.709Q255.731 155.709 257.591 157.031Q259.451 158.353 260.392 160.235L260.392 160.235L260.571 160.235Q260.527 159.204 260.459 157.927Q260.392 156.650 260.392 155.574L260.392 155.574L260.392 145.938L262.947 145.938L262.947 180L260.885 180L260.527 175.832L260.392 175.832Q259.451 177.759 257.569 179.104Q255.686 180.448 252.504 180.448ZM252.818 178.252L252.818 178.252Q256.941 178.252 258.689 175.742Q260.437 173.232 260.437 168.482L260.437 168.482L260.437 168.078Q260.437 163.148 258.711 160.527Q256.986 157.905 252.997 157.905L252.997 157.905Q249.143 157.905 247.171 160.616Q245.199 163.328 245.199 168.347L245.199 168.347Q245.199 173.188 247.081 175.720Q248.964 178.252 252.818 178.252Z"/></svg>