<svg width="480px" height="360px" xmlns="http://www.w3.org/2000/svg"><rect x="216" y="124" width="80.5" height="80.5" fill-opacity="0"/><path fill="#F00" d="M262.050 177.669L262.050 180L244.482 180L244.482 148L262.050 148L262.050 150.331L247.081 150.331L247.081 162.028L261.199 162.028L261.199 164.359L247.081 164.359L247.081 177.669L262.050 177.669ZM257.345 185.513L257.345 185.513Q257.345 187.888 259.675 187.888L259.675 187.888Q260.347 187.888 260.885 187.798Q261.423 187.709 261.826 187.619L261.826 187.619L261.826 189.412Q261.289 189.546 260.683 189.658Q260.078 189.770 259.317 189.770L259.317 189.770Q257.345 189.770 256.246 188.762Q255.148 187.754 255.148 185.826L255.148 185.826Q255.148 184.078 256.381 182.420Q257.613 180.762 259.451 179.417L259.451 179.417L260.930 180Q259.406 181.345 258.375 182.667Q257.345 183.989 257.345 185.513Z"/></svg>