<svg width="480px" height="360px" xmlns="http://www.w3.org/2000/svg"><rect x="216" y="124" width="80.5" height="80.5" fill-opacity="0"/><path fill="#F00" d="M253.625 147.507L253.625 147.507Q256.941 147.507 258.980 149.277Q261.020 151.048 261.020 154.185L261.020 154.185Q261.020 157.143 259.048 159.092Q257.076 161.042 253.983 162.700L253.983 162.700L263.754 172.381Q265.008 170.902 265.905 168.930Q266.801 166.958 267.339 164.627L267.339 164.627L269.938 164.627Q268.549 170.319 265.412 174.084L265.412 174.084L271.328 180L267.877 180L263.709 175.742Q261.602 177.849 259.003 179.148Q256.403 180.448 252.549 180.448L252.549 180.448Q248.067 180.448 245.333 178.207Q242.599 175.966 242.599 171.798L242.599 171.798Q242.599 169.423 243.496 167.742Q244.392 166.062 246.095 164.784Q247.798 163.507 250.174 162.252L250.174 162.252Q248.246 160.280 247.036 158.510Q245.826 156.739 245.826 154.319L245.826 154.319Q245.826 151.182 247.955 149.345Q250.084 147.507 253.625 147.507ZM253.580 149.658L253.580 149.658Q251.160 149.658 249.748 150.913Q248.336 152.168 248.336 154.319L248.336 154.319Q248.336 156.157 249.367 157.681Q250.398 159.204 252.325 161.132L252.325 161.132Q255.328 159.653 256.896 158.062Q258.465 156.471 258.465 154.185L258.465 154.185Q258.465 152.123 257.120 150.891Q255.776 149.658 253.580 149.658ZM262.050 174.129L251.742 163.910Q249.681 164.986 248.224 166.039Q246.768 167.092 246.028 168.437Q245.289 169.782 245.289 171.754L245.289 171.754Q245.289 174.756 247.283 176.437Q249.277 178.118 252.594 178.118L252.594 178.118Q255.866 178.118 258.084 177.020Q260.303 175.922 262.050 174.129L262.050 174.129Z"/></svg>