<svg width="480px" height="360px" xmlns="http://www.w3.org/2000/svg"><rect x="216" y="124" width="80.5" height="80.5" fill-opacity="0"/><path fill="#F00" d="M264.022 177.625L264.022 180L241.658 180L241.658 178.073L260.258 150.331L242.555 150.331L242.555 148L263.529 148L263.529 149.927L244.930 177.625L264.022 177.625ZM259.092 137.513L259.092 137.871Q258.420 138.812 257.322 140.067Q256.224 141.322 254.969 142.555Q253.714 143.787 252.594 144.683L252.594 144.683L250.801 144.683L250.801 144.280Q251.653 143.429 252.639 142.218Q253.625 141.008 254.543 139.754Q255.462 138.499 256.045 137.513L256.045 137.513L259.092 137.513Z"/></svg>