<svg width="480px" height="360px" xmlns="http://www.w3.org/2000/svg"><rect x="216" y="124" width="80.5" height="80.5" fill-opacity="0"/><path fill="#F00" d="M252.370 165.165L252.370 165.165Q250.936 164.538 249.882 164.202Q248.829 163.866 247.574 163.866L247.574 163.866Q244.840 163.866 242.375 166.420L242.375 166.420L242.375 164Q244.571 161.714 247.709 161.714L247.709 161.714Q249.277 161.714 250.487 162.073Q251.697 162.431 253.401 163.193L253.401 163.193Q254.790 163.866 255.843 164.179Q256.896 164.493 258.062 164.493L258.062 164.493Q259.317 164.493 260.661 163.866Q262.006 163.238 263.216 161.938L263.216 161.938L263.216 164.314Q262.230 165.389 260.908 166.017Q259.585 166.644 257.972 166.644L257.972 166.644Q256.493 166.644 255.261 166.308Q254.028 165.972 252.370 165.165Z"/></svg>