<svg width="480px" height="360px" xmlns="http://www.w3.org/2000/svg"><rect x="216" y="124" width="80.5" height="80.5" fill-opacity="0"/><path fill="#F00" d="M262.230 155.529L262.230 155.529Q262.230 158.891 260.370 160.728Q258.510 162.566 255.507 163.193L255.507 163.193L255.507 163.328Q259.048 163.955 260.952 165.882Q262.857 167.810 262.857 171.081L262.857 171.081Q262.857 175.339 259.832 177.894Q256.807 180.448 251.025 180.448L251.025 180.448Q248.336 180.448 245.983 179.978Q243.630 179.507 241.793 178.566L241.793 178.566L241.793 176.056Q243.675 177.087 246.162 177.647Q248.650 178.207 250.980 178.207L250.980 178.207Q255.417 178.207 257.770 176.347Q260.123 174.487 260.123 171.081L260.123 171.081Q260.123 167.675 257.591 166.084Q255.059 164.493 250.218 164.493L250.218 164.493L245.513 164.493L245.513 162.252L250.308 162.252Q254.924 162.252 257.232 160.549Q259.541 158.846 259.541 155.754L259.541 155.754Q259.541 152.930 257.546 151.339Q255.552 149.748 252.325 149.748L252.325 149.748Q249.322 149.748 247.305 150.577Q245.289 151.406 243.361 152.706L243.361 152.706L242.062 150.868Q243.989 149.479 246.499 148.515Q249.008 147.552 252.325 147.552L252.325 147.552Q257.031 147.552 259.630 149.770Q262.230 151.989 262.230 155.529Z"/></svg>