<svg width="480px" height="360px" xmlns="http://www.w3.org/2000/svg"><rect x="216" y="124" width="80.5" height="80.5" fill-opacity="0"/><path fill="#F00" d="M256.538 190.577L254.028 190.577L254.028 180.359Q248.695 180.045 245.625 176.796Q242.555 173.546 242.555 168.034L242.555 168.034Q242.555 162.611 245.557 159.384Q248.560 156.157 254.028 155.798L254.028 155.798L254.028 145.938L256.538 145.938L256.538 155.798Q261.871 156.157 264.941 159.384Q268.011 162.611 268.011 168.034L268.011 168.034Q268.011 173.322 264.986 176.639Q261.961 179.955 256.538 180.359L256.538 180.359L256.538 190.577ZM254.028 178.207L254.028 178.207L254.028 157.950Q249.591 158.218 247.417 160.885Q245.244 163.552 245.244 168.034L245.244 168.034Q245.244 172.695 247.417 175.317Q249.591 177.938 254.028 178.207ZM256.538 157.950L256.538 178.207Q260.885 177.894 263.126 175.182Q265.367 172.471 265.367 168.034L265.367 168.034Q265.367 163.507 263.148 160.908Q260.930 158.308 256.538 157.950L256.538 157.950Z"/></svg>