<svg width="480px" height="360px" xmlns="http://www.w3.org/2000/svg"><rect x="216" y="124" width="80.5" height="80.5" fill-opacity="0"/><path fill="#F00" d="M271.597 163.955L271.597 163.955Q271.597 168.840 269.983 172.560Q268.370 176.280 265.165 178.364Q261.961 180.448 257.210 180.448L257.210 180.448Q252.370 180.448 249.165 178.364Q245.961 176.280 244.370 172.538Q242.779 168.796 242.779 163.910L242.779 163.910Q242.779 159.025 244.415 155.350Q246.050 151.675 249.300 149.591Q252.549 147.507 257.345 147.507L257.345 147.507Q261.961 147.507 265.143 149.501Q268.325 151.496 269.961 155.171Q271.597 158.846 271.597 163.955ZM245.513 163.910L245.513 163.910Q245.513 168.168 246.768 171.373Q248.022 174.577 250.622 176.347Q253.221 178.118 257.210 178.118L257.210 178.118Q261.244 178.118 263.821 176.370Q266.398 174.622 267.630 171.417Q268.863 168.213 268.863 163.955L268.863 163.955Q268.863 157.277 265.972 153.557Q263.081 149.838 257.345 149.838L257.345 149.838Q253.356 149.838 250.711 151.608Q248.067 153.378 246.790 156.538Q245.513 159.697 245.513 163.910ZM251.204 144.415L249.501 144.415Q249.725 141.994 250.891 140.672Q252.056 139.350 253.983 139.350L253.983 139.350Q255.014 139.350 255.888 139.798Q256.762 140.246 257.546 140.829Q258.331 141.412 259.092 141.860Q259.854 142.308 260.661 142.308L260.661 142.308Q261.647 142.308 262.364 141.658Q263.081 141.008 263.350 139.305L263.350 139.305L265.008 139.305Q264.784 141.725 263.597 143.070Q262.409 144.415 260.527 144.415L260.527 144.415Q259.496 144.415 258.622 143.966Q257.748 143.518 256.986 142.936Q256.224 142.353 255.462 141.905Q254.700 141.457 253.849 141.457L253.849 141.457Q252.818 141.457 252.146 142.106Q251.473 142.756 251.204 144.415L251.204 144.415Z"/></svg>