<svg width="480px" height="360px" xmlns="http://www.w3.org/2000/svg"><rect x="216" y="124" width="80.5" height="80.5" fill-opacity="0"/><path fill="#F00" d="M239.507 188.157L239.507 188.157Q238.342 188.157 237.490 188Q236.639 187.843 236.056 187.574L236.056 187.574L236.056 185.244Q236.728 185.513 237.602 185.647Q238.476 185.782 239.462 185.782L239.462 185.782Q244.437 185.782 244.437 179.776L244.437 179.776L244.437 148L247.036 148L247.036 179.686Q247.036 183.675 245.154 185.916Q243.272 188.157 239.507 188.157ZM244.527 137.557L247.036 137.557Q247.574 138.543 248.515 139.776Q249.457 141.008 250.487 142.218Q251.518 143.429 252.370 144.280L252.370 144.280L252.370 144.683L250.532 144.683Q249.322 143.697 248.067 142.398Q246.812 141.098 245.737 139.843L245.737 139.843Q244.661 141.098 243.429 142.398Q242.196 143.697 240.986 144.683L240.986 144.683L239.148 144.683L239.148 144.280Q240 143.384 241.031 142.196Q242.062 141.008 243.003 139.776Q243.944 138.543 244.527 137.557L244.527 137.557Z"/></svg>