<svg width="480px" height="360px" xmlns="http://www.w3.org/2000/svg"><rect x="216" y="124" width="80.5" height="80.5" fill-opacity="0"/><path fill="#F00" d="M242.868 148L252.011 165.120L261.154 148L264.022 148L253.356 167.630L253.356 180L250.756 180L250.756 167.810L240 148L242.868 148ZM250.801 137.557L253.311 137.557Q253.849 138.543 254.790 139.776Q255.731 141.008 256.762 142.218Q257.793 143.429 258.644 144.280L258.644 144.280L258.644 144.683L256.807 144.683Q255.597 143.697 254.342 142.398Q253.087 141.098 252.011 139.843L252.011 139.843Q250.936 141.098 249.703 142.398Q248.471 143.697 247.261 144.683L247.261 144.683L245.423 144.683L245.423 144.280Q246.275 143.384 247.305 142.196Q248.336 141.008 249.277 139.776Q250.218 138.543 250.801 137.557L250.801 137.557Z"/></svg>