<svg width="480px" height="360px" xmlns="http://www.w3.org/2000/svg"><rect x="216" y="124" width="80.5" height="80.5" fill-opacity="0"/><path fill="#F00" d="M260.168 156.157L262.723 156.157L262.723 180L260.661 180L260.258 175.922L260.123 175.922Q259.137 177.894 257.098 179.171Q255.059 180.448 252.011 180.448L252.011 180.448Q243.630 180.448 243.630 171.754L243.630 171.754L243.630 156.157L246.185 156.157L246.185 171.529Q246.185 174.980 247.731 176.616Q249.277 178.252 252.325 178.252L252.325 178.252Q260.168 178.252 260.168 169.154L260.168 169.154L260.168 156.157ZM257.793 147.328L259.585 147.328Q259.317 149.882 257.725 151.361Q256.134 152.840 253.311 152.840L253.311 152.840Q250.398 152.840 248.852 151.384Q247.305 149.927 247.126 147.328L247.126 147.328L248.919 147.328Q249.098 149.120 250.196 149.905Q251.294 150.689 253.356 150.689L253.356 150.689Q255.283 150.689 256.426 149.882Q257.569 149.076 257.793 147.328L257.793 147.328Z"/></svg>