<svg width="480px" height="360px" xmlns="http://www.w3.org/2000/svg"><rect x="216" y="124" width="80.5" height="80.5" fill-opacity="0"/><path fill="#F00" d="M258.644 180.403L258.644 180.403Q255.059 180.403 252.056 179.148Q249.053 177.894 246.857 175.675Q244.661 173.457 243.451 170.454Q242.241 167.451 242.241 164L242.241 164Q242.241 160.459 243.473 157.457Q244.706 154.454 246.969 152.258Q249.232 150.062 252.213 148.829Q255.193 147.597 258.644 147.597L258.644 147.597Q262.140 147.597 265.120 148.874Q268.101 150.151 270.342 152.415Q272.583 154.678 273.838 157.658Q275.092 160.639 275.092 164L275.092 164Q275.092 167.496 273.838 170.476Q272.583 173.457 270.342 175.675Q268.101 177.894 265.120 179.148Q262.140 180.403 258.644 180.403ZM258.644 178.655L258.644 178.655Q261.737 178.655 264.381 177.535Q267.025 176.415 268.997 174.398Q270.969 172.381 272.090 169.714Q273.210 167.048 273.210 164L273.210 164Q273.210 160.997 272.134 158.353Q271.059 155.709 269.087 153.669Q267.115 151.630 264.471 150.487Q261.826 149.345 258.644 149.345L258.644 149.345Q255.507 149.345 252.863 150.443Q250.218 151.541 248.224 153.535Q246.230 155.529 245.154 158.196Q244.078 160.863 244.078 164L244.078 164Q244.078 167.003 245.132 169.647Q246.185 172.291 248.134 174.331Q250.084 176.370 252.751 177.513Q255.417 178.655 258.644 178.655ZM259.406 173.815L259.406 173.815Q255.104 173.815 252.751 171.261Q250.398 168.706 250.398 164L250.398 164Q250.398 161.087 251.518 158.868Q252.639 156.650 254.700 155.417Q256.762 154.185 259.585 154.185L259.585 154.185Q261.244 154.185 262.611 154.521Q263.978 154.857 265.188 155.440L265.188 155.440L264.291 157.322Q263.216 156.784 262.073 156.493Q260.930 156.202 259.630 156.202L259.630 156.202Q256.493 156.202 254.633 158.308Q252.773 160.415 252.773 164L252.773 164Q252.773 167.854 254.543 169.826Q256.314 171.798 259.496 171.798L259.496 171.798Q260.796 171.798 262.006 171.552Q263.216 171.305 264.426 170.812L264.426 170.812L264.426 172.784Q263.305 173.277 262.140 173.546Q260.975 173.815 259.406 173.815Z"/></svg>