<svg width="480px" height="360px" xmlns="http://www.w3.org/2000/svg"><rect x="216" y="124" width="80.5" height="80.5" fill-opacity="0"/><path fill="#F00" d="M246.812 164.045L246.812 164.045Q245.468 164.045 244.213 163.754Q242.958 163.462 242.062 163.059L242.062 163.059L242.062 161.266Q243.137 161.714 244.347 162.050Q245.557 162.387 246.947 162.387L246.947 162.387Q248.829 162.387 249.838 161.669Q250.846 160.952 250.846 159.653L250.846 159.653Q250.846 158.443 249.927 157.793Q249.008 157.143 247.036 156.336L247.036 156.336Q245.826 155.843 244.728 155.305Q243.630 154.768 242.958 153.916Q242.286 153.064 242.286 151.675L242.286 151.675Q242.286 149.524 243.854 148.560Q245.423 147.597 247.843 147.597L247.843 147.597Q250.308 147.597 252.459 148.627L252.459 148.627L251.832 150.196Q250.980 149.748 249.927 149.457Q248.874 149.165 247.709 149.165L247.709 149.165Q244.213 149.165 244.213 151.630L244.213 151.630Q244.213 152.930 245.154 153.535Q246.095 154.140 248.112 154.902L248.112 154.902Q250.308 155.798 251.563 156.695Q252.818 157.591 252.818 159.518L252.818 159.518Q252.818 161.669 251.227 162.857Q249.636 164.045 246.812 164.045ZM257.927 163.776L256 163.776L256 148L259.003 148L263.709 161.087L268.594 148L271.417 148L271.417 163.776L269.401 163.776L269.401 155.036Q269.401 154.050 269.423 152.908Q269.445 151.765 269.490 150.779L269.490 150.779L269.356 150.779L264.471 163.776L262.723 163.776L257.972 150.689L257.838 150.689Q257.882 151.720 257.905 152.796Q257.927 153.871 257.927 154.812L257.927 154.812L257.927 163.776Z"/></svg>