<svg width="480px" height="360px" xmlns="http://www.w3.org/2000/svg"><rect x="216" y="124" width="80.5" height="80.5" fill-opacity="0"/><path fill="#F00" d="M253.490 180.448L253.490 180.448Q248.246 180.448 245.401 177.221Q242.555 173.994 242.555 168.213L242.555 168.213Q242.555 164.179 243.989 161.401Q245.423 158.622 248 157.165Q250.577 155.709 254.028 155.709L254.028 155.709Q255.731 155.709 257.255 156.022Q258.779 156.336 259.944 156.874L259.944 156.874L259.227 159.070Q258.017 158.577 256.627 158.286Q255.238 157.994 253.983 157.994L253.983 157.994Q249.725 157.994 247.462 160.728Q245.199 163.462 245.199 168.168L245.199 168.168Q245.199 172.650 247.216 175.406Q249.232 178.162 253.490 178.162L253.490 178.162Q255.238 178.162 256.807 177.804Q258.375 177.445 259.630 176.908L259.630 176.908L259.630 179.193Q258.465 179.776 256.964 180.112Q255.462 180.448 253.490 180.448ZM252.011 145.714L254.521 145.714Q255.059 146.700 256 147.933Q256.941 149.165 257.972 150.375Q259.003 151.585 259.854 152.437L259.854 152.437L259.854 152.840L258.017 152.840Q256.807 151.854 255.552 150.555Q254.297 149.255 253.221 148L253.221 148Q252.146 149.255 250.913 150.555Q249.681 151.854 248.471 152.840L248.471 152.840L246.633 152.840L246.633 152.437Q247.485 151.541 248.515 150.353Q249.546 149.165 250.487 147.933Q251.429 146.700 252.011 145.714L252.011 145.714Z"/></svg>