<svg width="480px" height="360px" xmlns="http://www.w3.org/2000/svg"><rect x="216" y="124" width="80.5" height="80.5" fill-opacity="0"/><path fill="#F00" d="M253.804 174.801L254.073 175.249Q253.580 177.804 252.594 180.605Q251.608 183.406 250.532 185.782L250.532 185.782L248.695 185.782Q249.232 184.168 249.748 182.218Q250.263 180.269 250.644 178.319Q251.025 176.370 251.249 174.801L251.249 174.801L253.804 174.801ZM246.543 174.801L246.857 175.249Q246.319 177.804 245.356 180.605Q244.392 183.406 243.317 185.782L243.317 185.782L241.479 185.782Q242.062 184.168 242.555 182.218Q243.048 180.269 243.429 178.319Q243.810 176.370 243.989 174.801L243.989 174.801L246.543 174.801Z"/></svg>