<svg width="480px" height="360px" xmlns="http://www.w3.org/2000/svg"><rect x="216" y="124" width="80.5" height="80.5" fill-opacity="0"/><path fill="#F00" d="M258.734 146.566L261.154 146.566Q260.751 152.840 253.669 152.840L253.669 152.840Q250.084 152.840 248.336 151.317Q246.588 149.793 246.409 146.566L246.409 146.566L248.829 146.566Q249.008 148.986 250.151 149.972Q251.294 150.958 253.714 150.958L253.714 150.958Q256 150.958 257.255 149.972Q258.510 148.986 258.734 146.566L258.734 146.566ZM246.409 156.157L246.409 172.739Q246.409 173.725 246.342 174.980Q246.275 176.235 246.230 177.221L246.230 177.221L260.168 156.157L263.305 156.157L263.305 180L260.885 180L260.885 163.373Q260.885 162.387 260.908 161.109Q260.930 159.832 261.020 158.891L261.020 158.891L247.036 180L243.944 180L243.944 156.157L246.409 156.157Z"/></svg>