<svg width="480px" height="360px" xmlns="http://www.w3.org/2000/svg"><rect x="216" y="124" width="80.5" height="80.5" fill-opacity="0"/><path fill="#F00" d="M258.958 173.681L258.958 173.681Q258.958 176.908 256.538 178.678Q254.118 180.448 249.725 180.448L249.725 180.448Q247.216 180.448 245.289 180.022Q243.361 179.597 242.062 178.924L242.062 178.924L242.062 176.459Q243.630 177.266 245.647 177.782Q247.664 178.297 249.770 178.297L249.770 178.297Q253.266 178.297 254.857 177.109Q256.448 175.922 256.448 173.860L256.448 173.860Q256.448 171.888 254.790 170.835Q253.132 169.782 249.905 168.661L249.905 168.661Q247.664 167.899 245.983 167.115Q244.303 166.331 243.361 165.120Q242.420 163.910 242.420 161.804L242.420 161.804Q242.420 158.936 244.751 157.322Q247.081 155.709 250.980 155.709L250.980 155.709Q253.132 155.709 254.992 156.112Q256.852 156.515 258.420 157.188L258.420 157.188L257.479 159.294Q256.090 158.711 254.342 158.286Q252.594 157.860 250.846 157.860L250.846 157.860Q248.022 157.860 246.454 158.846Q244.885 159.832 244.885 161.714L244.885 161.714Q244.885 163.148 245.647 163.978Q246.409 164.807 247.843 165.389Q249.277 165.972 251.339 166.689L251.339 166.689Q253.490 167.451 255.193 168.258Q256.896 169.064 257.927 170.319Q258.958 171.574 258.958 173.681ZM254.655 186.364L254.655 186.364Q254.655 188.426 253.109 189.591Q251.563 190.756 248.829 190.756L248.829 190.756Q247.305 190.756 246.409 190.487L246.409 190.487L246.409 188.739Q247.305 188.964 248.874 188.964L248.874 188.964Q250.532 188.964 251.518 188.359Q252.504 187.754 252.504 186.409L252.504 186.409Q252.504 185.154 251.361 184.549Q250.218 183.944 248.157 183.810L248.157 183.810L250.129 180L251.966 180L250.667 182.644Q252.415 182.868 253.535 183.787Q254.655 184.706 254.655 186.364Z"/></svg>