<svg width="480px" height="360px" xmlns="http://www.w3.org/2000/svg"><rect x="216" y="124" width="80.5" height="80.5" fill-opacity="0"/><path fill="#F00" d="M260.168 156.157L262.723 156.157L262.723 180L260.661 180L260.258 175.922L260.123 175.922Q259.137 177.894 257.098 179.171Q255.059 180.448 252.011 180.448L252.011 180.448Q243.630 180.448 243.630 171.754L243.630 171.754L243.630 156.157L246.185 156.157L246.185 171.529Q246.185 174.980 247.731 176.616Q249.277 178.252 252.325 178.252L252.325 178.252Q260.168 178.252 260.168 169.154L260.168 169.154L260.168 156.157ZM252.146 145.714L254.655 145.714Q255.193 146.700 256.134 147.933Q257.076 149.165 258.106 150.375Q259.137 151.585 259.989 152.437L259.989 152.437L259.989 152.840L258.151 152.840Q256.941 151.854 255.686 150.555Q254.431 149.255 253.356 148L253.356 148Q252.280 149.255 251.048 150.555Q249.815 151.854 248.605 152.840L248.605 152.840L246.768 152.840L246.768 152.437Q247.619 151.541 248.650 150.353Q249.681 149.165 250.622 147.933Q251.563 146.700 252.146 145.714L252.146 145.714Z"/></svg>