<svg width="480px" height="360px" xmlns="http://www.w3.org/2000/svg"><rect x="216" y="124" width="80.5" height="80.5" fill-opacity="0"/><path fill="#F00" d="M269.087 163.686L269.087 163.686Q269.087 171.754 264.807 175.877Q260.527 180 252.415 180L252.415 180L244.482 180L244.482 148L253.401 148Q260.975 148 265.031 152.011Q269.087 156.022 269.087 163.686ZM266.353 163.776L266.353 163.776Q266.353 150.286 252.863 150.286L252.863 150.286L247.081 150.286L247.081 177.714L252.190 177.714Q266.353 177.714 266.353 163.776ZM257.076 144.683L254.566 144.683Q253.983 143.697 253.042 142.487Q252.101 141.277 251.070 140.090Q250.039 138.902 249.232 138.006L249.232 138.006L249.232 137.557L251.070 137.557Q252.280 138.588 253.513 139.888Q254.745 141.188 255.776 142.443L255.776 142.443Q256.852 141.188 258.129 139.888Q259.406 138.588 260.616 137.557L260.616 137.557L262.454 137.557L262.454 138.006Q261.602 138.902 260.549 140.090Q259.496 141.277 258.555 142.487Q257.613 143.697 257.076 144.683L257.076 144.683Z"/></svg>