<svg width="480px" height="360px" xmlns="http://www.w3.org/2000/svg"><rect x="216" y="124" width="80.5" height="80.5" fill-opacity="0"/><path fill="#F00" d="M245.826 190.577L243.272 190.577L243.272 167.675Q243.272 161.849 245.826 158.779Q248.381 155.709 253.042 155.709L253.042 155.709Q257.838 155.709 260.639 158.868Q263.440 162.028 263.440 168.347L263.440 168.347Q263.440 172.112 262.140 174.824Q260.840 177.535 258.487 178.992Q256.134 180.448 252.997 180.448L252.997 180.448Q250.801 180.448 248.964 179.821Q247.126 179.193 245.871 178.162L245.871 178.162L245.692 178.162Q245.782 179.283 245.804 180.627Q245.826 181.972 245.826 183.585L245.826 183.585L245.826 190.577ZM253.042 178.252L253.042 178.252Q256.538 178.252 258.667 175.787Q260.796 173.322 260.796 168.347L260.796 168.347Q260.796 162.924 258.734 160.415Q256.672 157.905 253.042 157.905L253.042 157.905Q249.322 157.905 247.597 160.504Q245.871 163.104 245.871 167.899L245.871 167.899L245.871 175.787Q247.216 176.952 249.053 177.602Q250.891 178.252 253.042 178.252Z"/></svg>