<svg width="480px" height="360px" xmlns="http://www.w3.org/2000/svg"><rect x="216" y="124" width="80.5" height="80.5" fill-opacity="0"/><path fill="#F00" d="M260.168 156.157L262.723 156.157L262.723 180L260.661 180L260.258 175.922L260.123 175.922Q259.137 177.894 257.098 179.171Q255.059 180.448 252.011 180.448L252.011 180.448Q243.630 180.448 243.630 171.754L243.630 171.754L243.630 156.157L246.185 156.157L246.185 171.529Q246.185 174.980 247.731 176.616Q249.277 178.252 252.325 178.252L252.325 178.252Q260.168 178.252 260.168 169.154L260.168 169.154L260.168 156.157ZM258.779 185.513L258.779 185.513Q258.779 187.888 261.109 187.888L261.109 187.888Q261.782 187.888 262.319 187.798Q262.857 187.709 263.261 187.619L263.261 187.619L263.261 189.412Q262.723 189.546 262.118 189.658Q261.513 189.770 260.751 189.770L260.751 189.770Q258.779 189.770 257.681 188.762Q256.583 187.754 256.583 185.826L256.583 185.826Q256.583 184.078 257.815 182.420Q259.048 180.762 260.885 179.417L260.885 179.417L262.364 180Q260.840 181.345 259.810 182.667Q258.779 183.989 258.779 185.513Z"/></svg>