<svg width="480px" height="360px" xmlns="http://www.w3.org/2000/svg"><rect x="216" y="124" width="80.5" height="80.5" fill-opacity="0"/><path fill="#F00" d="M258.913 177.894L258.913 180L241.793 180L241.793 178.297L255.776 158.218L242.779 158.218L242.779 156.157L258.824 156.157L258.824 157.950L244.885 177.894L258.913 177.894ZM251.608 152.840L249.098 152.840Q248.515 151.854 247.574 150.644Q246.633 149.434 245.602 148.246Q244.571 147.059 243.765 146.162L243.765 146.162L243.765 145.714L245.602 145.714Q246.812 146.745 248.045 148.045Q249.277 149.345 250.308 150.599L250.308 150.599Q251.384 149.345 252.661 148.045Q253.938 146.745 255.148 145.714L255.148 145.714L256.986 145.714L256.986 146.162Q256.134 147.059 255.081 148.246Q254.028 149.434 253.087 150.644Q252.146 151.854 251.608 152.840L251.608 152.840Z"/></svg>