<svg width="480px" height="360px" xmlns="http://www.w3.org/2000/svg"><rect x="216" y="124" width="80.5" height="80.5" fill-opacity="0"/><path fill="#F00" d="M264.022 177.625L264.022 180L241.658 180L241.658 178.073L260.258 150.331L242.555 150.331L242.555 148L263.529 148L263.529 149.927L244.930 177.625L264.022 177.625ZM254.207 144.683L251.697 144.683Q251.115 143.697 250.174 142.487Q249.232 141.277 248.202 140.090Q247.171 138.902 246.364 138.006L246.364 138.006L246.364 137.557L248.202 137.557Q249.412 138.588 250.644 139.888Q251.877 141.188 252.908 142.443L252.908 142.443Q253.983 141.188 255.261 139.888Q256.538 138.588 257.748 137.557L257.748 137.557L259.585 137.557L259.585 138.006Q258.734 138.902 257.681 140.090Q256.627 141.277 255.686 142.487Q254.745 143.697 254.207 144.683L254.207 144.683Z"/></svg>