<svg width="480px" height="360px" xmlns="http://www.w3.org/2000/svg"><rect x="216" y="124" width="80.5" height="80.5" fill-opacity="0"/><path fill="#F00" d="M254.880 155.036L254.880 155.036Q254.880 158.443 253.109 160.504Q251.339 162.566 248.157 162.566L248.157 162.566Q245.109 162.566 243.339 160.527Q241.569 158.487 241.569 155.036L241.569 155.036Q241.569 151.541 243.361 149.546Q245.154 147.552 248.291 147.552L248.291 147.552Q251.473 147.552 253.176 149.613Q254.880 151.675 254.880 155.036ZM243.585 155.036L243.585 155.036Q243.585 157.725 244.706 159.272Q245.826 160.818 248.202 160.818L248.202 160.818Q250.577 160.818 251.697 159.272Q252.818 157.725 252.818 155.036L252.818 155.036Q252.818 152.437 251.742 150.868Q250.667 149.300 248.246 149.300L248.246 149.300Q245.916 149.300 244.751 150.779Q243.585 152.258 243.585 155.036Z"/></svg>