<svg width="480px" height="360px" xmlns="http://www.w3.org/2000/svg"><rect x="216" y="124" width="80.5" height="80.5" fill-opacity="0"/><path fill="#F00" d="M252.370 155.754L252.370 155.754Q256.403 155.754 258.375 157.725Q260.347 159.697 260.347 163.955L260.347 163.955L260.347 180L258.420 180L257.972 175.966L257.838 175.966Q256.538 177.983 254.678 179.216Q252.818 180.448 249.501 180.448L249.501 180.448Q246.050 180.448 244.078 178.723Q242.106 176.997 242.106 173.770L242.106 173.770Q242.106 170.185 245.020 168.325Q247.933 166.465 253.490 166.241L253.490 166.241L257.838 166.017L257.838 164.359Q257.838 160.863 256.426 159.384Q255.014 157.905 252.280 157.905L252.280 157.905Q250.443 157.905 248.739 158.398Q247.036 158.891 245.333 159.697L245.333 159.697L244.527 157.636Q246.230 156.829 248.224 156.291Q250.218 155.754 252.370 155.754ZM257.838 167.944L253.804 168.123Q249.232 168.347 247.014 169.714Q244.796 171.081 244.796 173.770L244.796 173.770Q244.796 176.011 246.162 177.154Q247.529 178.297 249.950 178.297L249.950 178.297Q253.669 178.297 255.731 176.168Q257.793 174.039 257.838 170.275L257.838 170.275L257.838 167.944ZM246.006 152.571L244.303 152.571Q244.527 150.151 245.692 148.829Q246.857 147.507 248.784 147.507L248.784 147.507Q249.815 147.507 250.689 147.955Q251.563 148.403 252.347 148.986Q253.132 149.569 253.894 150.017Q254.655 150.465 255.462 150.465L255.462 150.465Q256.448 150.465 257.165 149.815Q257.882 149.165 258.151 147.462L258.151 147.462L259.810 147.462Q259.585 149.882 258.398 151.227Q257.210 152.571 255.328 152.571L255.328 152.571Q254.297 152.571 253.423 152.123Q252.549 151.675 251.787 151.092Q251.025 150.510 250.263 150.062Q249.501 149.613 248.650 149.613L248.650 149.613Q247.619 149.613 246.947 150.263Q246.275 150.913 246.006 152.571L246.006 152.571Z"/></svg>