<svg width="480px" height="360px" xmlns="http://www.w3.org/2000/svg"><rect x="216" y="124" width="80.5" height="80.5" fill-opacity="0"/><path fill="#F00" d="M276.661 148L279.350 148L270.655 180L268.101 180L261.378 156.471Q260.885 154.857 260.527 153.490Q260.168 152.123 259.989 151.227L259.989 151.227Q259.854 152.078 259.563 153.356Q259.272 154.633 258.868 156.022L258.868 156.022L252.190 180L249.636 180L241.031 148L243.720 148L249.546 169.961Q249.994 171.843 250.375 173.389Q250.756 174.936 251.025 176.415L251.025 176.415Q251.294 174.891 251.653 173.277Q252.011 171.664 252.549 169.826L252.549 169.826L258.734 148L261.378 148L267.742 169.961Q268.280 171.888 268.661 173.479Q269.042 175.070 269.311 176.504L269.311 176.504Q269.535 175.025 269.871 173.479Q270.207 171.933 270.745 169.961L270.745 169.961L276.661 148Z"/></svg>