<svg width="480px" height="360px" xmlns="http://www.w3.org/2000/svg"><rect x="216" y="124" width="80.5" height="80.5" fill-opacity="0"/><path fill="#F00" d="M252.908 180.448L252.908 180.448Q249.636 180.448 247.305 178.969Q244.975 177.490 243.765 174.801Q242.555 172.112 242.555 168.527L242.555 168.527Q242.555 162.207 245.871 159.182Q249.188 156.157 255.104 156.157L255.104 156.157L265.277 156.157L265.277 158.218L259.092 158.218Q261.378 159.966 262.409 162.521Q263.440 165.076 263.440 168.392L263.440 168.392Q263.440 171.843 262.230 174.555Q261.020 177.266 258.667 178.857Q256.314 180.448 252.908 180.448ZM252.997 178.252L252.997 178.252Q255.641 178.252 257.389 176.975Q259.137 175.697 259.989 173.479Q260.840 171.261 260.840 168.437L260.840 168.437Q260.840 165.210 259.832 162.655Q258.824 160.101 256.493 158.218L256.493 158.218L254.880 158.218Q250.174 158.218 247.664 160.751Q245.154 163.283 245.154 168.527L245.154 168.527Q245.154 171.261 245.983 173.479Q246.812 175.697 248.538 176.975Q250.263 178.252 252.997 178.252Z"/></svg>