<svg width="480px" height="360px" xmlns="http://www.w3.org/2000/svg"><rect x="216" y="124" width="80.5" height="80.5" fill-opacity="0"/><path fill="#F00" d="M251.518 148L253.356 148Q252.818 149.658 252.303 151.608Q251.787 153.557 251.406 155.485Q251.025 157.412 250.846 158.980L250.846 158.980L248.246 158.980L247.978 158.532Q248.471 155.978 249.457 153.176Q250.443 150.375 251.518 148L251.518 148ZM244.303 148L246.140 148Q245.557 149.658 245.042 151.608Q244.527 153.557 244.146 155.485Q243.765 157.412 243.585 158.980L243.585 158.980L241.031 158.980L240.762 158.532Q241.255 155.978 242.241 153.176Q243.227 150.375 244.303 148L244.303 148Z"/></svg>