<svg width="480px" height="360px" xmlns="http://www.w3.org/2000/svg"><rect x="216" y="124" width="80.5" height="80.5" fill-opacity="0"/><path fill="#F00" d="M252.370 155.754L252.370 155.754Q256.403 155.754 258.375 157.725Q260.347 159.697 260.347 163.955L260.347 163.955L260.347 180L258.420 180L257.972 175.966L257.838 175.966Q256.538 177.983 254.678 179.216Q252.818 180.448 249.501 180.448L249.501 180.448Q246.050 180.448 244.078 178.723Q242.106 176.997 242.106 173.770L242.106 173.770Q242.106 170.185 245.020 168.325Q247.933 166.465 253.490 166.241L253.490 166.241L257.838 166.017L257.838 164.359Q257.838 160.863 256.426 159.384Q255.014 157.905 252.280 157.905L252.280 157.905Q250.443 157.905 248.739 158.398Q247.036 158.891 245.333 159.697L245.333 159.697L244.527 157.636Q246.230 156.829 248.224 156.291Q250.218 155.754 252.370 155.754ZM257.838 167.944L253.804 168.123Q249.232 168.347 247.014 169.714Q244.796 171.081 244.796 173.770L244.796 173.770Q244.796 176.011 246.162 177.154Q247.529 178.297 249.950 178.297L249.950 178.297Q253.669 178.297 255.731 176.168Q257.793 174.039 257.838 170.275L257.838 170.275L257.838 167.944Z"/></svg>