<svg width="480px" height="360px" xmlns="http://www.w3.org/2000/svg"><rect x="216" y="124" width="80.5" height="80.5" fill-opacity="0"/><path fill="#F00" d="M268.190 148L268.190 180L265.412 180L246.857 152.034L246.723 152.034Q246.812 153.782 246.880 155.731Q246.947 157.681 246.947 159.787L246.947 159.787L246.947 180L244.482 180L244.482 148L247.261 148L265.770 175.877L265.905 175.877Q265.815 174.487 265.770 172.336Q265.725 170.185 265.725 168.303L265.725 168.303L265.725 148L268.190 148ZM257.569 144.683L255.059 144.683Q254.476 143.697 253.535 142.487Q252.594 141.277 251.563 140.090Q250.532 138.902 249.725 138.006L249.725 138.006L249.725 137.557L251.563 137.557Q252.773 138.588 254.006 139.888Q255.238 141.188 256.269 142.443L256.269 142.443Q257.345 141.188 258.622 139.888Q259.899 138.588 261.109 137.557L261.109 137.557L262.947 137.557L262.947 138.006Q262.095 138.902 261.042 140.090Q259.989 141.277 259.048 142.487Q258.106 143.697 257.569 144.683L257.569 144.683Z"/></svg>