<svg width="480px" height="360px" xmlns="http://www.w3.org/2000/svg"><rect x="216" y="124" width="80.5" height="80.5" fill-opacity="0"/><path fill="#F00" d="M246.364 171.574L246.364 170.723Q246.364 168.751 246.678 167.429Q246.992 166.106 247.821 165.008Q248.650 163.910 250.174 162.745L250.174 162.745Q251.832 161.445 252.908 160.415Q253.983 159.384 254.521 158.196Q255.059 157.008 255.059 155.305L255.059 155.305Q255.059 152.571 253.356 151.204Q251.653 149.838 248.784 149.838L248.784 149.838Q246.812 149.838 245.221 150.308Q243.630 150.779 242.062 151.541L242.062 151.541L241.120 149.389Q243.003 148.493 244.818 148.022Q246.633 147.552 248.919 147.552L248.919 147.552Q252.908 147.552 255.216 149.546Q257.524 151.541 257.524 155.261L257.524 155.261Q257.524 157.412 256.829 158.913Q256.134 160.415 254.880 161.625Q253.625 162.835 251.922 164.134L251.922 164.134Q250.577 165.165 249.838 166.106Q249.098 167.048 248.807 168.168Q248.515 169.289 248.515 170.947L248.515 170.947L248.515 171.574L246.364 171.574ZM245.602 178.252L245.602 178.252Q245.602 176.056 247.574 176.056L247.574 176.056Q249.546 176.056 249.546 178.252L249.546 178.252Q249.546 180.493 247.574 180.493L247.574 180.493Q245.602 180.493 245.602 178.252Z"/></svg>