<svg width="480px" height="360px" xmlns="http://www.w3.org/2000/svg"><rect x="216" y="124" width="80.5" height="80.5" fill-opacity="0"/><path fill="#F00" d="M246.499 166.151L254.700 166.151Q259.003 166.151 261.064 167.899Q263.126 169.647 263.126 172.829L263.126 172.829Q263.126 176.190 260.975 178.095Q258.824 180 254.297 180L254.297 180L243.944 180L243.944 156.157L246.499 156.157L246.499 166.151ZM260.571 172.919L260.571 172.919Q260.571 170.543 259.003 169.445Q257.434 168.347 254.387 168.347L254.387 168.347L246.499 168.347L246.499 177.849L254.118 177.849Q260.571 177.849 260.571 172.919Z"/></svg>