<svg width="480px" height="360px" xmlns="http://www.w3.org/2000/svg"><rect x="216" y="124" width="80.5" height="80.5" fill-opacity="0"/><path fill="#F00" d="M266.622 148L255.597 172.336Q254.431 174.846 253.199 176.661Q251.966 178.476 250.218 179.462Q248.471 180.448 245.871 180.448L245.871 180.448Q244.616 180.448 243.630 180.246Q242.644 180.045 241.882 179.776L241.882 179.776L241.882 177.176Q242.689 177.580 243.653 177.782Q244.616 177.983 245.737 177.983L245.737 177.983Q248.471 177.983 249.994 176.459Q251.518 174.936 252.863 171.888L252.863 171.888L240.403 148L243.272 148L252.997 166.779Q253.311 167.496 253.602 168.146Q253.894 168.796 254.207 169.513L254.207 169.513L254.342 169.513Q254.835 168.168 255.417 166.913L255.417 166.913L263.843 148L266.622 148Z"/></svg>