<svg width="480px" height="360px" xmlns="http://www.w3.org/2000/svg"><rect x="216" y="124" width="80.5" height="80.5" fill-opacity="0"/><path fill="#F00" d="M246.499 145.938L246.499 156.829Q246.499 157.770 246.454 158.622Q246.409 159.473 246.319 160.280L246.319 160.280L246.499 160.280Q247.440 158.308 249.479 157.008Q251.518 155.709 254.566 155.709L254.566 155.709Q258.689 155.709 260.840 157.815Q262.992 159.922 262.992 164.403L262.992 164.403L262.992 180L260.482 180L260.482 164.583Q260.482 161.176 258.913 159.541Q257.345 157.905 254.342 157.905L254.342 157.905Q246.499 157.905 246.499 167.003L246.499 167.003L246.499 180L243.944 180L243.944 145.938L246.499 145.938Z"/></svg>