<svg width="480px" height="360px" xmlns="http://www.w3.org/2000/svg"><rect x="216" y="124" width="80.5" height="80.5" fill-opacity="0"/><path fill="#F00" d="M266.308 148L266.308 180L263.709 180L263.709 150.331L252.415 150.331Q252.056 153.423 251.608 156.964Q251.160 160.504 250.667 163.978Q250.174 167.451 249.591 170.319L249.591 170.319Q249.008 173.367 248.202 175.675Q247.395 177.983 246.073 179.238Q244.751 180.493 242.555 180.493L242.555 180.493Q241.031 180.493 239.955 180L239.955 180L239.955 177.759Q240.448 177.983 241.008 178.118Q241.569 178.252 242.331 178.252L242.331 178.252Q243.810 178.252 244.706 177.087Q245.602 175.922 246.162 173.972Q246.723 172.022 247.171 169.647L247.171 169.647Q247.709 166.689 248.246 163.036Q248.784 159.384 249.277 155.507Q249.770 151.630 250.218 148L250.218 148L266.308 148Z"/></svg>