<svg width="480px" height="360px" xmlns="http://www.w3.org/2000/svg"><rect x="216" y="124" width="80.5" height="80.5" fill-opacity="0"/><path fill="#F00" d="M260.482 156.157L263.036 156.157L263.036 180L260.930 180L260.527 176.280L260.392 176.280Q259.361 178.118 257.636 179.283Q255.910 180.448 252.773 180.448L252.773 180.448Q250.398 180.448 248.852 179.664Q247.305 178.880 246.499 177.625L246.499 177.625L246.364 177.625Q246.409 178.476 246.431 179.664Q246.454 180.852 246.454 182.286L246.454 182.286L246.454 190.756L243.944 190.756L243.944 156.157L246.454 156.157L246.454 171.574Q246.454 178.252 252.908 178.252L252.908 178.252Q257.120 178.252 258.801 175.877Q260.482 173.501 260.482 169.154L260.482 169.154L260.482 156.157Z"/></svg>