<svg width="480px" height="360px" xmlns="http://www.w3.org/2000/svg"><rect x="216" y="124" width="80.5" height="80.5" fill-opacity="0"/><path fill="#F00" d="M250.308 149.882L250.308 149.882Q248.202 149.882 246.230 150.331Q244.258 150.779 242.555 151.541L242.555 151.541L241.524 149.300Q243.361 148.493 245.647 148.022Q247.933 147.552 250.353 147.552L250.353 147.552Q255.283 147.552 258.555 149.524Q261.826 151.496 263.440 155.104Q265.053 158.711 265.053 163.597L265.053 163.597Q265.053 168.706 263.305 172.493Q261.557 176.280 258.174 178.364Q254.790 180.448 249.815 180.448L249.815 180.448Q247.081 180.448 245.109 180.112Q243.137 179.776 241.434 179.148L241.434 179.148L241.434 176.818Q243.182 177.356 245.154 177.737Q247.126 178.118 249.501 178.118L249.501 178.118Q255.686 178.118 258.936 174.465Q262.185 170.812 262.319 164.493L262.319 164.493L245.557 164.493L245.557 162.162L262.319 162.162Q262.006 156.426 258.958 153.154Q255.910 149.882 250.308 149.882Z"/></svg>