<svg width="480px" height="360px" xmlns="http://www.w3.org/2000/svg"><rect x="216" y="124" width="80.5" height="80.5" fill-opacity="0"/><path fill="#F00" d="M267.070 155.709L267.070 155.709Q269.938 155.709 271.933 157.120Q273.927 158.532 274.958 160.997Q275.989 163.462 275.899 166.599L275.899 166.599L275.899 168.392L259.899 168.392Q259.899 173.232 261.961 175.720Q264.022 178.207 267.742 178.207L267.742 178.207Q269.804 178.207 271.417 177.826Q273.031 177.445 274.913 176.594L274.913 176.594L274.913 178.924Q273.165 179.731 271.462 180.090Q269.759 180.448 267.697 180.448L267.697 180.448Q264.246 180.448 261.938 178.835Q259.630 177.221 258.555 174.443L258.555 174.443Q257.345 177.176 255.261 178.812Q253.176 180.448 249.546 180.448L249.546 180.448Q246.095 180.448 244.101 178.723Q242.106 176.997 242.106 173.770L242.106 173.770Q242.106 170.185 244.930 168.347Q247.754 166.510 253.132 166.241L253.132 166.241L257.300 166.017L257.300 164.314Q257.300 160.818 255.866 159.361Q254.431 157.905 251.877 157.905L251.877 157.905Q250.129 157.905 248.426 158.375Q246.723 158.846 245.020 159.697L245.020 159.697L244.213 157.636Q245.916 156.829 247.933 156.291Q249.950 155.754 252.011 155.754L252.011 155.754Q254.969 155.754 256.739 157.031Q258.510 158.308 259.137 161.087L259.137 161.087Q260.213 158.667 262.207 157.188Q264.202 155.709 267.070 155.709ZM267.025 157.860L267.025 157.860Q264.112 157.860 262.207 160.011Q260.303 162.162 259.989 166.286L259.989 166.286L273.210 166.286Q273.210 162.521 271.686 160.190Q270.162 157.860 267.025 157.860ZM257.255 167.944L253.490 168.123Q249.143 168.347 246.969 169.714Q244.796 171.081 244.796 173.770L244.796 173.770Q244.796 176.011 246.118 177.154Q247.440 178.297 249.860 178.297L249.860 178.297Q253.356 178.297 255.283 176.168Q257.210 174.039 257.255 170.275L257.255 170.275L257.255 167.944Z"/></svg>