<svg width="480px" height="360px" xmlns="http://www.w3.org/2000/svg"><rect x="216" y="124" width="80.5" height="80.5" fill-opacity="0"/><path fill="#F00" d="M262.050 177.669L262.050 180L244.482 180L244.482 148L262.050 148L262.050 150.331L247.081 150.331L247.081 162.028L261.199 162.028L261.199 164.359L247.081 164.359L247.081 177.669L262.050 177.669ZM258.106 139.171L259.899 139.171Q259.630 141.725 258.039 143.204Q256.448 144.683 253.625 144.683L253.625 144.683Q250.711 144.683 249.165 143.227Q247.619 141.770 247.440 139.171L247.440 139.171L249.232 139.171Q249.412 140.964 250.510 141.748Q251.608 142.532 253.669 142.532L253.669 142.532Q255.597 142.532 256.739 141.725Q257.882 140.919 258.106 139.171L258.106 139.171Z"/></svg>