<svg width="480px" height="360px" xmlns="http://www.w3.org/2000/svg"><rect x="216" y="124" width="80.5" height="80.5" fill-opacity="0"/><path fill="#F00" d="M267.922 148L267.922 180L265.322 180L265.322 164.403L247.081 164.403L247.081 180L244.482 180L244.482 148L247.081 148L247.081 162.073L265.322 162.073L265.322 148L267.922 148ZM255.014 137.557L257.524 137.557Q258.062 138.543 259.003 139.776Q259.944 141.008 260.975 142.218Q262.006 143.429 262.857 144.280L262.857 144.280L262.857 144.683L261.020 144.683Q259.810 143.697 258.555 142.398Q257.300 141.098 256.224 139.843L256.224 139.843Q255.148 141.098 253.916 142.398Q252.683 143.697 251.473 144.683L251.473 144.683L249.636 144.683L249.636 144.280Q250.487 143.384 251.518 142.196Q252.549 141.008 253.490 139.776Q254.431 138.543 255.014 137.557L255.014 137.557Z"/></svg>