<svg width="480px" height="360px" xmlns="http://www.w3.org/2000/svg"><rect x="216" y="124" width="80.5" height="80.5" fill-opacity="0"/><path fill="#F00" d="M263.664 180.448L263.664 180.448Q259.272 180.448 259.272 175.294L259.272 175.294L259.272 158.218L247.978 158.218L247.978 180L245.423 180L245.423 158.218L240.583 158.218L240.583 156.157L266.622 156.157L266.622 158.218L261.782 158.218L261.782 174.980Q261.782 178.252 264.246 178.252L264.246 178.252Q264.874 178.252 265.345 178.140Q265.815 178.028 266.129 177.894L266.129 177.894L266.129 180Q265.770 180.179 265.143 180.314Q264.515 180.448 263.664 180.448Z"/></svg>