<svg width="480px" height="360px" xmlns="http://www.w3.org/2000/svg"><rect x="216" y="124" width="80.5" height="80.5" fill-opacity="0"/><path fill="#F00" d="M252.952 148L253.221 148.448Q252.728 151.003 251.742 153.804Q250.756 156.605 249.681 158.980L249.681 158.980L247.843 158.980Q248.381 157.367 248.896 155.417Q249.412 153.468 249.793 151.518Q250.174 149.569 250.398 148L250.398 148L252.952 148ZM245.692 148L246.006 148.448Q245.468 151.003 244.504 153.804Q243.541 156.605 242.465 158.980L242.465 158.980L240.627 158.980Q241.210 157.367 241.703 155.417Q242.196 153.468 242.577 151.518Q242.958 149.569 243.137 148L243.137 148L245.692 148Z"/></svg>