<svg width="480px" height="360px" xmlns="http://www.w3.org/2000/svg"><rect x="216" y="124" width="80.5" height="80.5" fill-opacity="0"/><path fill="#F00" d="M243.541 178.252L243.541 178.252Q243.541 176.056 245.468 176.056L245.468 176.056Q247.485 176.056 247.485 178.252L247.485 178.252Q247.485 180.493 245.468 180.493L245.468 180.493Q243.541 180.493 243.541 178.252ZM254.476 178.252L254.476 178.252Q254.476 176.056 256.403 176.056L256.403 176.056Q258.420 176.056 258.420 178.252L258.420 178.252Q258.420 180.493 256.403 180.493L256.403 180.493Q254.476 180.493 254.476 178.252ZM265.367 178.252L265.367 178.252Q265.367 176.056 267.294 176.056L267.294 176.056Q269.311 176.056 269.311 178.252L269.311 178.252Q269.311 180.493 267.294 180.493L267.294 180.493Q265.367 180.493 265.367 178.252Z"/></svg>