<svg width="480px" height="360px" xmlns="http://www.w3.org/2000/svg"><rect x="216" y="124" width="80.5" height="80.5" fill-opacity="0"/><path fill="#F00" d="M247.754 147.641L247.754 147.641Q252.908 147.641 252.908 152.392L252.908 152.392L252.908 162.252L251.339 162.252L250.980 160.280Q250.263 161.221 249.076 161.849Q247.888 162.476 246.230 162.476L246.230 162.476Q244.123 162.476 242.891 161.445Q241.658 160.415 241.658 158.308L241.658 158.308Q241.658 156.112 243.361 154.992Q245.064 153.871 248.695 153.737L248.695 153.737L250.936 153.647L250.936 152.437Q250.936 150.779 250.039 150.062Q249.143 149.345 247.709 149.345L247.709 149.345Q246.499 149.345 245.423 149.658Q244.347 149.972 243.317 150.510L243.317 150.510L242.599 148.852Q243.675 148.314 245.020 147.978Q246.364 147.641 247.754 147.641ZM250.936 155.216L248.829 155.305Q246.006 155.440 244.840 156.134Q243.675 156.829 243.675 158.308L243.675 158.308Q243.675 159.563 244.437 160.168Q245.199 160.773 246.588 160.773L246.588 160.773Q248.829 160.773 249.882 159.630Q250.936 158.487 250.936 156.515L250.936 156.515L250.936 155.216Z"/></svg>