<svg width="480px" height="360px" xmlns="http://www.w3.org/2000/svg"><rect x="216" y="124" width="80.5" height="80.5" fill-opacity="0"/><path fill="#F00" d="M258.106 149.882L258.106 149.882Q254.162 149.882 251.339 151.653Q248.515 153.423 247.014 156.583Q245.513 159.742 245.513 163.910L245.513 163.910Q245.513 168.213 246.857 171.417Q248.202 174.622 250.913 176.370Q253.625 178.118 257.658 178.118L257.658 178.118Q259.989 178.118 261.938 177.759Q263.888 177.401 265.636 176.818L265.636 176.818L265.636 179.104Q263.978 179.731 262.006 180.090Q260.034 180.448 257.389 180.448L257.389 180.448Q252.549 180.448 249.300 178.387Q246.050 176.325 244.415 172.605Q242.779 168.885 242.779 163.910L242.779 163.910Q242.779 159.160 244.594 155.462Q246.409 151.765 249.838 149.658Q253.266 147.552 258.151 147.552L258.151 147.552Q262.812 147.552 266.532 149.300L266.532 149.300L265.501 151.585Q262.050 149.882 258.106 149.882ZM258.420 144.683L255.910 144.683Q255.328 143.697 254.387 142.487Q253.445 141.277 252.415 140.090Q251.384 138.902 250.577 138.006L250.577 138.006L250.577 137.557L252.415 137.557Q253.625 138.588 254.857 139.888Q256.090 141.188 257.120 142.443L257.120 142.443Q258.196 141.188 259.473 139.888Q260.751 138.588 261.961 137.557L261.961 137.557L263.798 137.557L263.798 138.006Q262.947 138.902 261.894 140.090Q260.840 141.277 259.899 142.487Q258.958 143.697 258.420 144.683L258.420 144.683Z"/></svg>