<svg width="480px" height="360px" xmlns="http://www.w3.org/2000/svg"><rect x="216" y="124" width="80.5" height="80.5" fill-opacity="0"/><path fill="#F00" d="M246.454 145.938L246.454 163.238Q246.454 164.672 246.409 166.218Q246.364 167.765 246.364 169.244L246.364 169.244L246.409 169.244Q246.992 168.571 247.731 167.675Q248.471 166.779 249.143 166.017L249.143 166.017L258.196 156.157L261.289 156.157L251.832 166.375L262.050 180L259.003 180L250.084 168.034L246.454 171.709L246.454 180L243.944 180L243.944 145.938L246.454 145.938ZM253.356 182.734L253.356 183.048Q252.997 184.527 252.168 186.454Q251.339 188.381 250.263 189.905L250.263 189.905L248.784 189.905L248.784 189.501Q249.143 188.784 249.546 187.552Q249.950 186.319 250.286 184.997Q250.622 183.675 250.756 182.734L250.756 182.734L253.356 182.734Z"/></svg>