<svg width="480px" height="360px" xmlns="http://www.w3.org/2000/svg"><rect x="216" y="124" width="80.5" height="80.5" fill-opacity="0"/><path fill="#F00" d="M260.123 185.109L260.123 185.109Q260.123 186.588 260.706 187.238Q261.289 187.888 262.409 187.888L262.409 187.888Q263.081 187.888 263.641 187.798Q264.202 187.709 264.560 187.619L264.560 187.619L264.560 189.412Q264.067 189.546 263.462 189.658Q262.857 189.770 262.050 189.770L262.050 189.770Q260.078 189.770 259.003 188.717Q257.927 187.664 257.927 185.468L257.927 185.468Q257.927 183.944 258.644 182.510Q259.361 181.076 260.437 179.866L260.437 179.866Q258.465 180.448 256.090 180.448L256.090 180.448Q250.308 180.448 247.238 177.311Q244.168 174.174 244.168 168.616L244.168 168.616L244.168 148L246.768 148L246.768 168.616Q246.768 173.277 249.188 175.697Q251.608 178.118 256.224 178.118L256.224 178.118Q260.751 178.118 263.193 175.675Q265.636 173.232 265.636 168.885L265.636 168.885L265.636 148L268.190 148L268.190 168.706Q268.190 175.204 263.843 178.297L263.843 178.297Q262.319 179.955 261.221 181.591Q260.123 183.227 260.123 185.109Z"/></svg>