<svg width="480px" height="360px" xmlns="http://www.w3.org/2000/svg"><rect x="216" y="124" width="80.5" height="80.5" fill-opacity="0"/><path fill="#F00" d="M253.759 155.754L253.759 155.754Q255.507 155.754 256.986 156.112L256.986 156.112L256.583 158.487Q255.148 158.084 253.625 158.084L253.625 158.084Q250.353 158.084 248.426 160.504Q246.499 162.924 246.499 166.913L246.499 166.913L246.499 180L243.944 180L243.944 156.157L246.095 156.157L246.364 160.594L246.499 160.594Q247.395 158.577 249.232 157.165Q251.070 155.754 253.759 155.754ZM255.731 145.669L255.731 146.028Q255.059 146.969 253.961 148.224Q252.863 149.479 251.608 150.711Q250.353 151.944 249.232 152.840L249.232 152.840L247.440 152.840L247.440 152.437Q248.291 151.585 249.277 150.375Q250.263 149.165 251.182 147.910Q252.101 146.655 252.683 145.669L252.683 145.669L255.731 145.669Z"/></svg>