<svg width="480px" height="360px" xmlns="http://www.w3.org/2000/svg"><rect x="216" y="124" width="80.5" height="80.5" fill-opacity="0"/><path fill="#F00" d="M257.255 180L254.118 180L243.048 165.255L243.048 163.686L244.437 163.686Q247.395 163.686 249.636 163.193Q251.877 162.700 253.221 161.423Q254.566 160.146 254.790 157.815L254.790 157.815L243.048 157.815L243.048 155.843L254.745 155.843Q254.387 152.527 252.078 151.249Q249.770 149.972 246.095 149.972L246.095 149.972L243.048 149.972L243.048 148L262.902 148L262.902 149.972L253.580 149.972Q255.148 150.689 256.157 152.190Q257.165 153.692 257.345 155.843L257.345 155.843L262.902 155.843L262.902 157.815L257.389 157.815Q257.031 161.625 254.230 163.485Q251.429 165.345 246.140 165.569L246.140 165.569L257.255 180Z"/></svg>