<svg width="480px" height="360px" xmlns="http://www.w3.org/2000/svg"><rect x="216" y="124" width="80.5" height="80.5" fill-opacity="0"/><path fill="#F00" d="M252.280 180.448L252.280 180.448Q248.829 180.448 246.947 179.216Q245.064 177.983 244.347 175.608Q243.630 173.232 243.630 169.826L243.630 169.826L243.630 156.157L246.185 156.157L246.185 169.647Q246.185 174.174 247.485 176.213Q248.784 178.252 252.504 178.252L252.504 178.252Q255.955 178.252 257.927 175.429Q259.899 172.605 259.899 166.824L259.899 166.824Q259.899 161.221 258.510 156.157L258.510 156.157L261.109 156.157Q261.782 158.756 262.140 161.311Q262.499 163.866 262.499 166.913L262.499 166.913Q262.499 173.725 259.810 177.087Q257.120 180.448 252.280 180.448Z"/></svg>