<svg width="480px" height="360px" xmlns="http://www.w3.org/2000/svg"><rect x="216" y="124" width="80.5" height="80.5" fill-opacity="0"/><path fill="#F00" d="M250.667 178.252L250.667 178.252Q251.653 178.252 252.549 178.118Q253.445 177.983 254.118 177.714L254.118 177.714L254.118 179.776Q253.445 180.045 252.459 180.246Q251.473 180.448 250.353 180.448L250.353 180.448Q247.350 180.448 245.737 178.790Q244.123 177.132 244.123 173.367L244.123 173.367L244.123 167.317L240.941 167.317L240.941 165.300L244.123 165.300L244.123 158.218L240.583 158.218L240.583 156.784L244.123 155.933L245.020 150.465L246.678 150.465L246.678 156.157L253.983 156.157L253.983 158.218L246.678 158.218L246.678 165.300L253.356 165.300L253.356 167.317L246.678 167.317L246.678 173.232Q246.678 178.252 250.667 178.252Z"/></svg>