<svg width="480px" height="360px" xmlns="http://www.w3.org/2000/svg"><rect x="216" y="124" width="80.5" height="80.5" fill-opacity="0"/><path fill="#F00" d="M251.697 178.387L251.697 180L242.286 180L242.286 178.387L245.692 177.894L245.692 150.151L242.286 149.613L242.286 148L251.697 148L251.697 149.613L248.291 150.151L248.291 177.894L251.697 178.387ZM245.782 137.557L248.291 137.557Q248.829 138.543 249.770 139.776Q250.711 141.008 251.742 142.218Q252.773 143.429 253.625 144.280L253.625 144.280L253.625 144.683L251.787 144.683Q250.577 143.697 249.322 142.398Q248.067 141.098 246.992 139.843L246.992 139.843Q245.916 141.098 244.683 142.398Q243.451 143.697 242.241 144.683L242.241 144.683L240.403 144.683L240.403 144.280Q241.255 143.384 242.286 142.196Q243.317 141.008 244.258 139.776Q245.199 138.543 245.782 137.557L245.782 137.557Z"/></svg>