<svg width="480px" height="360px" xmlns="http://www.w3.org/2000/svg"><rect x="216" y="124" width="80.5" height="80.5" fill-opacity="0"/><path fill="#F00" d="M262.050 177.669L262.050 180L244.482 180L244.482 148L262.050 148L262.050 150.331L247.081 150.331L247.081 162.028L261.199 162.028L261.199 164.359L247.081 164.359L247.081 177.669L262.050 177.669ZM254.924 144.683L252.415 144.683Q251.832 143.697 250.891 142.487Q249.950 141.277 248.919 140.090Q247.888 138.902 247.081 138.006L247.081 138.006L247.081 137.557L248.919 137.557Q250.129 138.588 251.361 139.888Q252.594 141.188 253.625 142.443L253.625 142.443Q254.700 141.188 255.978 139.888Q257.255 138.588 258.465 137.557L258.465 137.557L260.303 137.557L260.303 138.006Q259.451 138.902 258.398 140.090Q257.345 141.277 256.403 142.487Q255.462 143.697 254.924 144.683L254.924 144.683Z"/></svg>