<svg width="480px" height="360px" xmlns="http://www.w3.org/2000/svg"><rect x="216" y="124" width="80.5" height="80.5" fill-opacity="0"/><path fill="#F00" d="M258.106 149.882L258.106 149.882Q254.162 149.882 251.339 151.653Q248.515 153.423 247.014 156.583Q245.513 159.742 245.513 163.910L245.513 163.910Q245.513 168.213 246.857 171.417Q248.202 174.622 250.913 176.370Q253.625 178.118 257.658 178.118L257.658 178.118Q259.989 178.118 261.938 177.759Q263.888 177.401 265.636 176.818L265.636 176.818L265.636 179.104Q263.978 179.731 262.006 180.090Q260.034 180.448 257.389 180.448L257.389 180.448Q252.549 180.448 249.300 178.387Q246.050 176.325 244.415 172.605Q242.779 168.885 242.779 163.910L242.779 163.910Q242.779 159.160 244.594 155.462Q246.409 151.765 249.838 149.658Q253.266 147.552 258.151 147.552L258.151 147.552Q262.812 147.552 266.532 149.300L266.532 149.300L265.501 151.585Q262.050 149.882 258.106 149.882ZM255.955 137.557L258.465 137.557Q259.003 138.543 259.944 139.776Q260.885 141.008 261.916 142.218Q262.947 143.429 263.798 144.280L263.798 144.280L263.798 144.683L261.961 144.683Q260.751 143.697 259.496 142.398Q258.241 141.098 257.165 139.843L257.165 139.843Q256.090 141.098 254.857 142.398Q253.625 143.697 252.415 144.683L252.415 144.683L250.577 144.683L250.577 144.280Q251.429 143.384 252.459 142.196Q253.490 141.008 254.431 139.776Q255.373 138.543 255.955 137.557L255.955 137.557Z"/></svg>