<svg width="480px" height="360px" xmlns="http://www.w3.org/2000/svg"><rect x="216" y="124" width="80.5" height="80.5" fill-opacity="0"/><path fill="#F00" d="M267.249 180L264.515 180L260.258 168.975L246.992 168.975L242.689 180L240 180L252.594 147.866L254.969 147.866L267.249 180ZM259.451 166.599L255.193 155.081Q254.924 154.454 254.476 153.109Q254.028 151.765 253.714 150.734L253.714 150.734Q253.356 151.944 252.952 153.109Q252.549 154.275 252.280 155.126L252.280 155.126L247.843 166.599L259.451 166.599ZM258.062 139.171L259.854 139.171Q259.585 141.725 257.994 143.204Q256.403 144.683 253.580 144.683L253.580 144.683Q250.667 144.683 249.120 143.227Q247.574 141.770 247.395 139.171L247.395 139.171L249.188 139.171Q249.367 140.964 250.465 141.748Q251.563 142.532 253.625 142.532L253.625 142.532Q255.552 142.532 256.695 141.725Q257.838 140.919 258.062 139.171L258.062 139.171Z"/></svg>