<svg width="480px" height="360px" xmlns="http://www.w3.org/2000/svg"><rect x="216" y="124" width="80.5" height="80.5" fill-opacity="0"/><path fill="#F00" d="M260.168 166.196L252.594 166.196L244.168 180L241.076 180L249.950 165.703Q248.022 165.255 246.454 164.269Q244.885 163.283 243.966 161.535Q243.048 159.787 243.048 157.053L243.048 157.053Q243.048 152.482 246.050 150.241Q249.053 148 254.745 148L254.745 148L262.768 148L262.768 180L260.168 180L260.168 166.196ZM260.168 150.286L254.924 150.286Q250.398 150.286 248.067 151.877Q245.737 153.468 245.737 157.098L245.737 157.098Q245.737 163.910 254.207 163.910L254.207 163.910L260.168 163.910L260.168 150.286Z"/></svg>