<svg width="480px" height="360px" xmlns="http://www.w3.org/2000/svg"><rect x="216" y="124" width="80.5" height="80.5" fill-opacity="0"/><path fill="#F00" d="M257.434 190.756L257.434 190.756Q256.493 190.756 255.754 190.622Q255.014 190.487 254.476 190.263L254.476 190.263L254.476 188.067Q255.686 188.560 257.210 188.560L257.210 188.560Q258.734 188.560 259.608 187.574Q260.482 186.588 260.482 184.437L260.482 184.437L260.482 164.538Q260.482 161.132 258.913 159.518Q257.345 157.905 254.342 157.905L254.342 157.905Q246.499 157.905 246.499 166.958L246.499 166.958L246.499 180L243.944 180L243.944 156.157L246.006 156.157L246.409 160.280L246.543 160.280Q247.529 158.308 249.546 157.008Q251.563 155.709 254.611 155.709L254.611 155.709Q258.689 155.709 260.863 157.793Q263.036 159.877 263.036 164.403L263.036 164.403L263.036 184.482Q263.036 187.529 261.557 189.143Q260.078 190.756 257.434 190.756Z"/></svg>