<svg width="480px" height="360px" xmlns="http://www.w3.org/2000/svg"><rect x="216" y="124" width="80.5" height="80.5" fill-opacity="0"/><path fill="#F00" d="M246.678 167.451L246.678 167.451Q243.451 167.451 240.941 166.241L240.941 166.241L240.941 164.224Q242.331 164.896 243.787 165.255Q245.244 165.613 246.678 165.613L246.678 165.613Q249.232 165.613 250.487 164.560Q251.742 163.507 251.742 161.625L251.742 161.625Q251.742 158.084 246.588 158.084L246.588 158.084L243.810 158.084L243.810 156.291L246.588 156.291Q248.874 156.291 250.062 155.305Q251.249 154.319 251.249 152.616L251.249 152.616Q251.249 151.092 250.218 150.286Q249.188 149.479 247.485 149.479L247.485 149.479Q245.961 149.479 244.706 149.950Q243.451 150.420 242.196 151.182L242.196 151.182L241.165 149.658Q242.465 148.717 243.989 148.179Q245.513 147.641 247.485 147.641L247.485 147.641Q250.308 147.641 251.877 148.941Q253.445 150.241 253.445 152.437L253.445 152.437Q253.445 154.275 252.482 155.462Q251.518 156.650 250.129 157.008L250.129 157.008L250.129 157.143Q251.922 157.501 252.952 158.644Q253.983 159.787 253.983 161.669L253.983 161.669Q253.983 164.314 252.123 165.882Q250.263 167.451 246.678 167.451ZM250.756 180L248.471 180L266.577 148L268.863 148L250.756 180ZM271.059 180L268.818 180L268.818 174.891L259.899 174.891L259.899 173.322L268.818 160.683L271.059 160.683L271.059 173.008L274.106 173.008L274.106 174.891L271.059 174.891L271.059 180ZM267.070 166.017L262.185 173.008L268.818 173.008L268.818 167.272Q268.818 166.241 268.840 165.188Q268.863 164.134 268.908 163.148L268.908 163.148Q268.594 163.776 268.078 164.560Q267.563 165.345 267.070 166.017L267.070 166.017Z"/></svg>