<svg width="480px" height="360px" xmlns="http://www.w3.org/2000/svg"><rect x="216" y="124" width="80.5" height="80.5" fill-opacity="0"/><path fill="#F00" d="M253.356 180L244.482 180L244.482 148L262.588 148L262.588 150.331L247.081 150.331L247.081 161.938L252.818 161.938Q258.824 161.938 261.468 164.134Q264.112 166.331 264.112 170.768L264.112 170.768Q264.112 175.249 261.490 177.625Q258.868 180 253.356 180L253.356 180ZM247.081 177.714L252.997 177.714Q257.434 177.714 259.429 176.034Q261.423 174.353 261.423 170.768L261.423 170.768Q261.423 167.003 259.182 165.636Q256.941 164.269 252.459 164.269L252.459 164.269L247.081 164.269L247.081 177.714Z"/></svg>