<svg width="480px" height="360px" xmlns="http://www.w3.org/2000/svg"><rect x="216" y="124" width="80.5" height="80.5" fill-opacity="0"/><path fill="#F00" d="M248.784 147.552L248.784 147.552Q251.966 147.552 253.580 150.151Q255.193 152.751 255.193 157.546L255.193 157.546Q255.193 162.431 253.557 165.031Q251.922 167.630 248.739 167.630L248.739 167.630Q245.647 167.630 244.034 165.008Q242.420 162.387 242.420 157.546L242.420 157.546Q242.420 152.706 244.034 150.129Q245.647 147.552 248.784 147.552ZM265.905 148L268.280 148L250.532 180L248.157 180L265.905 148ZM248.784 149.479L248.784 149.479Q244.661 149.479 244.661 157.546L244.661 157.546Q244.661 165.658 248.739 165.658L248.739 165.658Q252.952 165.658 252.952 157.546L252.952 157.546Q252.952 153.602 251.944 151.541Q250.936 149.479 248.784 149.479ZM267.563 160.370L267.563 160.370Q270.745 160.370 272.359 162.969Q273.972 165.569 273.972 170.364L273.972 170.364Q273.972 175.249 272.336 177.849Q270.700 180.448 267.518 180.448L267.518 180.448Q264.426 180.448 262.812 177.826Q261.199 175.204 261.199 170.364L261.199 170.364Q261.199 165.524 262.812 162.947Q264.426 160.370 267.563 160.370ZM267.563 162.342L267.563 162.342Q263.440 162.342 263.440 170.364L263.440 170.364Q263.440 178.476 267.518 178.476L267.518 178.476Q271.731 178.476 271.731 170.364L271.731 170.364Q271.731 166.420 270.723 164.381Q269.714 162.342 267.563 162.342Z"/></svg>