<svg width="480px" height="360px" xmlns="http://www.w3.org/2000/svg"><rect x="216" y="124" width="80.5" height="80.5" fill-opacity="0"/><path fill="#F00" d="M242.644 165.658L242.644 165.658Q242.644 158.756 244.392 154.700Q246.140 150.644 249.725 149.076L249.725 149.076Q252.146 147.776 255.350 147.014Q258.555 146.252 262.543 145.759L262.543 145.759L262.947 148.045Q258.824 148.538 255.641 149.277Q252.459 150.017 250.577 151.092L250.577 151.092Q248.246 152.303 246.902 155.126Q245.557 157.950 245.378 162.655L245.378 162.655L245.557 162.655Q246.678 160.639 248.919 159.227Q251.160 157.815 254.207 157.815L254.207 157.815Q258.734 157.815 261.087 160.661Q263.440 163.507 263.440 168.616L263.440 168.616Q263.440 174.084 260.796 177.266Q258.151 180.448 253.087 180.448L253.087 180.448Q249.501 180.448 247.171 178.543Q244.840 176.639 243.742 173.300Q242.644 169.961 242.644 165.658ZM253.311 178.252L253.311 178.252Q257.031 178.252 258.891 175.787Q260.751 173.322 260.751 168.796L260.751 168.796Q260.751 164.538 259.025 162.275Q257.300 160.011 253.894 160.011L253.894 160.011Q250.846 160.011 248.650 161.692Q246.454 163.373 245.244 165.569L245.244 165.569Q245.244 167.989 245.602 170.252Q245.961 172.515 246.857 174.308Q247.754 176.101 249.322 177.176Q250.891 178.252 253.311 178.252Z"/></svg>