<svg width="480px" height="360px" xmlns="http://www.w3.org/2000/svg"><rect x="216" y="124" width="80.5" height="80.5" fill-opacity="0"/><path fill="#F00" d="M245.244 147.328L245.244 147.328Q246.992 147.328 246.992 149.255L246.992 149.255Q246.992 151.227 245.244 151.227L245.244 151.227Q243.496 151.227 243.496 149.255L243.496 149.255Q243.496 147.328 245.244 147.328ZM243.944 156.157L246.499 156.157L246.499 180L243.944 180L243.944 156.157ZM242.779 185.513L242.779 185.513Q242.779 187.888 245.109 187.888L245.109 187.888Q245.782 187.888 246.319 187.798Q246.857 187.709 247.261 187.619L247.261 187.619L247.261 189.412Q246.723 189.546 246.118 189.658Q245.513 189.770 244.751 189.770L244.751 189.770Q242.779 189.770 241.681 188.762Q240.583 187.754 240.583 185.826L240.583 185.826Q240.583 184.078 241.815 182.420Q243.048 180.762 244.885 179.417L244.885 179.417L246.364 180Q244.840 181.345 243.810 182.667Q242.779 183.989 242.779 185.513Z"/></svg>