<svg width="480px" height="360px" xmlns="http://www.w3.org/2000/svg"><rect x="216" y="124" width="80.5" height="80.5" fill-opacity="0"/><path fill="#F00" d="M248.784 147.552L248.784 147.552Q252.146 147.552 253.714 150.241Q255.283 152.930 255.283 157.546L255.283 157.546Q255.283 162.521 253.602 165.076Q251.922 167.630 248.739 167.630L248.739 167.630Q245.647 167.630 243.989 165.031Q242.331 162.431 242.331 157.546L242.331 157.546Q242.331 152.661 243.989 150.106Q245.647 147.552 248.784 147.552ZM266.084 148L268.370 148L250.622 180L248.336 180L266.084 148ZM248.829 149.569L248.829 149.569Q244.706 149.569 244.706 157.546L244.706 157.546Q244.706 165.569 248.784 165.569L248.784 165.569Q252.952 165.569 252.952 157.546L252.952 157.546Q252.952 149.569 248.829 149.569ZM298.443 160.370L298.443 160.370Q301.759 160.370 303.328 163.081Q304.896 165.793 304.896 170.364L304.896 170.364Q304.896 175.339 303.216 177.894Q301.535 180.448 298.398 180.448L298.398 180.448Q295.126 180.448 293.535 177.737Q291.944 175.025 291.944 170.364L291.944 170.364Q291.944 165.434 293.625 162.902Q295.305 160.370 298.443 160.370ZM267.877 160.370L267.877 160.370Q271.193 160.370 272.784 163.081Q274.375 165.793 274.375 170.364L274.375 170.364Q274.375 175.339 272.672 177.894Q270.969 180.448 267.832 180.448L267.832 180.448Q264.560 180.448 262.992 177.737Q261.423 175.025 261.423 170.364L261.423 170.364Q261.423 165.434 263.081 162.902Q264.739 160.370 267.877 160.370ZM283.160 160.370L283.160 160.370Q286.476 160.370 288.067 163.081Q289.658 165.793 289.658 170.364L289.658 170.364Q289.658 175.339 287.955 177.894Q286.252 180.448 283.115 180.448L283.115 180.448Q279.843 180.448 278.275 177.737Q276.706 175.025 276.706 170.364L276.706 170.364Q276.706 165.434 278.364 162.902Q280.022 160.370 283.160 160.370ZM298.443 162.431L298.443 162.431Q294.319 162.431 294.319 170.364L294.319 170.364Q294.319 178.387 298.398 178.387L298.398 178.387Q302.566 178.387 302.566 170.364L302.566 170.364Q302.566 162.431 298.443 162.431ZM267.877 162.431L267.877 162.431Q263.754 162.431 263.754 170.364L263.754 170.364Q263.754 178.387 267.832 178.387L267.832 178.387Q272 178.387 272 170.364L272 170.364Q272 162.431 267.877 162.431ZM283.160 162.431L283.160 162.431Q279.036 162.431 279.036 170.364L279.036 170.364Q279.036 178.387 283.115 178.387L283.115 178.387Q287.283 178.387 287.283 170.364L287.283 170.364Q287.283 162.431 283.160 162.431Z"/></svg>