<svg width="480px" height="360px" xmlns="http://www.w3.org/2000/svg"><rect x="216" y="124" width="80.5" height="80.5" fill-opacity="0"/><path fill="#F00" d="M243.944 145.938L246.499 145.938L246.499 150.286L256.672 150.286L256.672 152.347L246.499 152.347L246.499 157.277Q246.499 158.218 246.454 159.048Q246.409 159.877 246.319 160.728L246.319 160.728L246.499 160.728Q247.440 158.756 249.479 157.457Q251.518 156.157 254.611 156.157L254.611 156.157Q258.689 156.157 260.840 158.263Q262.992 160.370 262.992 164.852L262.992 164.852L262.992 180L260.482 180L260.482 165.031Q260.482 161.625 258.913 159.989Q257.345 158.353 254.342 158.353L254.342 158.353Q246.499 158.353 246.499 167.451L246.499 167.451L246.499 180L243.944 180L243.944 152.347L240.583 152.347L240.583 150.286L243.944 150.286L243.944 145.938Z"/></svg>