<svg width="480px" height="360px" xmlns="http://www.w3.org/2000/svg"><rect x="216" y="124" width="80.5" height="80.5" fill-opacity="0"/><path fill="#F00" d="M253.176 150.331L253.176 180L250.577 180L250.577 150.331L240.269 150.331L240.269 148L263.485 148L263.485 150.331L253.176 150.331ZM253.132 144.683L250.622 144.683Q250.039 143.697 249.098 142.487Q248.157 141.277 247.126 140.090Q246.095 138.902 245.289 138.006L245.289 138.006L245.289 137.557L247.126 137.557Q248.336 138.588 249.569 139.888Q250.801 141.188 251.832 142.443L251.832 142.443Q252.908 141.188 254.185 139.888Q255.462 138.588 256.672 137.557L256.672 137.557L258.510 137.557L258.510 138.006Q257.658 138.902 256.605 140.090Q255.552 141.277 254.611 142.487Q253.669 143.697 253.132 144.683L253.132 144.683Z"/></svg>