<svg width="480px" height="360px" xmlns="http://www.w3.org/2000/svg"><rect x="216" y="124" width="80.5" height="80.5" fill-opacity="0"/><path fill="#F00" d="M261.602 155.395L261.602 155.395Q261.602 158.577 259.720 160.594Q257.838 162.611 254.880 163.148L254.880 163.148L254.880 163.283Q262.588 164.314 262.588 171.081L262.588 171.081Q262.588 175.204 259.697 177.826Q256.807 180.448 250.936 180.448L250.936 180.448Q245.826 180.448 242.062 178.611L242.062 178.611L242.062 176.146Q243.899 177.087 246.275 177.647Q248.650 178.207 250.980 178.207L250.980 178.207Q255.552 178.207 257.725 176.280Q259.899 174.353 259.899 171.036L259.899 171.036Q259.899 167.541 257.300 166.039Q254.700 164.538 250.353 164.538L250.353 164.538L246.947 164.538L246.947 162.297L250.398 162.297Q254.118 162.297 256.538 160.571Q258.958 158.846 258.958 155.529L258.958 155.529Q258.958 152.706 257.120 151.227Q255.283 149.748 252.235 149.748L252.235 149.748Q249.681 149.748 247.641 150.532Q245.602 151.317 243.630 152.661L243.630 152.661L242.331 150.868Q244.168 149.434 246.655 148.493Q249.143 147.552 252.235 147.552L252.235 147.552Q256.672 147.552 259.137 149.681Q261.602 151.810 261.602 155.395Z"/></svg>