<svg width="480px" height="360px" xmlns="http://www.w3.org/2000/svg"><rect x="216" y="124" width="80.5" height="80.5" fill-opacity="0"/><path fill="#F00" d="M263.888 168.034L263.888 168.034Q263.888 171.798 262.655 174.577Q261.423 177.356 259.025 178.902Q256.627 180.448 253.176 180.448L253.176 180.448Q249.860 180.448 247.485 178.924Q245.109 177.401 243.832 174.599Q242.555 171.798 242.555 168.034L242.555 168.034Q242.555 162.252 245.423 158.980Q248.291 155.709 253.356 155.709L253.356 155.709Q256.762 155.709 259.115 157.255Q261.468 158.801 262.678 161.580Q263.888 164.359 263.888 168.034ZM245.199 168.034L245.199 168.034Q245.199 172.650 247.148 175.451Q249.098 178.252 253.221 178.252L253.221 178.252Q257.389 178.252 259.317 175.429Q261.244 172.605 261.244 168.034L261.244 168.034Q261.244 165.076 260.437 162.790Q259.630 160.504 257.882 159.204Q256.134 157.905 253.311 157.905L253.311 157.905Q249.277 157.905 247.238 160.594Q245.199 163.283 245.199 168.034ZM247.216 152.571L245.513 152.571Q245.737 150.151 246.902 148.829Q248.067 147.507 249.994 147.507L249.994 147.507Q251.025 147.507 251.899 147.955Q252.773 148.403 253.557 148.986Q254.342 149.569 255.104 150.017Q255.866 150.465 256.672 150.465L256.672 150.465Q257.658 150.465 258.375 149.815Q259.092 149.165 259.361 147.462L259.361 147.462L261.020 147.462Q260.796 149.882 259.608 151.227Q258.420 152.571 256.538 152.571L256.538 152.571Q255.507 152.571 254.633 152.123Q253.759 151.675 252.997 151.092Q252.235 150.510 251.473 150.062Q250.711 149.613 249.860 149.613L249.860 149.613Q248.829 149.613 248.157 150.263Q247.485 150.913 247.216 152.571L247.216 152.571Z"/></svg>