<svg width="480px" height="360px" xmlns="http://www.w3.org/2000/svg"><rect x="216" y="124" width="80.5" height="80.5" fill-opacity="0"/><path fill="#F00" d="M257.210 190.756L254.700 190.756L254.700 180.314Q249.098 180.090 246.364 177.401Q243.630 174.711 243.630 168.616L243.630 168.616L243.630 156.157L246.140 156.157L246.140 168.616Q246.140 173.681 248.269 175.787Q250.398 177.894 254.700 178.118L254.700 178.118L254.700 145.938L257.210 145.938L257.210 178.073Q261.961 177.804 264.179 174.980Q266.398 172.157 266.398 166.913L266.398 166.913Q266.398 163.910 266.017 161.423Q265.636 158.936 264.919 156.157L264.919 156.157L267.473 156.157Q268.146 158.801 268.527 161.333Q268.908 163.866 268.908 166.868L268.908 166.868Q268.908 179.686 257.210 180.314L257.210 180.314L257.210 190.756Z"/></svg>