<svg width="480px" height="360px" xmlns="http://www.w3.org/2000/svg"><rect x="216" y="124" width="80.5" height="80.5" fill-opacity="0"/><path fill="#F00" d="M264.336 167.944L264.336 167.944Q264.336 173.994 261.669 177.221Q259.003 180.448 254.431 180.448L254.431 180.448Q251.249 180.448 249.322 179.104Q247.395 177.759 246.499 175.877L246.499 175.877L246.319 175.877Q246.409 176.863 246.454 178.252Q246.499 179.641 246.499 180.672L246.499 180.672L246.499 190.577L243.944 190.577L243.944 145.938L246.499 145.938L246.499 156.202Q246.499 157.098 246.454 158.375Q246.409 159.653 246.409 160.504L246.409 160.504L246.543 160.504Q247.440 158.577 249.389 157.143Q251.339 155.709 254.655 155.709L254.655 155.709Q259.227 155.709 261.782 158.824Q264.336 161.938 264.336 167.944ZM261.692 167.899L261.692 167.899Q261.692 157.905 254.297 157.905L254.297 157.905Q250.308 157.905 248.426 160.415Q246.543 162.924 246.543 167.585L246.543 167.585L246.543 168.078Q246.543 173.188 248.381 175.720Q250.218 178.252 254.118 178.252L254.118 178.252Q257.793 178.252 259.742 175.608Q261.692 172.964 261.692 167.899Z"/></svg>