<svg width="480px" height="360px" xmlns="http://www.w3.org/2000/svg"><rect x="216" y="124" width="80.5" height="80.5" fill-opacity="0"/><path fill="#F00" d="M247.529 141.815L247.529 141.815Q250.353 141.815 251.922 143.115Q253.490 144.415 253.490 146.611L253.490 146.611Q253.490 148.448 252.527 149.636Q251.563 150.824 250.174 151.182L250.174 151.182L250.174 151.317Q251.966 151.675 252.997 152.818Q254.028 153.961 254.028 155.843L254.028 155.843Q254.028 158.487 252.168 160.056Q250.308 161.625 246.723 161.625L246.723 161.625Q243.496 161.625 240.986 160.415L240.986 160.415L240.986 158.398Q242.375 159.070 243.832 159.429Q245.289 159.787 246.723 159.787L246.723 159.787Q249.277 159.787 250.532 158.734Q251.787 157.681 251.787 155.798L251.787 155.798Q251.787 152.258 246.633 152.258L246.633 152.258L243.854 152.258L243.854 150.465L246.633 150.465Q248.919 150.465 250.106 149.479Q251.294 148.493 251.294 146.790L251.294 146.790Q251.294 145.266 250.263 144.459Q249.232 143.653 247.529 143.653L247.529 143.653Q246.006 143.653 244.751 144.123Q243.496 144.594 242.241 145.356L242.241 145.356L241.210 143.832Q242.510 142.891 244.034 142.353Q245.557 141.815 247.529 141.815Z"/></svg>