<svg width="480px" height="360px" xmlns="http://www.w3.org/2000/svg"><rect x="216" y="124" width="80.5" height="80.5" fill-opacity="0"/><path fill="#F00" d="M252.728 147.552L252.728 147.552Q256.852 147.552 259.384 149.501Q261.916 151.451 261.916 155.036L261.916 155.036Q261.916 157.950 260.011 159.810Q258.106 161.669 255.193 162.969L255.193 162.969Q258.644 164.359 260.818 166.398Q262.992 168.437 262.992 171.798L262.992 171.798Q262.992 174.532 261.669 176.459Q260.347 178.387 258.017 179.417Q255.686 180.448 252.728 180.448L252.728 180.448Q248.022 180.448 245.289 178.162Q242.555 175.877 242.555 171.978L242.555 171.978Q242.555 168.527 244.683 166.443Q246.812 164.359 250.039 163.104L250.039 163.104Q248.246 162.252 246.768 161.199Q245.289 160.146 244.437 158.644Q243.585 157.143 243.585 155.036L243.585 155.036Q243.585 152.706 244.751 151.025Q245.916 149.345 248 148.448Q250.084 147.552 252.728 147.552ZM252.728 149.703L252.728 149.703Q249.815 149.703 247.955 151.115Q246.095 152.527 246.095 155.126L246.095 155.126Q246.095 157.815 248 159.317Q249.905 160.818 252.908 161.938L252.908 161.938Q255.910 160.683 257.636 159.160Q259.361 157.636 259.361 155.081L259.361 155.081Q259.361 152.437 257.569 151.070Q255.776 149.703 252.728 149.703ZM245.064 172.022L245.064 172.022Q245.064 174.846 247.059 176.571Q249.053 178.297 252.683 178.297L252.683 178.297Q256.224 178.297 258.331 176.594Q260.437 174.891 260.437 171.798L260.437 171.798Q260.437 169.199 258.577 167.496Q256.717 165.793 253.356 164.538L253.356 164.538L252.370 164.179Q249.098 165.434 247.081 167.204Q245.064 168.975 245.064 172.022Z"/></svg>