<svg width="480px" height="360px" xmlns="http://www.w3.org/2000/svg"><rect x="216" y="124" width="80.5" height="80.5" fill-opacity="0"/><path fill="#F00" d="M268.190 148L268.190 168.706Q268.190 174.174 265.031 177.311Q261.871 180.448 256.090 180.448L256.090 180.448Q250.308 180.448 247.238 177.311Q244.168 174.174 244.168 168.616L244.168 168.616L244.168 148L246.768 148L246.768 168.616Q246.768 173.277 249.188 175.697Q251.608 178.118 256.224 178.118L256.224 178.118Q260.751 178.118 263.193 175.675Q265.636 173.232 265.636 168.885L265.636 168.885L265.636 148L268.190 148ZM249.994 142.353L262.364 142.353L262.364 144.504L249.994 144.504L249.994 142.353Z"/></svg>