<svg width="480px" height="360px" xmlns="http://www.w3.org/2000/svg"><rect x="216" y="124" width="80.5" height="80.5" fill-opacity="0"/><path fill="#F00" d="M251.697 178.387L251.697 180L242.286 180L242.286 178.387L245.692 177.894L245.692 150.151L242.286 149.613L242.286 148L251.697 148L251.697 149.613L248.291 150.151L248.291 177.894L251.697 178.387ZM242.196 137.513L245.244 137.513Q245.782 138.499 246.700 139.754Q247.619 141.008 248.627 142.218Q249.636 143.429 250.487 144.280L250.487 144.280L250.487 144.683L248.695 144.683Q247.574 143.787 246.319 142.555Q245.064 141.322 243.966 140.067Q242.868 138.812 242.196 137.871L242.196 137.871L242.196 137.513Z"/></svg>