<svg width="480px" height="360px" xmlns="http://www.w3.org/2000/svg"><rect x="216" y="124" width="80.5" height="80.5" fill-opacity="0"/><path fill="#F00" d="M262.050 161.983L262.050 161.983Q262.050 164.269 260.840 165.546Q259.630 166.824 257.703 167.272L257.703 167.272L257.703 167.406Q259.989 167.765 261.468 169.154Q262.947 170.543 262.947 173.188L262.947 173.188Q262.947 176.280 260.840 178.140Q258.734 180 254.162 180L254.162 180L243.944 180L243.944 156.157L253.938 156.157Q257.838 156.157 259.944 157.613Q262.050 159.070 262.050 161.983ZM259.451 162.252L259.451 162.252Q259.451 160.415 258.129 159.384Q256.807 158.353 253.714 158.353L253.714 158.353L246.499 158.353L246.499 166.375L253.401 166.375Q259.451 166.375 259.451 162.252ZM260.303 173.188L260.303 173.188Q260.303 170.723 258.599 169.647Q256.896 168.571 253.625 168.571L253.625 168.571L246.499 168.571L246.499 177.849L253.759 177.849Q257.031 177.849 258.667 176.728Q260.303 175.608 260.303 173.188Z"/></svg>