<svg width="480px" height="360px" xmlns="http://www.w3.org/2000/svg"><rect x="216" y="124" width="80.5" height="80.5" fill-opacity="0"/><path fill="#F00" d="M254.611 155.709L254.611 155.709Q258.689 155.709 260.840 157.815Q262.992 159.922 262.992 164.403L262.992 164.403L262.992 180L260.482 180L260.482 164.583Q260.482 161.176 258.913 159.541Q257.345 157.905 254.342 157.905L254.342 157.905Q246.499 157.905 246.499 167.003L246.499 167.003L246.499 180L243.944 180L243.944 156.157L246.006 156.157L246.364 160.280L246.543 160.280Q247.485 158.308 249.546 157.008Q251.608 155.709 254.611 155.709ZM255.641 182.734L255.641 183.048Q255.283 184.527 254.454 186.454Q253.625 188.381 252.549 189.905L252.549 189.905L251.070 189.905L251.070 189.501Q251.429 188.784 251.832 187.552Q252.235 186.319 252.571 184.997Q252.908 183.675 253.042 182.734L253.042 182.734L255.641 182.734Z"/></svg>