<svg width="480px" height="360px" xmlns="http://www.w3.org/2000/svg"><rect x="216" y="124" width="80.5" height="80.5" fill-opacity="0"/><path fill="#F00" d="M258.958 173.681L258.958 173.681Q258.958 176.908 256.538 178.678Q254.118 180.448 249.725 180.448L249.725 180.448Q247.216 180.448 245.289 180.022Q243.361 179.597 242.062 178.924L242.062 178.924L242.062 176.459Q243.630 177.266 245.647 177.782Q247.664 178.297 249.770 178.297L249.770 178.297Q253.266 178.297 254.857 177.109Q256.448 175.922 256.448 173.860L256.448 173.860Q256.448 171.888 254.790 170.835Q253.132 169.782 249.905 168.661L249.905 168.661Q247.664 167.899 245.983 167.115Q244.303 166.331 243.361 165.120Q242.420 163.910 242.420 161.804L242.420 161.804Q242.420 158.936 244.751 157.322Q247.081 155.709 250.980 155.709L250.980 155.709Q253.132 155.709 254.992 156.112Q256.852 156.515 258.420 157.188L258.420 157.188L257.479 159.294Q256.090 158.711 254.342 158.286Q252.594 157.860 250.846 157.860L250.846 157.860Q248.022 157.860 246.454 158.846Q244.885 159.832 244.885 161.714L244.885 161.714Q244.885 163.148 245.647 163.978Q246.409 164.807 247.843 165.389Q249.277 165.972 251.339 166.689L251.339 166.689Q253.490 167.451 255.193 168.258Q256.896 169.064 257.927 170.319Q258.958 171.574 258.958 173.681ZM256.627 145.669L256.627 146.028Q255.955 146.969 254.857 148.224Q253.759 149.479 252.504 150.711Q251.249 151.944 250.129 152.840L250.129 152.840L248.336 152.840L248.336 152.437Q249.188 151.585 250.174 150.375Q251.160 149.165 252.078 147.910Q252.997 146.655 253.580 145.669L253.580 145.669L256.627 145.669Z"/></svg>