<svg width="480px" height="360px" xmlns="http://www.w3.org/2000/svg"><rect x="216" y="124" width="80.5" height="80.5" fill-opacity="0"/><path fill="#F00" d="M261.692 138.409L264.112 138.409Q263.709 144.683 256.627 144.683L256.627 144.683Q253.042 144.683 251.294 143.160Q249.546 141.636 249.367 138.409L249.367 138.409L251.787 138.409Q251.966 140.829 253.109 141.815Q254.252 142.801 256.672 142.801L256.672 142.801Q258.958 142.801 260.213 141.815Q261.468 140.829 261.692 138.409L261.692 138.409ZM244.527 180L244.527 148L246.992 148L246.992 169.737Q246.992 171.440 246.924 173.210Q246.857 174.980 246.812 176.101L246.812 176.101L246.947 176.101L265.546 148L268.280 148L268.280 180L265.815 180L265.815 158.577Q265.815 156.650 265.882 154.790Q265.950 152.930 265.994 151.810L265.994 151.810L265.860 151.810L247.261 180L244.527 180Z"/></svg>