<svg width="480px" height="360px" xmlns="http://www.w3.org/2000/svg"><rect x="216" y="124" width="80.5" height="80.5" fill-opacity="0"/><path fill="#F00" d="M262.050 177.669L262.050 180L244.482 180L244.482 148L262.050 148L262.050 150.331L247.081 150.331L247.081 162.028L261.199 162.028L261.199 164.359L247.081 164.359L247.081 177.669L262.050 177.669ZM252.459 137.557L254.969 137.557Q255.507 138.543 256.448 139.776Q257.389 141.008 258.420 142.218Q259.451 143.429 260.303 144.280L260.303 144.280L260.303 144.683L258.465 144.683Q257.255 143.697 256 142.398Q254.745 141.098 253.669 139.843L253.669 139.843Q252.594 141.098 251.361 142.398Q250.129 143.697 248.919 144.683L248.919 144.683L247.081 144.683L247.081 144.280Q247.933 143.384 248.964 142.196Q249.994 141.008 250.936 139.776Q251.877 138.543 252.459 137.557L252.459 137.557Z"/></svg>