<svg width="480px" height="360px" xmlns="http://www.w3.org/2000/svg"><rect x="216" y="124" width="80.5" height="80.5" fill-opacity="0"/><path fill="#F00" d="M246.095 156.157L246.095 164.269Q246.095 167.137 247.529 168.415Q248.964 169.692 251.697 169.692L251.697 169.692Q254.118 169.692 256.045 168.952Q257.972 168.213 259.810 166.913L259.810 166.913L259.810 156.157L262.364 156.157L262.364 180L259.810 180L259.810 169.064Q257.838 170.409 255.866 171.148Q253.894 171.888 251.249 171.888L251.249 171.888Q247.485 171.888 245.513 169.938Q243.541 167.989 243.541 164.538L243.541 164.538L243.541 156.157L246.095 156.157Z"/></svg>