<svg width="480px" height="360px" xmlns="http://www.w3.org/2000/svg"><rect x="216" y="124" width="80.5" height="80.5" fill-opacity="0"/><path fill="#F00" d="M273.569 168.034L273.569 168.034Q273.569 171.754 272.426 174.532Q271.283 177.311 269.087 178.880Q266.891 180.448 263.619 180.448L263.619 180.448Q258.958 180.448 256.471 177.266Q253.983 174.084 253.804 168.706L253.804 168.706L246.454 168.706L246.454 180L243.899 180L243.899 156.157L246.454 156.157L246.454 166.465L253.804 166.465Q254.028 163.373 255.193 160.952Q256.359 158.532 258.487 157.120Q260.616 155.709 263.709 155.709L263.709 155.709Q266.980 155.709 269.176 157.300Q271.373 158.891 272.471 161.669Q273.569 164.448 273.569 168.034ZM256.403 168.034L256.403 168.034Q256.403 171.036 257.143 173.345Q257.882 175.653 259.473 176.952Q261.064 178.252 263.664 178.252L263.664 178.252Q267.473 178.252 269.199 175.451Q270.924 172.650 270.924 168.034L270.924 168.034Q270.924 163.507 269.221 160.706Q267.518 157.905 263.664 157.905L263.664 157.905Q259.854 157.905 258.129 160.728Q256.403 163.552 256.403 168.034Z"/></svg>