<svg width="480px" height="360px" xmlns="http://www.w3.org/2000/svg"><rect x="216" y="124" width="80.5" height="80.5" fill-opacity="0"/><path fill="#F00" d="M251.339 182.599L251.339 178.655Q248.695 178.655 246.499 178.252Q244.303 177.849 242.913 177.266L242.913 177.266L242.913 174.711Q244.437 175.384 246.700 175.877Q248.964 176.370 251.339 176.370L251.339 176.370L251.339 164.717Q248.695 163.910 246.790 162.880Q244.885 161.849 243.854 160.370Q242.824 158.891 242.824 156.605L242.824 156.605Q242.824 153.199 245.199 151.294Q247.574 149.389 251.339 149.165L251.339 149.165L251.339 145.983L253.311 145.983L253.311 149.165Q255.417 149.210 257.300 149.636Q259.182 150.062 260.885 150.824L260.885 150.824L260.034 152.975Q258.375 152.303 256.650 151.899Q254.924 151.496 253.311 151.406L253.311 151.406L253.311 162.835Q256.045 163.731 258.017 164.717Q259.989 165.703 261.042 167.137Q262.095 168.571 262.095 170.902L262.095 170.902Q262.095 174.353 259.697 176.303Q257.300 178.252 253.311 178.566L253.311 178.566L253.311 182.599L251.339 182.599ZM251.339 162.162L251.339 151.451Q248.605 151.630 246.992 152.863Q245.378 154.095 245.378 156.381L245.378 156.381Q245.378 158.846 246.969 160.056Q248.560 161.266 251.339 162.162L251.339 162.162ZM253.311 165.434L253.311 176.280Q256.224 176.056 257.882 174.756Q259.541 173.457 259.541 170.992L259.541 170.992Q259.541 168.751 258.017 167.608Q256.493 166.465 253.311 165.434L253.311 165.434Z"/></svg>