<svg width="480px" height="360px" xmlns="http://www.w3.org/2000/svg"><rect x="216" y="124" width="80.5" height="80.5" fill-opacity="0"/><path fill="#F00" d="M257.569 189.053L255.059 189.053Q255.776 187.709 256.269 186.364Q256.762 185.020 256.762 183.810L256.762 183.810Q256.717 183.048 256.426 182.308Q256.134 181.569 255.171 180.964Q254.207 180.359 252.101 179.955L252.101 179.955Q247.350 179.059 244.952 176.997Q242.555 174.936 242.555 170.857L242.555 170.857Q242.555 168.347 243.518 166.577Q244.482 164.807 246.095 163.731Q247.709 162.655 249.591 162.207L249.591 162.207L249.591 162.028Q247.126 161.535 245.557 159.922Q243.989 158.308 243.989 155.305L243.989 155.305Q243.989 153.064 244.952 151.563Q245.916 150.062 247.507 149.165Q249.098 148.269 251.070 147.821L251.070 147.821Q249.905 147.910 248.739 147.955Q247.574 148 245.961 148L245.961 148L243.720 148L243.720 145.938L259.451 145.938L259.451 147.866L257.882 147.866Q255.686 147.866 253.647 148.179Q251.608 148.493 249.994 149.300Q248.381 150.106 247.440 151.518Q246.499 152.930 246.499 155.171L246.499 155.171Q246.499 157.905 248.359 159.451Q250.218 160.997 254.297 160.997L254.297 160.997L258.824 160.997L258.824 163.059L254.252 163.059Q249.860 163.059 247.529 165.076Q245.199 167.092 245.199 170.588L245.199 170.588Q245.199 172.874 246.028 174.241Q246.857 175.608 248.650 176.437Q250.443 177.266 253.266 177.804L253.266 177.804Q255.776 178.297 257.053 179.126Q258.331 179.955 258.801 181.008Q259.272 182.062 259.272 183.317L259.272 183.317Q259.272 184.930 258.824 186.252Q258.375 187.574 257.569 189.053L257.569 189.053Z"/></svg>