<svg width="480px" height="360px" xmlns="http://www.w3.org/2000/svg"><rect x="216" y="124" width="80.5" height="80.5" fill-opacity="0"/><path fill="#F00" d="M253.849 180L243.944 180L243.944 156.157L246.499 156.157L246.499 166.151L254.252 166.151Q258.555 166.151 260.571 167.899Q262.588 169.647 262.588 172.829L262.588 172.829Q262.588 176.190 260.482 178.095Q258.375 180 253.849 180L253.849 180ZM268.952 180L266.398 180L266.398 156.157L268.952 156.157L268.952 180ZM246.499 177.849L253.580 177.849Q260.034 177.849 260.034 172.919L260.034 172.919Q260.034 170.543 258.487 169.445Q256.941 168.347 253.938 168.347L253.938 168.347L246.499 168.347L246.499 177.849Z"/></svg>